SplineFontDB: 3.0
FontName: Inika-Bold
FullName: Inika Bold
FamilyName: Inika
Weight: Bold
Copyright: Copyright (c) 2011 by Constanza Artigas Preller. All rights reserved.
Version: 1.001
ItalicAngle: 0
UnderlinePosition: -50
UnderlineWidth: 50
Ascent: 800
Descent: 200
sfntRevision: 0x00010042
LayerCount: 2
Layer: 0 1 "Back"  1
Layer: 1 1 "Fore"  0
XUID: [1021 497 753560476 533417]
FSType: 0
OS2Version: 2
OS2_WeightWidthSlopeOnly: 0
OS2_UseTypoMetrics: 1
CreationTime: 1325880171
ModificationTime: 1325881673
PfmFamily: 17
TTFWeight: 700
TTFWidth: 5
LineGap: 0
VLineGap: 0
Panose: 2 0 0 0 0 0 0 0 0 0
OS2TypoAscent: 206
OS2TypoAOffset: 1
OS2TypoDescent: -97
OS2TypoDOffset: 1
OS2TypoLinegap: 0
OS2WinAscent: 24
OS2WinAOffset: 1
OS2WinDescent: 0
OS2WinDOffset: 1
HheadAscent: 24
HheadAOffset: 1
HheadDescent: 0
HheadDOffset: 1
OS2SubXSize: 700
OS2SubYSize: 650
OS2SubXOff: 0
OS2SubYOff: 140
OS2SupXSize: 700
OS2SupYSize: 650
OS2SupXOff: 0
OS2SupYOff: 477
OS2StrikeYSize: 50
OS2StrikeYPos: 250
OS2Vendor: 'pyrs'
OS2CodePages: 20000011.00000000
OS2UnicodeRanges: 00000023.00000000.00000000.00000000
Lookup: 258 0 0 "'kern' Horizontal Kerning in Latin lookup 0"  {"'kern' Horizontal Kerning in Latin lookup 0 subtable"  } ['kern' ('latn' <'dflt' > ) ]
DEI: 91125
TtTable: prep
PUSHW_1
 511
SCANCTRL
PUSHB_1
 4
SCANTYPE
EndTTInstrs
ShortTable: maxp 16
  1
  0
  306
  102
  7
  87
  4
  2
  0
  1
  1
  0
  64
  0
  2
  1
EndShort
LangName: 1033 "" "" "" "ConstanzaArtigas: inika Bold: 2011" "" "Version 1.001" "" "Inika-Bold is a trademark of Constanza Artigas Preller." "Constanza Artigas Preller" "Constanza Artigas Preller" "Copyright (c) 2011 by Constanza Artigas Preller. All rights reserved." "" "" "This Font Software is licensed under the SIL Open Font License, Version 1.1. This license is available with a FAQ at: http://scripts.sil.org/OFL" "http://scripts.sil.org/OFL" 
GaspTable: 1 65535 15 1
Encoding: UnicodeBmp
UnicodeInterp: none
NameList: Adobe Glyph List
DisplaySize: -24

StartChar: exclam
Encoding: 33 33 4
Width: 291
GlyphClass: 2
Flags: W
LayerCount: 2
Fore
SplineSet
214 187 m 1,0,1
 199 184 199 184 175.5 184 c 128,-1,2
 152 184 152 184 119 189 c 1,3,-1
 95 722 l 1,4,5
 124 725 124 725 158.5 725 c 128,-1,6
 193 725 193 725 228 717 c 1,7,-1
 214 187 l 1,0,1
100 124 m 1,8,9
 139 127 139 127 166.5 127 c 128,-1,10
 194 127 194 127 234 118 c 1,11,12
 238 89 238 89 238 65.5 c 128,-1,13
 238 42 238 42 229 -3 c 1,14,15
 190 -6 190 -6 162.5 -6 c 128,-1,16
 135 -6 135 -6 95 3 c 1,17,18
 91 32 91 32 91 55.5 c 128,-1,19
 91 79 91 79 100 124 c 1,8,9
EndSplineSet
EndChar

StartChar: quotedbl
Encoding: 34 34 5
Width: 406
GlyphClass: 2
Flags: W
LayerCount: 2
Fore
SplineSet
217 733 m 1,0,1
 225 693 225 693 225 657 c 128,-1,2
 225 621 225 621 218 570.5 c 128,-1,3
 211 520 211 520 198 493 c 1,4,5
 172 486 172 486 161 486 c 128,-1,6
 150 486 150 486 146 486 c 0,7,8
 132 488 132 488 117 488 c 1,9,10
 121 516 121 516 121 541 c 0,11,12
 121 622 121 622 75 726 c 1,13,14
 126 737 126 737 145.5 737 c 128,-1,15
 165 737 165 737 217 733 c 1,0,1
390 733 m 1,16,17
 399 688 399 688 399 654.5 c 128,-1,18
 399 621 399 621 392 570.5 c 128,-1,19
 385 520 385 520 371 493 c 1,20,21
 346 486 346 486 326 486 c 1,22,-1
 290 488 l 1,23,24
 295 516 295 516 295 541 c 0,25,26
 295 618 295 618 249 726 c 1,27,28
 299 737 299 737 318.5 737 c 128,-1,29
 338 737 338 737 390 733 c 1,16,17
EndSplineSet
EndChar

StartChar: numbersign
Encoding: 35 35 6
Width: 667
GlyphClass: 2
Flags: W
LayerCount: 2
Fore
SplineSet
370 187 m 1,0,-1
 258 188 l 1,1,-1
 236 4 l 1,2,3
 208 -3 208 -3 193 -3 c 1,4,-1
 140 3 l 1,5,-1
 156 189 l 1,6,-1
 31 191 l 1,7,8
 26 217 26 217 26 233 c 1,9,-1
 30 278 l 1,10,11
 98 285 98 285 143 285 c 2,12,-1
 164 285 l 1,13,14
 167 323 167 323 177 437 c 1,15,-1
 57 439 l 1,16,17
 52 464 52 464 52 481 c 1,18,-1
 56 526 l 1,19,20
 124 533 124 533 169 533 c 2,21,-1
 185 533 l 1,22,-1
 199 698 l 1,23,24
 248 701 248 701 267.5 701 c 128,-1,25
 287 701 287 701 321 698 c 1,26,-1
 300 531 l 1,27,28
 360 531 360 531 399 530 c 1,29,30
 411 659 411 659 414 698 c 1,31,32
 464 701 464 701 483 701 c 128,-1,33
 502 701 502 701 536 698 c 1,34,-1
 514 529 l 1,35,36
 600 529 600 529 636 526 c 1,37,38
 638 498 638 498 638 481.5 c 128,-1,39
 638 465 638 465 633 441 c 1,40,41
 565 434 565 434 521 434 c 2,42,-1
 503 434 l 1,43,-1
 484 281 l 1,44,-1
 607 280 l 1,45,46
 611 250 611 250 611 234 c 128,-1,47
 611 218 611 218 607 193 c 1,48,49
 539 186 539 186 495 186 c 2,50,-1
 473 186 l 1,51,-1
 451 4 l 1,52,53
 423 -3 423 -3 408 -3 c 1,54,-1
 355 3 l 1,55,-1
 370 187 l 1,0,-1
270 284 m 1,56,-1
 379 282 l 1,57,58
 381 310 381 310 392 435 c 1,59,60
 323 435 323 435 289 436 c 1,61,-1
 270 284 l 1,56,-1
EndSplineSet
EndChar

StartChar: dollar
Encoding: 36 36 7
Width: 503
GlyphClass: 2
Flags: W
LayerCount: 2
Fore
SplineSet
145 198 m 1,0,-1
 178 196 l 1,1,-1
 190 92 l 1,2,3
 228 78 228 78 260.5 78 c 128,-1,4
 293 78 293 78 315.5 95.5 c 128,-1,5
 338 113 338 113 338 137 c 128,-1,6
 338 161 338 161 322 177 c 128,-1,7
 306 193 306 193 289 202.5 c 128,-1,8
 272 212 272 212 237.5 228.5 c 128,-1,9
 203 245 203 245 181.5 257 c 128,-1,10
 160 269 160 269 132 290 c 0,11,12
 79 331 79 331 79 395 c 128,-1,13
 79 459 79 459 115 500.5 c 128,-1,14
 151 542 151 542 214 554 c 1,15,-1
 213 671 l 1,16,17
 240 680 240 680 268 680 c 128,-1,18
 296 680 296 680 320 672 c 1,19,20
 318 594 318 594 318 555 c 1,21,22
 384 545 384 545 445 514 c 1,23,24
 447 495 447 495 447 454.5 c 128,-1,25
 447 414 447 414 436 365 c 1,26,27
 428 362 428 362 392 357 c 128,-1,28
 356 352 356 352 340 352 c 1,29,-1
 306 463 l 1,30,31
 291 468 291 468 266 468 c 128,-1,32
 241 468 241 468 224 451.5 c 128,-1,33
 207 435 207 435 207 410.5 c 128,-1,34
 207 386 207 386 231.5 368 c 128,-1,35
 256 350 256 350 296 331 c 128,-1,36
 336 312 336 312 353 303 c 128,-1,37
 370 294 370 294 395 277.5 c 128,-1,38
 420 261 420 261 434 245 c 0,39,40
 468 204 468 204 468 158 c 0,41,42
 468 90 468 90 425 47.5 c 128,-1,43
 382 5 382 5 312 -8 c 1,44,-1
 311 -115 l 1,45,46
 290 -123 290 -123 268.5 -123 c 128,-1,47
 247 -123 247 -123 222 -116 c 1,48,49
 222 -80 222 -80 220 -10 c 1,50,51
 124 2 124 2 60 50 c 1,52,53
 60 121 60 121 75 192 c 1,54,55
 123 198 123 198 145 198 c 1,0,-1
EndSplineSet
EndChar

StartChar: percent
Encoding: 37 37 8
Width: 852
GlyphClass: 2
Flags: W
LayerCount: 2
Fore
SplineSet
85.5 690.5 m 128,-1,1
 131 746 131 746 221.5 746 c 128,-1,2
 312 746 312 746 359 692 c 128,-1,3
 406 638 406 638 406 545.5 c 128,-1,4
 406 453 406 453 359 394.5 c 128,-1,5
 312 336 312 336 222 336 c 0,6,7
 40 336 40 336 40 540 c 0,8,0
 40 635 40 635 85.5 690.5 c 128,-1,1
486.5 341.5 m 128,-1,10
 532 397 532 397 622.5 397 c 128,-1,11
 713 397 713 397 759.5 343 c 128,-1,12
 806 289 806 289 806 196 c 128,-1,13
 806 103 806 103 759.5 45 c 128,-1,14
 713 -13 713 -13 623 -13 c 0,15,16
 441 -13 441 -13 441 191 c 0,17,9
 441 286 441 286 486.5 341.5 c 128,-1,10
709 677 m 1,18,-1
 204 -19 l 1,19,20
 166 -1 166 -1 133 30 c 1,21,-1
 612 740 l 1,22,23
 672 715 672 715 709 677 c 1,18,-1
192 425 m 128,-1,25
 204 417 204 417 223.5 417 c 128,-1,26
 243 417 243 417 256.5 427 c 128,-1,27
 270 437 270 437 275 458 c 0,28,29
 283 490 283 490 283 526.5 c 128,-1,30
 283 563 283 563 281.5 580 c 128,-1,31
 280 597 280 597 275 620 c 0,32,33
 265 665 265 665 222 665 c 0,34,35
 189 665 189 665 174 640 c 0,36,37
 162 620 162 620 161 592 c 128,-1,38
 160 564 160 564 160 540.5 c 128,-1,39
 160 517 160 517 160.5 504.5 c 128,-1,40
 161 492 161 492 164.5 473 c 128,-1,41
 168 454 168 454 174 443.5 c 128,-1,24
 180 433 180 433 192 425 c 128,-1,25
593 77 m 128,-1,43
 605 69 605 69 622.5 69 c 128,-1,44
 640 69 640 69 652 77 c 128,-1,45
 664 85 664 85 670 95 c 128,-1,46
 676 105 676 105 680 123 c 0,47,48
 684 146 684 146 684 179.5 c 128,-1,49
 684 213 684 213 682.5 230.5 c 128,-1,50
 681 248 681 248 676 270 c 0,51,52
 666 316 666 316 623 316 c 0,53,54
 590 316 590 316 575 291 c 0,55,56
 563 271 563 271 562 243 c 128,-1,57
 561 215 561 215 561 192 c 128,-1,58
 561 169 561 169 561.5 156 c 128,-1,59
 562 143 562 143 565.5 124.5 c 128,-1,60
 569 106 569 106 575 95.5 c 128,-1,42
 581 85 581 85 593 77 c 128,-1,43
EndSplineSet
EndChar

StartChar: ampersand
Encoding: 38 38 9
Width: 728
GlyphClass: 2
Flags: W
LayerCount: 2
Fore
SplineSet
320 623 m 0,0,1
 280 623 280 623 263 599.5 c 128,-1,2
 246 576 246 576 246 551 c 128,-1,3
 246 526 246 526 256.5 504 c 128,-1,4
 267 482 267 482 279.5 467.5 c 128,-1,5
 292 453 292 453 317 427.5 c 128,-1,6
 342 402 342 402 367 374 c 2,7,-1
 496 224 l 1,8,9
 506 234 506 234 511 243 c 128,-1,10
 516 252 516 252 522.5 263 c 128,-1,11
 529 274 529 274 533 287.5 c 128,-1,12
 537 301 537 301 542 320 c 0,13,14
 550 355 550 355 552 418 c 1,15,-1
 473 428 l 1,16,17
 473 471 473 471 496 515 c 1,18,-1
 748 515 l 1,19,-1
 744 458 l 1,20,21
 709 437 709 437 666 429 c 1,22,23
 666 345 666 345 629.5 269 c 128,-1,24
 593 193 593 193 562 163 c 1,25,-1
 683 28 l 1,26,27
 661 -18 661 -18 609 -18 c 1,28,-1
 500 78 l 1,29,30
 460 41 460 41 402.5 14.5 c 128,-1,31
 345 -12 345 -12 300 -12 c 0,32,33
 190 -12 190 -12 115 44.5 c 128,-1,34
 40 101 40 101 40 205 c 0,35,36
 40 267 40 267 76.5 316.5 c 128,-1,37
 113 366 113 366 165 395 c 1,38,39
 107 463 107 463 107 539.5 c 128,-1,40
 107 616 107 616 162 664 c 128,-1,41
 217 712 217 712 313 712 c 0,42,43
 364 712 364 712 413 688 c 128,-1,44
 462 664 462 664 491 635 c 1,45,-1
 473 527 l 1,46,47
 451 516 451 516 425.5 516 c 128,-1,48
 400 516 400 516 388 518 c 1,49,-1
 364 619 l 1,50,51
 336 623 336 623 320 623 c 0,0,1
193 271.5 m 128,-1,53
 174 241 174 241 174 207 c 128,-1,54
 174 173 174 173 188 146.5 c 128,-1,55
 202 120 202 120 224 107 c 0,56,57
 266 82 266 82 303 82 c 0,58,59
 380 82 380 82 436 143 c 1,60,-1
 245 321 l 1,61,52
 212 302 212 302 193 271.5 c 128,-1,53
EndSplineSet
EndChar

StartChar: quotesingle
Encoding: 39 39 10
Width: 205
GlyphClass: 2
Flags: W
LayerCount: 2
Fore
SplineSet
191 733 m 1,0,1
 200 688 200 688 200 654.5 c 128,-1,2
 200 621 200 621 193 570.5 c 128,-1,3
 186 520 186 520 172 493 c 1,4,5
 147 486 147 486 127 486 c 1,6,-1
 91 488 l 1,7,8
 96 516 96 516 96 541 c 0,9,10
 96 618 96 618 50 726 c 1,11,12
 99 737 99 737 119 737 c 128,-1,13
 139 737 139 737 191 733 c 1,0,1
EndSplineSet
EndChar

StartChar: parenleft
Encoding: 40 40 11
Width: 326
GlyphClass: 2
Flags: W
LayerCount: 2
Fore
SplineSet
326 692 m 1,0,1
 202 404 202 404 202 248 c 128,-1,2
 202 92 202 92 326 -194 c 1,3,-1
 344 -238 l 1,4,5
 314 -272 314 -272 262 -280 c 1,6,7
 195 -192 195 -192 132.5 -34.5 c 128,-1,8
 70 123 70 123 70 249 c 128,-1,9
 70 375 70 375 132.5 532.5 c 128,-1,10
 195 690 195 690 262 778 c 1,11,12
 312 765 312 765 344 736 c 1,13,-1
 326 692 l 1,0,1
EndSplineSet
EndChar

StartChar: parenright
Encoding: 41 41 12
Width: 326
GlyphClass: 2
Flags: W
LayerCount: 2
Fore
SplineSet
33 -194 m 1,0,1
 157 92 157 92 157 248 c 128,-1,2
 157 404 157 404 33 692 c 1,3,-1
 15 736 l 1,4,5
 47 765 47 765 97 778 c 1,6,7
 164 690 164 690 226.5 532.5 c 128,-1,8
 289 375 289 375 289 249 c 128,-1,9
 289 123 289 123 226.5 -34.5 c 128,-1,10
 164 -192 164 -192 97 -280 c 1,11,12
 45 -272 45 -272 15 -238 c 1,13,-1
 33 -194 l 1,0,1
EndSplineSet
EndChar

StartChar: asterisk
Encoding: 42 42 13
Width: 430
GlyphClass: 2
Flags: W
LayerCount: 2
Fore
SplineSet
193 640 m 1,0,-1
 190 721 l 2,1,2
 190 732 190 732 191 735 c 1,3,4
 221 745 221 745 245.5 745 c 128,-1,5
 270 745 270 745 293 739 c 1,6,7
 305 729 305 729 311 701 c 1,8,9
 308 691 308 691 284 656.5 c 128,-1,10
 260 622 260 622 258 617 c 1,11,12
 261 619 261 619 298.5 642 c 128,-1,13
 336 665 336 665 347 668 c 1,14,15
 390 623 390 623 399 591 c 1,16,17
 399 577 399 577 372 556 c 1,18,19
 360 554 360 554 347 554 c 128,-1,20
 334 554 334 554 306 555.5 c 128,-1,21
 278 557 278 557 268 557 c 1,22,23
 274 553 274 553 298 540 c 0,24,25
 355 510 355 510 364 501 c 1,26,27
 351 451 351 451 324 424 c 1,28,29
 316 422 316 422 301.5 422 c 128,-1,30
 287 422 287 422 268 429 c 1,31,32
 256 443 256 443 232 504 c 1,33,-1
 235 423 l 2,34,35
 235 412 235 412 234 409 c 1,36,37
 202 399 202 399 177.5 399 c 128,-1,38
 153 399 153 399 132 405 c 1,39,40
 119 414 119 414 113 442 c 1,41,42
 117 453 117 453 139 486.5 c 128,-1,43
 161 520 161 520 164 526 c 1,44,45
 161 524 161 524 123.5 501 c 128,-1,46
 86 478 86 478 76 476 c 1,47,48
 34 521 34 521 26 553 c 1,49,50
 26 566 26 566 52 588 c 1,51,52
 64 590 64 590 77 590 c 128,-1,53
 90 590 90 590 117 588.5 c 128,-1,54
 144 587 144 587 153 587 c 1,55,56
 147 591 147 591 124 604 c 0,57,58
 68 635 68 635 60 643 c 1,59,60
 74 693 74 693 100 720 c 1,61,62
 110 722 110 722 121.5 722 c 128,-1,63
 133 722 133 722 157 714 c 1,64,65
 162 708 162 708 176.5 675.5 c 128,-1,66
 191 643 191 643 193 640 c 1,0,-1
EndSplineSet
EndChar

StartChar: plus
Encoding: 43 43 14
Width: 526
GlyphClass: 2
Flags: W
LayerCount: 2
Fore
SplineSet
322 1 m 1,0,1
 289 -2 289 -2 264.5 -2 c 128,-1,2
 240 -2 240 -2 221 2 c 1,3,4
 207 76 207 76 207 120.5 c 128,-1,5
 207 165 207 165 208 211 c 1,6,-1
 31 215 l 1,7,8
 27 234 27 234 27 256 c 128,-1,9
 27 278 27 278 30 301 c 1,10,11
 108 315 108 315 164 315 c 2,12,-1
 210 315 l 1,13,-1
 214 512 l 1,14,15
 233 516 233 516 257.5 516 c 128,-1,16
 282 516 282 516 315 513 c 1,17,18
 328 440 328 440 328 385 c 2,19,-1
 328 312 l 1,20,-1
 510 308 l 1,21,22
 514 289 514 289 514 266.5 c 128,-1,23
 514 244 514 244 511 223 c 1,24,25
 433 208 433 208 397 208 c 128,-1,26
 361 208 361 208 325 209 c 1,27,-1
 322 1 l 1,0,1
EndSplineSet
EndChar

StartChar: comma
Encoding: 44 44 15
Width: 210
GlyphClass: 2
Flags: W
LayerCount: 2
Fore
SplineSet
185 128 m 1,0,1
 194 92 194 92 194 46 c 128,-1,2
 194 0 194 0 155 -55.5 c 128,-1,3
 116 -111 116 -111 82 -132 c 1,4,5
 47 -117 47 -117 25 -92 c 1,6,7
 38 -53 38 -53 82 -1 c 1,8,-1
 57 2 l 1,9,10
 48 33 48 33 48 65.5 c 128,-1,11
 48 98 48 98 51 123 c 1,12,13
 92 132 92 132 112.5 132 c 128,-1,14
 133 132 133 132 185 128 c 1,0,1
EndSplineSet
EndChar

StartChar: hyphen
Encoding: 45 45 16
Width: 327
GlyphClass: 2
Flags: W
LayerCount: 2
Fore
SplineSet
310 299 m 1,0,1
 314 280 314 280 314 257.5 c 128,-1,2
 314 235 314 235 311 211 c 1,3,4
 242 204 242 204 198 204 c 1,5,-1
 53 210 l 1,6,7
 48 228 48 228 48 251.5 c 128,-1,8
 48 275 48 275 51 299 c 1,9,10
 120 306 120 306 164 306 c 1,11,-1
 310 299 l 1,0,1
EndSplineSet
EndChar

StartChar: period
Encoding: 46 46 17
Width: 208
GlyphClass: 2
Flags: W
LayerCount: 2
Fore
SplineSet
188 127 m 1,0,1
 197 91 197 91 197 65.5 c 128,-1,2
 197 40 197 40 194 8 c 1,3,4
 160 -1 160 -1 129 -1 c 128,-1,5
 98 -1 98 -1 61 2 c 1,6,7
 51 42 51 42 51 60.5 c 128,-1,8
 51 79 51 79 55 121 c 1,9,10
 88 130 88 130 118.5 130 c 128,-1,11
 149 130 149 130 188 127 c 1,0,1
EndSplineSet
EndChar

StartChar: slash
Encoding: 47 47 18
Width: 407
GlyphClass: 2
Flags: W
LayerCount: 2
Fore
SplineSet
334 703 m 128,-1,1
 360 703 360 703 411 694 c 1,2,-1
 145 1 l 1,3,4
 124 -4 124 -4 87 -4 c 128,-1,5
 50 -4 50 -4 30 -1 c 1,6,-1
 282 699 l 1,7,0
 308 703 308 703 334 703 c 128,-1,1
EndSplineSet
EndChar

StartChar: zero
Encoding: 48 48 19
Width: 527
GlyphClass: 2
Flags: W
LayerCount: 2
Fore
SplineSet
278 552 m 0,0,1
 402 552 402 552 459 480.5 c 128,-1,2
 516 409 516 409 516 277.5 c 128,-1,3
 516 146 516 146 459 67 c 128,-1,4
 402 -12 402 -12 277 -12 c 128,-1,5
 152 -12 152 -12 98 58.5 c 128,-1,6
 44 129 44 129 44 272 c 0,7,8
 44 552 44 552 278 552 c 0,0,1
278 79 m 128,-1,10
 308 79 308 79 328.5 90 c 128,-1,11
 349 101 349 101 359.5 117 c 128,-1,12
 370 133 370 133 376 162 c 0,13,14
 384 200 384 200 384 273 c 0,15,16
 384 461 384 461 278 461 c 0,17,18
 249 461 249 461 228 449 c 128,-1,19
 207 437 207 437 196 421 c 128,-1,20
 185 405 185 405 179 378 c 0,21,22
 171 342 171 342 171 292.5 c 128,-1,23
 171 243 171 243 172.5 218.5 c 128,-1,24
 174 194 174 194 179.5 164.5 c 128,-1,25
 185 135 185 135 196 118.5 c 128,-1,26
 207 102 207 102 227.5 90.5 c 128,-1,9
 248 79 248 79 278 79 c 128,-1,10
EndSplineSet
EndChar

StartChar: one
Encoding: 49 49 20
Width: 360
GlyphClass: 2
Flags: W
LayerCount: 2
Fore
SplineSet
283 489 m 1,0,1
 283 477 283 477 273 96 c 1,2,-1
 356 87 l 1,3,4
 356 43 356 43 333 0 c 1,5,-1
 55 0 l 1,6,-1
 46 55 l 1,7,8
 120 83 120 83 158 91 c 1,9,10
 149 405 149 405 149 408 c 1,11,12
 87 384 87 384 52 380 c 1,13,14
 26 426 26 426 25 468 c 1,15,-1
 236 541 l 1,16,17
 271 522 271 522 283 489 c 1,0,1
EndSplineSet
EndChar

StartChar: two
Encoding: 50 50 21
Width: 453
GlyphClass: 2
Flags: W
LayerCount: 2
Fore
SplineSet
167 341 m 1,0,-1
 131 340 l 2,1,2
 113 340 113 340 73 347 c 1,3,4
 54 399 54 399 53 478 c 1,5,6
 80 505 80 505 130.5 528.5 c 128,-1,7
 181 552 181 552 226 552 c 0,8,9
 318 552 318 552 374.5 505 c 128,-1,10
 431 458 431 458 431 396 c 128,-1,11
 431 334 431 334 404 287 c 128,-1,12
 377 240 377 240 308 180 c 2,13,-1
 203 89 l 1,14,-1
 312 89 l 1,15,16
 323 168 323 168 326 178 c 1,17,18
 338 180 338 180 363 180 c 128,-1,19
 388 180 388 180 415 169 c 1,20,21
 429 99 429 99 429 35 c 1,22,-1
 428 0 l 1,23,-1
 63 0 l 1,24,25
 46 36 46 36 46 77 c 1,26,27
 264 287 264 287 286 326 c 0,28,29
 299 349 299 349 299 393 c 0,30,31
 299 417 299 417 279 440 c 128,-1,32
 259 463 259 463 218 463 c 0,33,34
 199 463 199 463 190 462 c 1,35,36
 185 440 185 440 177 395.5 c 128,-1,37
 169 351 169 351 167 341 c 1,0,-1
EndSplineSet
EndChar

StartChar: three
Encoding: 51 51 22
Width: 474
GlyphClass: 2
Flags: W
LayerCount: 2
Fore
SplineSet
292 381 m 0,0,1
 292 466 292 466 202 466 c 0,2,3
 193 466 193 466 179 464 c 1,4,-1
 156 342 l 1,5,6
 86 342 86 342 63 348 c 1,7,8
 43 404 43 404 43 469 c 2,9,-1
 43 478 l 1,10,11
 66 506 66 506 118.5 528.5 c 128,-1,12
 171 551 171 551 210 551 c 0,13,14
 303 551 303 551 363 505.5 c 128,-1,15
 423 460 423 460 423 394 c 0,16,17
 423 307 423 307 336 252 c 1,18,19
 384 237 384 237 417 193.5 c 128,-1,20
 450 150 450 150 450 84 c 128,-1,21
 450 18 450 18 407 -36.5 c 128,-1,22
 364 -91 364 -91 307 -116.5 c 128,-1,23
 250 -142 250 -142 183.5 -142 c 128,-1,24
 117 -142 117 -142 29 -112 c 1,25,26
 31 -61 31 -61 51 -32 c 1,27,-1
 81 -38 l 1,28,29
 129 -50 129 -50 159.5 -50 c 128,-1,30
 190 -50 190 -50 206 -47 c 128,-1,31
 222 -44 222 -44 251 -34 c 128,-1,32
 280 -24 280 -24 299 3 c 128,-1,33
 318 30 318 30 318 75 c 128,-1,34
 318 120 318 120 287 150.5 c 128,-1,35
 256 181 256 181 207 181 c 0,36,37
 204 181 204 181 138 175 c 1,38,39
 128 217 128 217 128 230 c 128,-1,40
 128 243 128 243 130 263 c 1,41,-1
 189 271 l 2,42,43
 232 277 232 277 262 306.5 c 128,-1,44
 292 336 292 336 292 381 c 0,0,1
EndSplineSet
EndChar

StartChar: four
Encoding: 52 52 23
Width: 532
GlyphClass: 2
Flags: W
LayerCount: 2
Fore
SplineSet
525 118 m 1,0,-1
 526 95 l 1,1,2
 526 56 526 56 509 27 c 1,3,-1
 423 27 l 1,4,-1
 416 -129 l 1,5,6
 399 -133 399 -133 370 -133 c 128,-1,7
 341 -133 341 -133 317 -130 c 1,8,-1
 310 27 l 1,9,-1
 35 27 l 1,10,11
 15 56 15 56 15 88 c 0,12,13
 15 96 15 96 17 100 c 2,14,-1
 272 540 l 1,15,-1
 434 540 l 1,16,17
 434 536 434 536 425 119 c 1,18,-1
 525 118 l 1,0,-1
308 120 m 1,19,-1
 301 371 l 1,20,-1
 152 118 l 1,21,22
 204 118 204 118 308 120 c 1,19,-1
EndSplineSet
EndChar

StartChar: five
Encoding: 53 53 24
Width: 451
GlyphClass: 2
Flags: W
LayerCount: 2
Fore
SplineSet
292 146.5 m 128,-1,1
 265 181 265 181 211.5 181 c 128,-1,2
 158 181 158 181 124 172 c 1,3,4
 112 179 112 179 92 198.5 c 128,-1,5
 72 218 72 218 63 230 c 1,6,-1
 52 540 l 1,7,-1
 446 540 l 1,8,9
 453 513 453 513 453 459.5 c 128,-1,10
 453 406 453 406 431 340 c 1,11,12
 402 333 402 333 375.5 333 c 128,-1,13
 349 333 349 333 337 334 c 1,14,-1
 316 448 l 1,15,-1
 177 448 l 1,16,-1
 165 269 l 1,17,18
 185 278 185 278 212 278 c 0,19,20
 315 278 315 278 383 225 c 128,-1,21
 451 172 451 172 451 76 c 128,-1,22
 451 -20 451 -20 372.5 -80.5 c 128,-1,23
 294 -141 294 -141 179 -141 c 0,24,25
 151 -141 151 -141 104.5 -132.5 c 128,-1,26
 58 -124 58 -124 30 -112 c 1,27,28
 30 -94 30 -94 37 -67 c 128,-1,29
 44 -40 44 -40 52 -32 c 1,30,31
 103 -50 103 -50 178 -50 c 0,32,33
 222 -50 222 -50 256 -35 c 0,34,35
 319 -6 319 -6 319 75 c 0,36,0
 319 112 319 112 292 146.5 c 128,-1,1
EndSplineSet
EndChar

StartChar: six
Encoding: 54 54 25
Width: 559
GlyphClass: 2
Flags: W
LayerCount: 2
Fore
SplineSet
427 722 m 1,0,1
 433 700 433 700 433 676.5 c 128,-1,2
 433 653 433 653 428 639 c 1,3,4
 221 623 221 623 188 412 c 1,5,6
 257 449 257 449 313 449 c 0,7,8
 416 449 416 449 477 394.5 c 128,-1,9
 538 340 538 340 538 225 c 128,-1,10
 538 110 538 110 475 49 c 128,-1,11
 412 -12 412 -12 309 -12 c 0,12,13
 238 -12 238 -12 186 18 c 128,-1,14
 134 48 134 48 106 100 c 0,15,16
 51 199 51 199 51 344 c 0,17,18
 51 437 51 437 85.5 511.5 c 128,-1,19
 120 586 120 586 176 630 c 0,20,21
 290 722 290 722 427 722 c 1,0,1
187 296 m 1,22,-1
 190 238 l 1,23,-1
 190 236 l 1,24,25
 196 167 196 167 226 122.5 c 128,-1,26
 256 78 256 78 304 78 c 0,27,28
 406 78 406 78 406 240 c 0,29,30
 406 301 406 301 382.5 329 c 128,-1,31
 359 357 359 357 306.5 357 c 128,-1,32
 254 357 254 357 187 313 c 1,33,-1
 187 296 l 1,22,-1
EndSplineSet
EndChar

StartChar: seven
Encoding: 55 55 26
Width: 464
GlyphClass: 2
Flags: W
LayerCount: 2
Fore
SplineSet
427 513.5 m 128,-1,1
 440 492 440 492 440 483 c 128,-1,2
 440 474 440 474 439 469 c 0,3,4
 384 293 384 293 310.5 81 c 128,-1,5
 237 -131 237 -131 232 -143 c 1,6,7
 170 -135 170 -135 140 -111 c 1,8,-1
 304 449 l 1,9,-1
 160 449 l 1,10,-1
 137 334 l 1,11,12
 125 332 125 332 101 332 c 1,13,-1
 43 339 l 1,14,15
 22 402 22 402 22 479 c 0,16,17
 22 501 22 501 28 540 c 1,18,-1
 406 540 l 1,19,0
 414 535 414 535 427 513.5 c 128,-1,1
EndSplineSet
EndChar

StartChar: eight
Encoding: 56 56 27
Width: 528
GlyphClass: 2
Flags: W
LayerCount: 2
Fore
SplineSet
498 189 m 0,0,1
 498 103 498 103 443.5 45.5 c 128,-1,2
 389 -12 389 -12 276 -12 c 0,3,4
 196 -12 196 -12 126 30 c 0,5,6
 90 52 90 52 67.5 91 c 128,-1,7
 45 130 45 130 45 183.5 c 128,-1,8
 45 237 45 237 76 281 c 128,-1,9
 107 325 107 325 159 366 c 1,10,11
 60 421 60 421 60 539 c 0,12,13
 60 624 60 624 118 673 c 128,-1,14
 176 722 176 722 277.5 722 c 128,-1,15
 379 722 379 722 436.5 671 c 128,-1,16
 494 620 494 620 494 552.5 c 128,-1,17
 494 485 494 485 463 435 c 128,-1,18
 432 385 432 385 383 354 c 1,19,20
 453 306 453 306 475.5 267 c 128,-1,21
 498 228 498 228 498 189 c 0,0,1
371 172 m 0,22,23
 371 221 371 221 343 252.5 c 128,-1,24
 315 284 315 284 245 322 c 1,25,26
 177 266 177 266 177 184 c 0,27,28
 177 138 177 138 210.5 107 c 128,-1,29
 244 76 244 76 277 76 c 0,30,31
 371 76 371 76 371 172 c 0,22,23
362 545 m 0,32,33
 362 631 362 631 276 631 c 0,34,35
 247 631 247 631 211 621 c 1,36,37
 192 583 192 583 192 544 c 0,38,39
 192 450 192 450 279 411 c 0,40,41
 283 410 283 410 289.5 406.5 c 128,-1,42
 296 403 296 403 299 402 c 1,43,44
 362 449 362 449 362 545 c 0,32,33
EndSplineSet
EndChar

StartChar: nine
Encoding: 57 57 28
Width: 523
GlyphClass: 2
Flags: W
LayerCount: 2
Fore
SplineSet
98 -81 m 0,0,1
 98 -71 98 -71 99 -68 c 1,2,3
 212 -60 212 -60 267.5 -14 c 128,-1,4
 323 32 323 32 343 123 c 1,5,6
 297 104 297 104 258 104 c 0,7,8
 155 104 155 104 94 167 c 128,-1,9
 33 230 33 230 33 327 c 128,-1,10
 33 424 33 424 94.5 488 c 128,-1,11
 156 552 156 552 265 552 c 128,-1,12
 374 552 374 552 435 478.5 c 128,-1,13
 496 405 496 405 496 282 c 0,14,15
 496 94 496 94 400 -20.5 c 128,-1,16
 304 -135 304 -135 114 -141 c 1,17,18
 98 -118 98 -118 98 -81 c 0,0,1
275 193 m 0,19,20
 297 193 297 193 361 228 c 1,21,22
 366 264 366 264 366 295.5 c 128,-1,23
 366 327 366 327 362 351.5 c 128,-1,24
 358 376 358 376 348.5 403 c 128,-1,25
 339 430 339 430 318 446 c 128,-1,26
 297 462 297 462 268 462 c 0,27,28
 167 462 167 462 164 322 c 1,29,30
 164 258 164 258 194 225.5 c 128,-1,31
 224 193 224 193 275 193 c 0,19,20
EndSplineSet
EndChar

StartChar: colon
Encoding: 58 58 29
Width: 238
GlyphClass: 2
Flags: W
LayerCount: 2
Fore
SplineSet
203 127 m 1,0,1
 212 91 212 91 212 65.5 c 128,-1,2
 212 40 212 40 209 8 c 1,3,4
 174 -1 174 -1 144 -1 c 128,-1,5
 114 -1 114 -1 76 2 c 1,6,7
 66 42 66 42 66 60.5 c 128,-1,8
 66 79 66 79 70 121 c 1,9,10
 103 130 103 130 133.5 130 c 128,-1,11
 164 130 164 130 203 127 c 1,0,1
203 451 m 1,12,13
 212 415 212 415 212 389.5 c 128,-1,14
 212 364 212 364 209 332 c 1,15,16
 174 323 174 323 144 323 c 128,-1,17
 114 323 114 323 76 326 c 1,18,19
 66 366 66 366 66 384.5 c 128,-1,20
 66 403 66 403 70 445 c 1,21,22
 103 454 103 454 133.5 454 c 128,-1,23
 164 454 164 454 203 451 c 1,12,13
EndSplineSet
EndChar

StartChar: semicolon
Encoding: 59 59 30
Width: 235
GlyphClass: 2
Flags: W
LayerCount: 2
Fore
SplineSet
200 451 m 1,0,1
 209 415 209 415 209 389.5 c 128,-1,2
 209 364 209 364 206 332 c 1,3,4
 172 323 172 323 141 323 c 128,-1,5
 110 323 110 323 73 326 c 1,6,7
 63 366 63 366 63 384.5 c 128,-1,8
 63 403 63 403 67 445 c 1,9,10
 100 454 100 454 130.5 454 c 128,-1,11
 161 454 161 454 200 451 c 1,0,1
200 128 m 1,12,13
 209 92 209 92 209 46 c 128,-1,14
 209 0 209 0 170 -55.5 c 128,-1,15
 131 -111 131 -111 97 -132 c 1,16,17
 62 -117 62 -117 40 -92 c 1,18,19
 53 -53 53 -53 97 -1 c 1,20,-1
 72 2 l 1,21,22
 63 33 63 33 63 65.5 c 128,-1,23
 63 98 63 98 66 123 c 1,24,25
 107 132 107 132 127.5 132 c 128,-1,26
 148 132 148 132 200 128 c 1,12,13
EndSplineSet
EndChar

StartChar: less
Encoding: 60 60 31
Width: 441
GlyphClass: 2
Flags: W
LayerCount: 2
Fore
SplineSet
50 230 m 1,0,1
 46 246 46 246 46 260.5 c 128,-1,2
 46 275 46 275 50 289 c 1,3,4
 172 411 172 411 216 452 c 0,5,6
 279 512 279 512 354 560 c 1,7,-1
 403 493 l 1,8,9
 215 296 215 296 177 262 c 1,10,-1
 194 247 l 1,11,-1
 414 32 l 1,12,-1
 354 -36 l 1,13,14
 281 11 281 11 252 38 c 0,15,16
 65 212 65 212 50 230 c 1,0,1
EndSplineSet
EndChar

StartChar: equal
Encoding: 61 61 32
Width: 596
GlyphClass: 2
Flags: W
LayerCount: 2
Fore
SplineSet
535 227 m 1,0,1
 540 201 540 201 540 182 c 1,2,-1
 537 140 l 1,3,4
 458 125 458 125 403 125 c 1,5,-1
 75 132 l 1,6,7
 70 157 70 157 70 174 c 1,8,-1
 74 218 l 1,9,10
 152 233 152 233 208 233 c 1,11,-1
 535 227 l 1,0,1
537 394 m 1,12,13
 540 367 540 367 540 349 c 1,14,-1
 537 307 l 1,15,16
 458 292 458 292 403 292 c 1,17,-1
 75 299 l 1,18,19
 70 324 70 324 70 341 c 1,20,-1
 74 384 l 1,21,22
 152 399 152 399 208 399 c 2,23,-1
 537 394 l 1,12,13
EndSplineSet
EndChar

StartChar: greater
Encoding: 62 62 33
Width: 466
GlyphClass: 2
Flags: W
LayerCount: 2
Fore
SplineSet
434 289 m 1,0,1
 438 275 438 275 438 260.5 c 128,-1,2
 438 246 438 246 434 230 c 1,3,4
 429 224 429 224 345 144.5 c 128,-1,5
 261 65 261 65 242 48 c 1,6,7
 205 12 205 12 130 -36 c 1,8,-1
 70 32 l 1,9,10
 265 225 265 225 307 262 c 1,11,-1
 290 277 l 1,12,-1
 81 493 l 1,13,-1
 130 560 l 1,14,15
 203 513 203 513 258 462 c 128,-1,16
 313 411 313 411 434 289 c 1,0,1
EndSplineSet
EndChar

StartChar: question
Encoding: 63 63 34
Width: 482
GlyphClass: 2
Flags: W
LayerCount: 2
Fore
SplineSet
309 525 m 128,-1,1
 320 555 320 555 320 586.5 c 128,-1,2
 320 618 320 618 300 639.5 c 128,-1,3
 280 661 280 661 245 661 c 0,4,5
 227 661 227 661 207 655 c 1,6,-1
 184 550 l 1,7,-1
 92 554 l 1,8,9
 74 605 74 605 70 681 c 1,10,11
 158 749 158 749 261 749 c 0,12,13
 445 749 445 749 445 572 c 0,14,15
 445 540 445 540 431.5 505 c 128,-1,16
 418 470 418 470 404 448.5 c 128,-1,17
 390 427 390 427 363 389 c 0,18,19
 305 307 305 307 294 259 c 0,20,21
 291 245 291 245 291 179 c 1,22,23
 255 172 255 172 211 172 c 1,24,25
 193 214 193 214 183 268 c 1,26,27
 193 331 193 331 255 425 c 0,28,29
 275 456 275 456 286.5 475.5 c 128,-1,0
 298 495 298 495 309 525 c 128,-1,1
319 5 m 1,30,31
 287 -3 287 -3 255 -3 c 128,-1,32
 223 -3 223 -3 196 1 c 1,33,34
 188 35 188 35 188 71 c 128,-1,35
 188 107 188 107 191 125 c 1,36,37
 223 131 223 131 255.5 131 c 128,-1,38
 288 131 288 131 314 128 c 1,39,40
 322 96 322 96 322 62.5 c 128,-1,41
 322 29 322 29 319 5 c 1,30,31
EndSplineSet
EndChar

StartChar: at
Encoding: 64 64 35
Width: 915
GlyphClass: 2
Flags: W
LayerCount: 2
Fore
SplineSet
477 64 m 0,0,1
 494 64 494 64 578 116 c 0,2,3
 578 117 578 117 575 210 c 1,4,-1
 499 203 l 2,5,6
 418 195 418 195 418 128 c 0,7,8
 418 64 418 64 477 64 c 0,0,1
703 306 m 1,9,-1
 699 76 l 1,10,11
 735 71 735 71 779 58 c 1,12,13
 823 146 823 146 823 260 c 0,14,15
 823 413 823 413 735 495 c 128,-1,16
 647 577 647 577 496.5 577 c 128,-1,17
 346 577 346 577 258 495 c 128,-1,18
 170 413 170 413 170 256.5 c 128,-1,19
 170 100 170 100 266 -2 c 128,-1,20
 362 -104 362 -104 494 -104 c 0,21,22
 572 -104 572 -104 681 -83 c 128,-1,23
 790 -62 790 -62 826 -41 c 1,24,25
 836 -51 836 -51 845.5 -75.5 c 128,-1,26
 855 -100 855 -100 857 -120 c 1,27,28
 818 -146 818 -146 702.5 -168 c 128,-1,29
 587 -190 587 -190 495 -190 c 0,30,31
 310 -190 310 -190 190 -64 c 128,-1,32
 70 62 70 62 70 255.5 c 128,-1,33
 70 449 70 449 180.5 557 c 128,-1,34
 291 665 291 665 496.5 665 c 128,-1,35
 702 665 702 665 812.5 562.5 c 128,-1,36
 923 460 923 460 923 275 c 0,37,38
 923 196 923 196 876 113 c 128,-1,39
 829 30 829 30 776 5 c 0,40,41
 754 -5 754 -5 705 -16.5 c 128,-1,42
 656 -28 656 -28 608 -28 c 1,43,44
 601 -14 601 -14 589 22 c 1,45,46
 500 -34 500 -34 456 -34 c 0,47,48
 379 -34 379 -34 332.5 6.5 c 128,-1,49
 286 47 286 47 286 120 c 0,50,51
 286 284 286 284 488 291 c 1,52,53
 539 291 539 291 571 293 c 1,54,-1
 570 309 l 1,55,56
 568 365 568 365 550.5 391 c 128,-1,57
 533 417 533 417 489 417 c 1,58,-1
 457 411 l 1,59,-1
 434 310 l 1,60,-1
 398 309 l 1,61,-1
 341 316 l 1,62,63
 322 368 322 368 321 450 c 1,64,65
 342 461 342 461 414.5 484 c 128,-1,66
 487 507 487 507 506 507 c 0,67,68
 614 507 614 507 658.5 459.5 c 128,-1,69
 703 412 703 412 703 306 c 1,9,-1
EndSplineSet
EndChar

StartChar: A
Encoding: 65 65 36
Width: 739
GlyphClass: 2
Flags: W
LayerCount: 2
Fore
SplineSet
519 689 m 1,0,-1
 520 679 l 1,1,2
 520 638 520 638 507 609 c 1,3,4
 494 599 494 599 466 593 c 1,5,-1
 633 99 l 1,6,-1
 728 87 l 1,7,8
 728 46 728 46 705 0 c 1,9,-1
 462 0 l 1,10,-1
 453 55 l 1,11,12
 495 71 495 71 508 76 c 1,13,-1
 468 189 l 1,14,-1
 243 189 l 1,15,16
 213 100 213 100 211 96 c 1,17,-1
 280 87 l 1,18,19
 280 66 280 66 272 38.5 c 128,-1,20
 264 11 264 11 257 0 c 1,21,-1
 14 0 l 1,22,-1
 5 55 l 1,23,24
 50 74 50 74 86 83 c 1,25,-1
 254 597 l 1,26,27
 187 607 187 607 153 623 c 1,28,29
 153 652 153 652 162 674 c 1,30,31
 183 681 183 681 260.5 690.5 c 128,-1,32
 338 700 338 700 408.5 700 c 128,-1,33
 479 700 479 700 519 689 c 1,0,-1
390 414 m 1,34,-1
 361 546 l 1,35,-1
 351 546 l 1,36,-1
 319 408 l 1,37,-1
 272 283 l 1,38,-1
 439 283 l 1,39,-1
 390 414 l 1,34,-1
EndSplineSet
EndChar

StartChar: B
Encoding: 66 66 37
Width: 630
GlyphClass: 2
Flags: W
LayerCount: 2
Fore
SplineSet
299 92 m 0,0,1
 454 92 454 92 454 203 c 0,2,3
 454 284 454 284 416.5 305.5 c 128,-1,4
 379 327 379 327 248 327 c 1,5,-1
 244 94 l 1,6,7
 278 92 278 92 299 92 c 0,0,1
402 429 m 128,-1,9
 434 447 434 447 434 504.5 c 128,-1,10
 434 562 434 562 397 581 c 128,-1,11
 360 600 360 600 285 600 c 2,12,-1
 249 600 l 1,13,14
 247 474 247 474 247 410 c 1,15,-1
 293 409 l 1,16,8
 370 411 370 411 402 429 c 128,-1,9
294 -1 m 2,17,-1
 47 -1 l 1,18,-1
 38 54 l 1,19,20
 90 75 90 75 122 83 c 1,21,22
 122 86 122 86 113 612 c 1,23,24
 97 616 97 616 30 638 c 1,25,-1
 38 699 l 1,26,-1
 315 699 l 2,27,28
 434 699 434 699 500 653 c 128,-1,29
 566 607 566 607 566 520 c 0,30,31
 566 478 566 478 543.5 429 c 128,-1,32
 521 380 521 380 492 371 c 1,33,34
 536 347 536 347 561 304 c 128,-1,35
 586 261 586 261 586 205 c 0,36,37
 586 113 586 113 511 56 c 128,-1,38
 436 -1 436 -1 294 -1 c 2,17,-1
EndSplineSet
EndChar

StartChar: C
Encoding: 67 67 38
Width: 591
GlyphClass: 2
Flags: W
LayerCount: 2
Fore
SplineSet
477 474 m 1,0,-1
 446 475 l 1,1,-1
 417 595 l 1,2,3
 359 605 359 605 330 605 c 0,4,5
 273 605 273 605 202 582 c 1,6,7
 181 543 181 543 169 482 c 128,-1,8
 157 421 157 421 157 367 c 0,9,10
 157 91 157 91 316 91 c 0,11,12
 384 91 384 91 424 111 c 1,13,-1
 445 233 l 1,14,15
 508 233 508 233 541 226 c 1,16,17
 557 117 557 117 557 49 c 1,18,19
 533 31 533 31 460.5 9 c 128,-1,20
 388 -13 388 -13 318 -13 c 0,21,22
 20 -13 20 -13 20 355 c 0,23,24
 20 530 20 530 92.5 621 c 128,-1,25
 165 712 165 712 324 712 c 0,26,27
 403 712 403 712 464 689 c 0,28,29
 518 669 518 669 556 645 c 1,30,31
 556 577 556 577 541 481 c 1,32,33
 513 474 513 474 477 474 c 1,0,-1
EndSplineSet
EndChar

StartChar: D
Encoding: 68 68 39
Width: 667
GlyphClass: 2
Flags: W
LayerCount: 2
Fore
SplineSet
635 365 m 0,0,1
 635 145 635 145 530 59 c 0,2,3
 487 25 487 25 437 12.5 c 128,-1,4
 387 0 387 0 306 0 c 2,5,-1
 47 0 l 1,6,-1
 38 55 l 1,7,8
 114 83 114 83 122 84 c 1,9,10
 122 87 122 87 113 613 c 1,11,12
 69 624 69 624 30 639 c 1,13,14
 36 691 36 691 38 700 c 1,15,-1
 303 700 l 2,16,17
 401 700 401 700 459.5 680 c 128,-1,18
 518 660 518 660 563 609 c 0,19,20
 635 525 635 525 635 365 c 0,0,1
466.5 152 m 128,-1,22
 504 207 504 207 504 342 c 128,-1,23
 504 477 504 477 462 538.5 c 128,-1,24
 420 600 420 600 322 600 c 2,25,-1
 249 600 l 1,26,27
 245 263 245 263 244 97 c 1,28,-1
 315 97 l 2,29,21
 429 97 429 97 466.5 152 c 128,-1,22
EndSplineSet
EndChar

StartChar: E
Encoding: 69 69 40
Width: 595
GlyphClass: 2
Flags: W
LayerCount: 2
Fore
SplineSet
249 600 m 1,0,1
 249 486 249 486 247 404 c 1,2,-1
 349 404 l 1,3,-1
 359 473 l 1,4,5
 410 473 410 473 458 448 c 1,6,-1
 458 248 l 1,7,-1
 392 245 l 1,8,9
 368 281 368 281 364 308 c 1,10,-1
 246 308 l 1,11,12
 244 168 244 168 244 97 c 1,13,-1
 415 97 l 1,14,-1
 437 184 l 1,15,16
 499 184 499 184 531 178 c 1,17,18
 546 121 546 121 546 74.5 c 128,-1,19
 546 28 546 28 543 0 c 1,20,-1
 47 0 l 1,21,-1
 38 55 l 1,22,23
 103 80 103 80 122 84 c 1,24,25
 121 143 121 143 120 250 c 0,26,27
 116 490 116 490 113 613 c 1,28,-1
 30 639 l 1,29,-1
 38 700 l 1,30,-1
 529 700 l 1,31,32
 532 673 532 673 532 632.5 c 128,-1,33
 532 592 532 592 517 520 c 1,34,35
 486 510 486 510 423 510 c 1,36,-1
 400 600 l 1,37,-1
 249 600 l 1,0,1
EndSplineSet
EndChar

StartChar: F
Encoding: 70 70 41
Width: 556
GlyphClass: 2
Flags: W
LayerCount: 2
Fore
SplineSet
249 600 m 1,0,1
 249 460 249 460 247 380 c 1,2,-1
 349 380 l 1,3,-1
 359 449 l 1,4,5
 410 449 410 449 458 424 c 1,6,-1
 458 226 l 1,7,-1
 392 221 l 1,8,9
 368 257 368 257 364 284 c 1,10,-1
 246 284 l 1,11,-1
 244 96 l 1,12,-1
 343 85 l 1,13,14
 343 46 343 46 320 0 c 1,15,-1
 47 0 l 1,16,-1
 38 55 l 1,17,18
 103 80 103 80 122 84 c 1,19,20
 121 143 121 143 120 250 c 0,21,22
 116 490 116 490 113 613 c 1,23,-1
 30 639 l 1,24,-1
 38 700 l 1,25,-1
 529 700 l 1,26,27
 532 673 532 673 532 631.5 c 128,-1,28
 532 590 532 590 517 518 c 1,29,30
 495 511 495 511 450 511 c 1,31,-1
 428 512 l 1,32,-1
 423 512 l 1,33,-1
 400 600 l 1,34,-1
 249 600 l 1,0,1
EndSplineSet
EndChar

StartChar: G
Encoding: 71 71 42
Width: 655
GlyphClass: 2
Flags: W
LayerCount: 2
Fore
SplineSet
318 -13 m 0,0,1
 182 -13 182 -13 101 79 c 128,-1,2
 20 171 20 171 20 351 c 128,-1,3
 20 531 20 531 90.5 621.5 c 128,-1,4
 161 712 161 712 319 712 c 0,5,6
 386 712 386 712 447.5 694 c 128,-1,7
 509 676 509 676 531 663.5 c 128,-1,8
 553 651 553 651 566 641 c 1,9,10
 566 577 566 577 550 499 c 1,11,12
 524 487 524 487 498.5 487 c 128,-1,13
 473 487 473 487 455 489 c 1,14,-1
 434 593 l 1,15,16
 390 605 390 605 348 605 c 0,17,18
 289 605 289 605 201 581 c 1,19,20
 157 493 157 493 157 367 c 0,21,22
 157 91 157 91 319 91 c 0,23,24
 400 91 400 91 448 118 c 1,25,26
 450 170 450 170 452 278 c 1,27,-1
 368 304 l 1,28,-1
 376 365 l 1,29,-1
 618 365 l 1,30,31
 630 343 630 343 636 286 c 1,32,33
 602 279 602 279 563 276 c 1,34,35
 569 147 569 147 569 54 c 1,36,37
 540 35 540 35 464 11 c 128,-1,38
 388 -13 388 -13 318 -13 c 0,0,1
EndSplineSet
EndChar

StartChar: H
Encoding: 72 72 43
Width: 744
GlyphClass: 2
Flags: W
LayerCount: 2
Fore
SplineSet
512 84 m 1,0,-1
 508 320 l 1,1,-1
 246 320 l 1,2,3
 244 170 244 170 244 96 c 1,4,-1
 313 87 l 1,5,6
 313 46 313 46 290 0 c 1,7,-1
 47 0 l 1,8,-1
 38 55 l 1,9,10
 94 78 94 78 122 84 c 1,11,12
 122 87 122 87 113 613 c 1,13,-1
 30 639 l 1,14,-1
 38 700 l 1,15,-1
 297 700 l 1,16,17
 313 673 313 673 316 621 c 1,18,19
 265 613 265 613 249 611 c 1,20,21
 247 481 247 481 247 416 c 1,22,-1
 506 416 l 1,23,-1
 503 613 l 1,24,-1
 420 639 l 1,25,-1
 428 700 l 1,26,-1
 687 700 l 1,27,28
 703 673 703 673 706 621 c 1,29,30
 655 613 655 613 639 611 c 1,31,-1
 634 96 l 1,32,-1
 703 87 l 1,33,34
 703 46 703 46 680 0 c 1,35,-1
 437 0 l 1,36,-1
 428 55 l 1,37,38
 484 78 484 78 512 84 c 1,0,-1
EndSplineSet
EndChar

StartChar: I
Encoding: 73 73 44
Width: 380
GlyphClass: 2
Flags: W
LayerCount: 2
Fore
SplineSet
323 700 m 2,0,1
 322 700 322 700 323.5 698 c 128,-1,2
 325 696 325 696 327.5 689.5 c 128,-1,3
 330 683 330 683 333 674 c 0,4,5
 339 658 339 658 341 621 c 1,6,7
 290 613 290 613 274 611 c 1,8,-1
 269 96 l 1,9,-1
 338 87 l 1,10,11
 338 46 338 46 315 0 c 1,12,-1
 72 0 l 1,13,-1
 63 55 l 1,14,15
 119 78 119 78 147 84 c 1,16,17
 146 143 146 143 144 250 c 0,18,19
 141 490 141 490 138 613 c 1,20,-1
 55 639 l 1,21,-1
 63 700 l 1,22,-1
 323 700 l 2,0,1
EndSplineSet
EndChar

StartChar: J
Encoding: 74 74 45
Width: 464
GlyphClass: 2
Flags: W
LayerCount: 2
Fore
SplineSet
185 93 m 0,0,1
 248 93 248 93 248 189 c 0,2,3
 248 225 248 225 237 613 c 1,4,-1
 154 639 l 1,5,-1
 162 700 l 1,6,-1
 422 700 l 1,7,8
 440 661 440 661 440 621 c 1,9,10
 380 611 380 611 373 611 c 1,11,12
 372 553 372 553 371.5 404 c 128,-1,13
 371 255 371 255 369 170.5 c 128,-1,14
 367 86 367 86 325 36.5 c 128,-1,15
 283 -13 283 -13 203 -13 c 0,16,17
 145 -13 145 -13 87.5 5 c 128,-1,18
 30 23 30 23 5 47 c 1,19,20
 6 120 6 120 21 213 c 1,21,22
 61 224 61 224 119 224 c 1,23,-1
 138 97 l 1,24,25
 154 93 154 93 185 93 c 0,0,1
EndSplineSet
EndChar

StartChar: K
Encoding: 75 75 46
Width: 692
GlyphClass: 2
Flags: W
LayerCount: 2
Fore
SplineSet
245 216 m 1,0,-1
 244 96 l 1,1,-1
 313 87 l 1,2,3
 313 46 313 46 290 0 c 1,4,-1
 47 0 l 1,5,-1
 38 55 l 1,6,7
 94 78 94 78 122 84 c 1,8,9
 122 87 122 87 113 613 c 1,10,-1
 30 639 l 1,11,-1
 38 700 l 1,12,-1
 297 700 l 1,13,14
 313 673 313 673 316 621 c 1,15,16
 265 613 265 613 249 611 c 1,17,-1
 246 385 l 1,18,-1
 443 611 l 1,19,-1
 380 621 l 1,20,21
 380 651 380 651 398 700 c 1,22,-1
 658 700 l 1,23,24
 664 664 664 664 666 639 c 1,25,26
 613 619 613 619 583 613 c 1,27,-1
 400 375 l 1,28,-1
 602 97 l 1,29,-1
 691 88 l 1,30,31
 691 46 691 46 668 0 c 1,32,-1
 525 0 l 1,33,-1
 319 296 l 1,34,-1
 245 216 l 1,0,-1
EndSplineSet
EndChar

StartChar: L
Encoding: 76 76 47
Width: 592
GlyphClass: 2
Flags: W
LayerCount: 2
Fore
SplineSet
467 182 m 1,0,1
 491 186 491 186 503.5 186 c 128,-1,2
 516 186 516 186 558 179 c 1,3,4
 562 171 562 171 569.5 128 c 128,-1,5
 577 85 577 85 577 58.5 c 128,-1,6
 577 32 577 32 571 0 c 1,7,-1
 86 0 l 1,8,-1
 77 55 l 1,9,10
 126 75 126 75 161 84 c 1,11,12
 161 87 161 87 152 613 c 1,13,-1
 69 639 l 1,14,-1
 77 700 l 1,15,-1
 337 700 l 2,16,17
 336 700 336 700 337.5 698 c 128,-1,18
 339 696 339 696 341.5 689.5 c 128,-1,19
 344 683 344 683 347 674 c 0,20,21
 353 658 353 658 355 621 c 1,22,23
 304 613 304 613 288 611 c 1,24,25
 284 266 284 266 283 96 c 1,26,-1
 445 96 l 1,27,-1
 467 182 l 1,0,1
EndSplineSet
EndChar

StartChar: M
Encoding: 77 77 48
Width: 972
GlyphClass: 2
Flags: W
LayerCount: 2
Fore
SplineSet
519 204 m 1,0,-1
 611 700 l 1,1,-1
 871 700 l 1,2,3
 879 657 879 657 879 639 c 1,4,5
 831 622 831 622 796 613 c 1,6,-1
 867 96 l 1,7,-1
 936 87 l 1,8,9
 936 46 936 46 913 0 c 1,10,-1
 670 0 l 1,11,-1
 661 55 l 1,12,13
 717 78 717 78 745 84 c 1,14,-1
 668 492 l 1,15,-1
 566 49 l 1,16,-1
 464 49 l 1,17,-1
 306 538 l 1,18,-1
 221 96 l 1,19,-1
 290 87 l 1,20,21
 290 46 290 46 267 0 c 1,22,-1
 24 0 l 1,23,-1
 15 55 l 1,24,25
 71 78 71 78 99 84 c 1,26,-1
 170 613 l 1,27,-1
 87 639 l 1,28,-1
 95 700 l 1,29,-1
 375 700 l 1,30,-1
 509 204 l 1,31,-1
 519 204 l 1,0,-1
EndSplineSet
EndChar

StartChar: N
Encoding: 78 78 49
Width: 785
GlyphClass: 2
Flags: W
LayerCount: 2
Fore
SplineSet
710 611 m 1,0,-1
 707 0 l 1,1,-1
 579 0 l 1,2,-1
 249 538 l 1,3,4
 245 245 245 245 244 96 c 1,5,-1
 313 87 l 1,6,7
 313 46 313 46 290 0 c 1,8,-1
 47 0 l 1,9,-1
 38 55 l 1,10,11
 94 78 94 78 122 84 c 1,12,13
 122 87 122 87 113 613 c 1,14,-1
 30 639 l 1,15,-1
 38 700 l 1,16,-1
 298 700 l 1,17,-1
 589 178 l 1,18,-1
 574 613 l 1,19,-1
 491 639 l 1,20,-1
 499 700 l 1,21,-1
 759 700 l 2,22,23
 758 700 758 700 759.5 698 c 128,-1,24
 761 696 761 696 763.5 689.5 c 128,-1,25
 766 683 766 683 769 674 c 0,26,27
 775 658 775 658 777 621 c 1,28,29
 726 613 726 613 710 611 c 1,0,-1
EndSplineSet
EndChar

StartChar: O
Encoding: 79 79 50
Width: 647
GlyphClass: 2
Flags: W
LayerCount: 2
Fore
SplineSet
330 94 m 0,0,1
 496 94 496 94 496 349 c 128,-1,2
 496 604 496 604 330 604 c 0,3,4
 258 604 258 604 204 582 c 1,5,6
 158 486 158 486 158 359.5 c 128,-1,7
 158 233 158 233 196 163.5 c 128,-1,8
 234 94 234 94 330 94 c 0,0,1
330 712 m 0,9,10
 497 712 497 712 565 624.5 c 128,-1,11
 633 537 633 537 633 357 c 0,12,13
 633 244 633 244 604 164 c 128,-1,14
 575 84 575 84 506 36 c 128,-1,15
 437 -12 437 -12 330 -12 c 0,16,17
 167 -12 167 -12 93.5 79 c 128,-1,18
 20 170 20 170 20 344 c 0,19,20
 20 712 20 712 330 712 c 0,9,10
EndSplineSet
EndChar

StartChar: P
Encoding: 80 80 51
Width: 575
GlyphClass: 2
Flags: W
LayerCount: 2
Fore
SplineSet
316 700 m 2,0,1
 443 700 443 700 505 656 c 128,-1,2
 567 612 567 612 567 496 c 0,3,4
 567 399 567 399 507 334.5 c 128,-1,5
 447 270 447 270 315 270 c 0,6,7
 272 270 272 270 247 271 c 1,8,-1
 245 95 l 1,9,-1
 318 87 l 1,10,11
 318 43 318 43 295 0 c 1,12,-1
 48 0 l 1,13,-1
 39 55 l 1,14,15
 91 76 91 76 123 84 c 1,16,17
 123 87 123 87 114 613 c 1,18,19
 98 617 98 617 31 639 c 1,20,-1
 39 700 l 1,21,-1
 316 700 l 2,0,1
398 402 m 128,-1,23
 435 438 435 438 435 495 c 128,-1,24
 435 552 435 552 402.5 576.5 c 128,-1,25
 370 601 370 601 301 601 c 0,26,27
 274 601 274 601 250 600 c 1,28,29
 248 442 248 442 248 364 c 1,30,-1
 294 365 l 2,31,22
 361 366 361 366 398 402 c 128,-1,23
EndSplineSet
EndChar

StartChar: Q
Encoding: 81 81 52
Width: 639
GlyphClass: 2
Flags: W
LayerCount: 2
Fore
SplineSet
359 -45 m 128,-1,1
 399 -56 399 -56 440 -73.5 c 128,-1,2
 481 -91 481 -91 492 -94 c 0,3,4
 539 -109 539 -109 637 -109 c 1,5,6
 633 -147 633 -147 624.5 -175 c 128,-1,7
 616 -203 616 -203 602 -221 c 1,8,9
 527 -217 527 -217 469 -195 c 0,10,11
 453 -189 453 -189 411 -170.5 c 128,-1,12
 369 -152 369 -152 337 -142.5 c 128,-1,13
 305 -133 305 -133 276.5 -133 c 128,-1,14
 248 -133 248 -133 196.5 -145.5 c 128,-1,15
 145 -158 145 -158 144 -158 c 0,16,17
 108 -127 108 -127 108 -89 c 1,18,19
 169 -61 169 -61 212.5 -47.5 c 128,-1,20
 256 -34 256 -34 287.5 -34 c 128,-1,0
 319 -34 319 -34 359 -45 c 128,-1,1
330 94 m 0,21,22
 496 94 496 94 496 349 c 128,-1,23
 496 604 496 604 330 604 c 0,24,25
 258 604 258 604 204 582 c 1,26,27
 158 486 158 486 158 359.5 c 128,-1,28
 158 233 158 233 196 163.5 c 128,-1,29
 234 94 234 94 330 94 c 0,21,22
330 712 m 0,30,31
 497 712 497 712 565 624.5 c 128,-1,32
 633 537 633 537 633 357 c 0,33,34
 633 244 633 244 604 164 c 128,-1,35
 575 84 575 84 506 36 c 128,-1,36
 437 -12 437 -12 330 -12 c 0,37,38
 167 -12 167 -12 93.5 79 c 128,-1,39
 20 170 20 170 20 344 c 0,40,41
 20 712 20 712 330 712 c 0,30,31
EndSplineSet
EndChar

StartChar: R
Encoding: 82 82 53
Width: 656
GlyphClass: 2
Flags: W
LayerCount: 2
Fore
SplineSet
281 700 m 2,0,1
 456 700 456 700 513 650 c 0,2,3
 565 605 565 605 565 511 c 0,4,5
 565 365 565 365 413 312 c 1,6,-1
 557 95 l 1,7,-1
 643 86 l 1,8,9
 643 43 643 43 620 0 c 1,10,-1
 475 0 l 1,11,-1
 279 299 l 1,12,-1
 247 299 l 1,13,-1
 244 95 l 1,14,-1
 317 87 l 1,15,16
 317 46 317 46 294 0 c 1,17,-1
 47 0 l 1,18,-1
 38 55 l 1,19,20
 98 79 98 79 122 84 c 1,21,22
 120 207 120 207 117 381 c 128,-1,23
 114 555 114 555 113 614 c 1,24,-1
 30 639 l 1,25,26
 31 662 31 662 39 700 c 1,27,-1
 281 700 l 2,0,1
360 593 m 0,28,29
 329 600 329 600 277 600 c 2,30,-1
 249 600 l 1,31,32
 247 462 247 462 247 393 c 1,33,-1
 296 394 l 2,34,35
 355 395 355 395 389.5 418.5 c 128,-1,36
 424 442 424 442 424 510 c 128,-1,37
 424 578 424 578 360 593 c 0,28,29
EndSplineSet
EndChar

StartChar: S
Encoding: 83 83 54
Width: 573
GlyphClass: 2
Flags: W
LayerCount: 2
Fore
SplineSet
294 96 m 0,0,1
 410 96 410 96 410 195 c 0,2,3
 410 237 410 237 366 266 c 0,4,5
 334 288 334 288 278.5 313.5 c 128,-1,6
 223 339 223 339 195.5 354 c 128,-1,7
 168 369 168 369 132 396 c 0,8,9
 63 449 63 449 63 528 c 128,-1,10
 63 607 63 607 124.5 659.5 c 128,-1,11
 186 712 186 712 291 712 c 128,-1,12
 396 712 396 712 515 645 c 1,13,14
 515 573 515 573 500 489 c 1,15,16
 468 479 468 479 405 479 c 1,17,-1
 376 598 l 1,18,19
 339 609 339 609 295 609 c 128,-1,20
 251 609 251 609 227 590 c 128,-1,21
 203 571 203 571 203 533.5 c 128,-1,22
 203 496 203 496 240.5 466.5 c 128,-1,23
 278 437 278 437 331 412.5 c 128,-1,24
 384 388 384 388 404 378 c 128,-1,25
 424 368 424 368 455 348 c 128,-1,26
 486 328 486 328 502 310 c 0,27,28
 543 262 543 262 543 203 c 0,29,30
 543 99 543 99 474 43 c 128,-1,31
 405 -13 405 -13 294 -13 c 0,32,33
 235 -13 235 -13 164.5 7.5 c 128,-1,34
 94 28 94 28 45 60 c 1,35,36
 47 121 47 121 61 225 c 1,37,38
 101 233 101 233 157 233 c 1,39,-1
 178 113 l 1,40,41
 233 96 233 96 294 96 c 0,0,1
EndSplineSet
EndChar

StartChar: T
Encoding: 84 84 55
Width: 621
GlyphClass: 2
Flags: W
LayerCount: 2
Fore
SplineSet
36 518 m 1,0,1
 20 587 20 587 20 627 c 128,-1,2
 20 667 20 667 23 700 c 1,3,-1
 604 700 l 1,4,5
 608 652 608 652 608 635 c 0,6,7
 608 592 608 592 592 518 c 1,8,9
 563 510 563 510 497 510 c 1,10,-1
 474 611 l 1,11,-1
 389 611 l 1,12,13
 388 573 388 573 380 96 c 1,14,-1
 452 87 l 1,15,16
 452 41 452 41 429 0 c 1,17,-1
 186 0 l 1,18,-1
 177 55 l 1,19,20
 246 81 246 81 264 84 c 1,21,22
 264 88 264 88 252 610 c 1,23,-1
 153 610 l 1,24,-1
 131 512 l 1,25,26
 72 512 72 512 36 518 c 1,0,1
EndSplineSet
EndChar

StartChar: U
Encoding: 85 85 56
Width: 754
GlyphClass: 2
Flags: W
LayerCount: 2
Fore
SplineSet
574 363 m 2,0,-1
 570 613 l 1,1,-1
 487 639 l 1,2,-1
 495 700 l 1,3,-1
 755 700 l 2,4,5
 754 700 754 700 755.5 698 c 128,-1,6
 757 696 757 696 759.5 689.5 c 128,-1,7
 762 683 762 683 765 674 c 0,8,9
 771 658 771 658 773 621 c 1,10,11
 722 613 722 613 706 611 c 1,12,-1
 704 357 l 2,13,14
 702 166 702 166 634.5 77 c 128,-1,15
 567 -12 567 -12 404 -12 c 128,-1,16
 241 -12 241 -12 177 71 c 128,-1,17
 113 154 113 154 111 339.5 c 128,-1,18
 109 525 109 525 107 613 c 1,19,-1
 24 639 l 1,20,-1
 32 700 l 1,21,-1
 292 700 l 2,22,23
 291 700 291 700 292.5 698 c 128,-1,24
 294 696 294 696 296.5 689.5 c 128,-1,25
 299 683 299 683 302 674 c 0,26,27
 308 658 308 658 310 621 c 1,28,29
 259 613 259 613 243 611 c 1,30,-1
 240 357 l 1,31,32
 240 246 240 246 252 199.5 c 128,-1,33
 264 153 264 153 282 134 c 0,34,35
 321 94 321 94 406 94 c 0,36,37
 488 94 488 94 530 140 c 0,38,39
 564 177 564 177 571 270 c 0,40,41
 574 307 574 307 574 363 c 2,0,-1
EndSplineSet
EndChar

StartChar: V
Encoding: 86 86 57
Width: 730
GlyphClass: 2
Flags: W
LayerCount: 2
Fore
SplineSet
373 187 m 1,0,1
 391 249 391 249 507 612 c 1,2,-1
 418 639 l 1,3,-1
 426 700 l 1,4,-1
 685 700 l 1,5,6
 703 664 703 664 704 621 c 1,7,-1
 642 612 l 1,8,-1
 443 0 l 1,9,-1
 310 0 l 1,10,-1
 95 612 l 1,11,-1
 6 639 l 1,12,-1
 14 700 l 1,13,-1
 273 700 l 1,14,15
 291 664 291 664 292 621 c 1,16,17
 249 614 249 614 233 612 c 1,18,-1
 373 187 l 1,0,1
EndSplineSet
EndChar

StartChar: W
Encoding: 87 87 58
Width: 1078
GlyphClass: 2
Flags: W
LayerCount: 2
Fore
SplineSet
682 0 m 1,0,-1
 550 545 l 1,1,-1
 540 545 l 1,2,-1
 406 0 l 1,3,-1
 250 0 l 1,4,-1
 90 616 l 1,5,6
 59 624 59 624 6 645 c 1,7,-1
 15 700 l 1,8,-1
 258 700 l 1,9,10
 281 654 281 654 281 613 c 1,11,12
 251 607 251 607 212 604 c 1,13,-1
 317 162 l 1,14,-1
 475 700 l 1,15,-1
 627 700 l 1,16,-1
 758 168 l 1,17,-1
 866 616 l 1,18,19
 835 624 835 624 782 645 c 1,20,-1
 791 700 l 1,21,-1
 1034 700 l 1,22,23
 1057 654 1057 654 1057 613 c 1,24,25
 1027 607 1027 607 988 604 c 1,26,-1
 826 0 l 1,27,-1
 682 0 l 1,0,-1
EndSplineSet
EndChar

StartChar: X
Encoding: 88 88 59
Width: 722
GlyphClass: 2
Flags: W
LayerCount: 2
Fore
SplineSet
443 611 m 1,0,1
 402 616 402 616 380 621 c 1,2,3
 380 651 380 651 398 700 c 1,4,-1
 658 700 l 1,5,6
 664 664 664 664 666 639 c 1,7,8
 613 619 613 619 583 613 c 1,9,-1
 403 360 l 1,10,-1
 593 97 l 1,11,-1
 682 88 l 1,12,13
 682 46 682 46 659 0 c 1,14,-1
 415 0 l 1,15,-1
 406 55 l 1,16,17
 425 62 425 62 462 78 c 1,18,-1
 327 263 l 1,19,-1
 216 96 l 1,20,-1
 285 87 l 1,21,22
 285 45 285 45 261 0 c 1,23,-1
 19 0 l 1,24,-1
 10 55 l 1,25,26
 53 75 53 75 94 84 c 1,27,-1
 258 360 l 1,28,-1
 76 613 l 1,29,-1
 15 621 l 1,30,31
 19 675 19 675 33 700 c 1,32,-1
 303 700 l 1,33,34
 311 657 311 657 311 639 c 1,35,36
 254 618 254 618 228 613 c 1,37,38
 244 589 244 589 280 538.5 c 128,-1,39
 316 488 316 488 339 453 c 1,40,-1
 443 611 l 1,0,1
EndSplineSet
EndChar

StartChar: Y
Encoding: 89 89 60
Width: 678
GlyphClass: 2
Flags: W
LayerCount: 2
Fore
SplineSet
408 262 m 1,0,-1
 407 96 l 1,1,-1
 476 87 l 1,2,3
 476 46 476 46 453 0 c 1,4,-1
 210 0 l 1,5,-1
 201 55 l 1,6,7
 270 82 270 82 285 84 c 1,8,9
 285 143 285 143 283 261 c 1,10,-1
 94 612 l 1,11,-1
 6 639 l 1,12,-1
 14 700 l 1,13,-1
 274 700 l 1,14,15
 292 667 292 667 292 621 c 1,16,17
 269 617 269 617 233 612 c 1,18,-1
 340 371 l 1,19,-1
 349 371 l 1,20,-1
 463 613 l 1,21,22
 429 620 429 620 380 639 c 1,23,-1
 387 700 l 1,24,-1
 648 700 l 1,25,26
 665 675 665 675 666 621 c 1,27,28
 627 613 627 613 588 610 c 1,29,-1
 408 262 l 1,0,-1
EndSplineSet
EndChar

StartChar: Z
Encoding: 90 90 61
Width: 596
GlyphClass: 2
Flags: W
LayerCount: 2
Fore
SplineSet
182 494 m 1,0,-1
 151 493 l 2,1,2
 123 493 123 493 93 505 c 1,3,4
 75 583 75 583 75 627 c 128,-1,5
 75 671 75 671 79 700 c 1,6,-1
 538 700 l 1,7,8
 562 668 562 668 570 621 c 1,9,-1
 218 96 l 1,10,-1
 435 96 l 1,11,-1
 457 203 l 1,12,-1
 489 204 l 2,13,14
 517 204 517 204 547 192 c 1,15,16
 564 117 564 117 564 74 c 128,-1,17
 564 31 564 31 560 0 c 1,18,-1
 77 0 l 1,19,20
 52 32 52 32 45 77 c 1,21,-1
 396 601 l 1,22,-1
 206 601 l 1,23,-1
 182 494 l 1,0,-1
EndSplineSet
EndChar

StartChar: bracketleft
Encoding: 91 91 62
Width: 368
GlyphClass: 2
Flags: W
LayerCount: 2
Fore
SplineSet
218 667 m 1,0,-1
 214 -108 l 1,1,-1
 333 -116 l 1,2,3
 333 -167 333 -167 329 -188 c 1,4,5
 313 -193 313 -193 232.5 -199.5 c 128,-1,6
 152 -206 152 -206 119 -206 c 1,7,8
 115 -202 115 -202 107.5 -180 c 128,-1,9
 100 -158 100 -158 99 -142 c 0,10,11
 95 137 95 137 85 709 c 1,12,13
 86 725 86 725 94 747.5 c 128,-1,14
 102 770 102 770 105 773 c 1,15,16
 139 773 139 773 226 766.5 c 128,-1,17
 313 760 313 760 329 755 c 1,18,19
 332 731 332 731 332 683 c 1,20,21
 316 678 316 678 218 667 c 1,0,-1
EndSplineSet
EndChar

StartChar: backslash
Encoding: 92 92 63
Width: 407
GlyphClass: 2
Flags: W
LayerCount: 2
Fore
SplineSet
411 -1 m 1,0,1
 391 -4 391 -4 354 -4 c 128,-1,2
 317 -4 317 -4 296 1 c 1,3,-1
 30 694 l 1,4,5
 81 703 81 703 107 703 c 128,-1,6
 133 703 133 703 159 699 c 1,7,-1
 411 -1 l 1,0,1
EndSplineSet
EndChar

StartChar: bracketright
Encoding: 93 93 64
Width: 318
GlyphClass: 2
Flags: W
LayerCount: 2
Fore
SplineSet
159 -108 m 1,0,-1
 155 667 l 1,1,2
 57 678 57 678 41 683 c 1,3,4
 41 731 41 731 44 755 c 1,5,6
 60 760 60 760 147 766.5 c 128,-1,7
 234 773 234 773 268 773 c 1,8,9
 271 770 271 770 279 747.5 c 128,-1,10
 287 725 287 725 288 709 c 1,11,12
 278 137 278 137 274 -142 c 0,13,14
 273 -158 273 -158 265.5 -180 c 128,-1,15
 258 -202 258 -202 254 -206 c 1,16,17
 221 -206 221 -206 140.5 -199.5 c 128,-1,18
 60 -193 60 -193 44 -188 c 1,19,20
 40 -167 40 -167 40 -116 c 1,21,22
 108 -110 108 -110 159 -108 c 1,0,-1
EndSplineSet
EndChar

StartChar: asciicircum
Encoding: 94 94 65
Width: 512
GlyphClass: 2
Flags: W
LayerCount: 2
Fore
SplineSet
223 700 m 1,0,1
 227 702 227 702 256 702 c 128,-1,2
 285 702 285 702 294 699 c 1,3,-1
 452 396 l 1,4,5
 447 390 447 390 430 383.5 c 128,-1,6
 413 377 413 377 406 377 c 1,7,8
 336 428 336 428 310 476 c 0,9,10
 304 486 304 486 288.5 520 c 128,-1,11
 273 554 273 554 256 588 c 1,12,13
 239 554 239 554 223.5 520 c 128,-1,14
 208 486 208 486 199 470.5 c 128,-1,15
 190 455 190 455 166 430 c 128,-1,16
 142 405 142 405 106 377 c 1,17,18
 99 377 99 377 82 383.5 c 128,-1,19
 65 390 65 390 60 396 c 1,20,21
 217 695 217 695 223 700 c 1,0,1
EndSplineSet
EndChar

StartChar: underscore
Encoding: 95 95 66
Width: 503
GlyphClass: 2
Flags: W
LayerCount: 2
Fore
SplineSet
511 -125 m 1,0,1
 514 -150 514 -150 514 -169 c 1,2,-1
 510 -210 l 1,3,4
 432 -225 432 -225 377 -225 c 1,5,-1
 6 -218 l 1,6,7
 0 -190 0 -190 0 -176 c 1,8,-1
 5 -133 l 1,9,10
 83 -118 83 -118 139 -118 c 1,11,-1
 511 -125 l 1,0,1
EndSplineSet
EndChar

StartChar: grave
Encoding: 96 96 67
Width: 833
GlyphClass: 2
Flags: W
LayerCount: 2
Fore
SplineSet
259 747 m 1,0,-1
 417 616 l 1,1,2
 389 580 389 580 355 553 c 1,3,4
 254 603 254 603 196 660 c 1,5,6
 198 678 198 678 213.5 699.5 c 128,-1,7
 229 721 229 721 259 747 c 1,0,-1
EndSplineSet
EndChar

StartChar: a
Encoding: 97 97 68
Width: 539
GlyphClass: 2
Flags: W
LayerCount: 2
Fore
SplineSet
219 -12 m 0,0,1
 134 -12 134 -12 87.5 23 c 128,-1,2
 41 58 41 58 41 141 c 0,3,4
 41 220 41 220 96 270 c 0,5,6
 128 299 128 299 185 304 c 128,-1,7
 242 309 242 309 342 309 c 1,8,-1
 342 325 l 2,9,10
 342 386 342 386 322.5 414.5 c 128,-1,11
 303 443 303 443 254 443 c 0,12,13
 229 443 229 443 209 433 c 1,14,-1
 185 346 l 1,15,-1
 111 348 l 1,16,17
 86 386 86 386 84 469 c 1,18,19
 104 479 104 479 178 499.5 c 128,-1,20
 252 520 252 520 273 520 c 0,21,22
 381 520 381 520 430 475.5 c 128,-1,23
 479 431 479 431 479 334.5 c 128,-1,24
 479 238 479 238 470 80 c 1,25,26
 527 75 527 75 558 63 c 1,27,28
 559 51 559 51 559 34 c 2,29,-1
 558 12 l 1,30,31
 486 -12 486 -12 413 -12 c 0,32,33
 394 -12 394 -12 385 -11 c 1,34,35
 370 19 370 19 367 61 c 1,36,-1
 362 61 l 1,37,38
 343 43 343 43 295.5 15.5 c 128,-1,39
 248 -12 248 -12 219 -12 c 0,0,1
189.5 86.5 m 128,-1,41
 210 71 210 71 236 71 c 128,-1,42
 262 71 262 71 298 94.5 c 128,-1,43
 334 118 334 118 356 137 c 1,44,-1
 351 229 l 1,45,46
 272 225 272 225 232 214 c 1,47,48
 169 201 169 201 169 135 c 0,49,40
 169 102 169 102 189.5 86.5 c 128,-1,41
EndSplineSet
EndChar

StartChar: b
Encoding: 98 98 69
Width: 529
GlyphClass: 2
Flags: W
LayerCount: 2
Fore
SplineSet
209 743 m 0,0,1
 233 743 233 743 240 742 c 1,2,3
 240 690 240 690 227 651 c 1,4,-1
 224 483 l 1,5,6
 317 520 317 520 352 520 c 0,7,8
 451 520 451 520 498.5 446.5 c 128,-1,9
 546 373 546 373 546 256 c 128,-1,10
 546 139 546 139 493 63.5 c 128,-1,11
 440 -12 440 -12 339 -12 c 0,12,13
 273 -12 273 -12 200 38 c 1,14,15
 196 15 196 15 188 -4 c 1,16,17
 170 -6 170 -6 152 -6 c 128,-1,18
 134 -6 134 -6 107 0 c 1,19,-1
 86 640 l 1,20,21
 39 645 39 645 7 655 c 1,22,23
 7 692 7 692 14 727 c 1,24,25
 72 743 72 743 209 743 c 0,0,1
335 415 m 0,26,27
 270 415 270 415 223 392 c 1,28,29
 221 224 221 224 219 138 c 1,30,31
 243 118 243 118 274 102 c 128,-1,32
 305 86 305 86 327 86 c 0,33,34
 414 86 414 86 414 246 c 0,35,36
 414 314 414 314 395.5 364.5 c 128,-1,37
 377 415 377 415 335 415 c 0,26,27
EndSplineSet
EndChar

StartChar: c
Encoding: 99 99 70
Width: 472
GlyphClass: 2
Flags: W
LayerCount: 2
Fore
SplineSet
307 437 m 1,0,-1
 291 438 l 1,1,2
 235 438 235 438 201.5 399.5 c 128,-1,3
 168 361 168 361 168 270.5 c 128,-1,4
 168 180 168 180 193.5 133 c 128,-1,5
 219 86 219 86 292 86 c 0,6,7
 326 86 326 86 436 132 c 1,8,9
 461 97 461 97 463 59 c 1,10,11
 408 25 408 25 355.5 6 c 128,-1,12
 303 -13 303 -13 281 -13 c 0,13,14
 158 -13 158 -13 97 54.5 c 128,-1,15
 36 122 36 122 36 244 c 0,16,17
 36 520 36 520 285 520 c 0,18,19
 328 520 328 520 373.5 509.5 c 128,-1,20
 419 499 419 499 445 483 c 1,21,22
 442 383 442 383 423 338 c 1,23,24
 390 330 390 330 330 330 c 1,25,-1
 307 437 l 1,0,-1
EndSplineSet
EndChar

StartChar: d
Encoding: 100 100 71
Width: 565
GlyphClass: 2
Flags: W
LayerCount: 2
Fore
SplineSet
479 743 m 0,0,1
 498 743 498 743 503 742 c 1,2,3
 503 690 503 690 490 651 c 1,4,5
 486 543 486 543 480.5 343.5 c 128,-1,6
 475 144 475 144 473 80 c 1,7,8
 532 72 532 72 561 63 c 1,9,-1
 561 15 l 1,10,11
 498 -12 498 -12 388 -12 c 1,12,13
 382 -1 382 -1 372 42 c 1,14,15
 280 -8 280 -8 239 -12 c 1,16,17
 137 -12 137 -12 86.5 62 c 128,-1,18
 36 136 36 136 36 252.5 c 128,-1,19
 36 369 36 369 87 448.5 c 128,-1,20
 138 528 138 528 238 528 c 0,21,22
 293 528 293 528 354 494 c 1,23,-1
 349 640 l 1,24,25
 302 645 302 645 270 655 c 1,26,27
 270 680 270 680 277 727 c 1,28,29
 336 743 336 743 479 743 c 0,0,1
254 430 m 0,30,31
 168 430 168 430 168 264 c 0,32,33
 168 169 168 169 202 121 c 0,34,35
 221 93 221 93 251 93 c 0,36,37
 302 93 302 93 366 128 c 1,38,-1
 357 386 l 1,39,40
 300 430 300 430 254 430 c 0,30,31
EndSplineSet
EndChar

StartChar: e
Encoding: 101 101 72
Width: 512
GlyphClass: 2
Flags: W
LayerCount: 2
Fore
SplineSet
297 86 m 0,0,1
 331 86 331 86 435 133 c 1,2,3
 457 101 457 101 468 59 c 1,4,5
 413 25 413 25 360.5 6.5 c 128,-1,6
 308 -12 308 -12 286 -12 c 0,7,8
 165 -12 165 -12 102.5 55 c 128,-1,9
 40 122 40 122 40 245.5 c 128,-1,10
 40 369 40 369 102 444.5 c 128,-1,11
 164 520 164 520 286 520 c 0,12,13
 383 520 383 520 434 457 c 128,-1,14
 485 394 485 394 485 293 c 0,15,16
 485 272 485 272 461 245 c 1,17,-1
 173 250 l 1,18,19
 175 170 175 170 203 128 c 128,-1,20
 231 86 231 86 297 86 c 0,0,1
277 437 m 0,21,22
 239 437 239 437 206 422 c 1,23,24
 183 374 183 374 177 333 c 1,25,26
 255 336 255 336 354 337 c 1,27,28
 349 437 349 437 277 437 c 0,21,22
EndSplineSet
EndChar

StartChar: f
Encoding: 102 102 73
Width: 368
GlyphClass: 2
Flags: W
LayerCount: 2
Fore
SplineSet
304 656 m 1,0,-1
 286 657 l 1,1,2
 254 657 254 657 241 625.5 c 128,-1,3
 228 594 228 594 227 516 c 1,4,5
 287 515 287 515 321 507 c 0,6,7
 323 507 323 507 345 504 c 1,8,9
 342 459 342 459 321 418 c 1,10,-1
 227 418 l 1,11,12
 223 204 223 204 222 97 c 1,13,14
 321 90 321 90 332 79 c 1,15,16
 332 46 332 46 307 0 c 1,17,-1
 29 0 l 1,18,-1
 20 55 l 1,19,20
 98 83 98 83 110 85 c 1,21,-1
 99 418 l 1,22,-1
 29 418 l 1,23,-1
 32 475 l 1,24,25
 58 493 58 493 99 501 c 1,26,-1
 99 528 l 2,27,28
 99 646 99 646 145 700 c 0,29,30
 187 749 187 749 267.5 749 c 128,-1,31
 348 749 348 749 438 705 c 1,32,-1
 439 689 l 1,33,34
 439 634 439 634 425 566 c 1,35,36
 395 558 395 558 370 558 c 128,-1,37
 345 558 345 558 333 560 c 1,38,-1
 304 656 l 1,0,-1
EndSplineSet
EndChar

StartChar: g
Encoding: 103 103 74
Width: 578
GlyphClass: 2
Flags: W
LayerCount: 2
Fore
SplineSet
364 142.5 m 128,-1,1
 327 133 327 133 292.5 133 c 128,-1,2
 258 133 258 133 232 140 c 1,3,4
 221 114 221 114 211 101 c 1,5,6
 219 89 219 89 379 89 c 0,7,8
 479 89 479 89 520 58 c 1,9,10
 539 45 539 45 553.5 17 c 128,-1,11
 568 -11 568 -11 568 -55.5 c 128,-1,12
 568 -100 568 -100 524 -145 c 128,-1,13
 480 -190 480 -190 414 -216 c 128,-1,14
 348 -242 348 -242 283 -242 c 0,15,16
 175 -242 175 -242 108 -199.5 c 128,-1,17
 41 -157 41 -157 41 -94 c 0,18,19
 41 -82 41 -82 76 -35.5 c 128,-1,20
 111 11 111 11 122 18 c 1,21,22
 112 23 112 23 87 51.5 c 128,-1,23
 62 80 62 80 59 92 c 1,24,25
 72 128 72 128 139 182 c 1,26,27
 61 229 61 229 61 340 c 0,28,29
 61 428 61 428 121.5 474 c 128,-1,30
 182 520 182 520 281.5 520 c 128,-1,31
 381 520 381 520 432 493 c 1,32,33
 517 508 517 508 552.5 508 c 128,-1,34
 588 508 588 508 599 507 c 1,35,36
 599 483 599 483 587.5 452.5 c 128,-1,37
 576 422 576 422 566 410 c 1,38,-1
 480 430 l 1,39,40
 505 394 505 394 505 337 c 128,-1,41
 505 280 505 280 486 237.5 c 128,-1,42
 467 195 467 195 434 173.5 c 128,-1,0
 401 152 401 152 364 142.5 c 128,-1,1
436 -69 m 128,-1,44
 436 -44 436 -44 414 -32.5 c 128,-1,45
 392 -21 392 -21 362 -21 c 0,46,47
 245 -21 245 -21 207 -19 c 1,48,49
 199 -36 199 -36 187 -67.5 c 128,-1,50
 175 -99 175 -99 175 -105 c 128,-1,51
 175 -111 175 -111 183 -122.5 c 128,-1,52
 191 -134 191 -134 217.5 -147 c 128,-1,53
 244 -160 244 -160 282.5 -160 c 128,-1,54
 321 -160 321 -160 373 -142 c 128,-1,55
 425 -124 425 -124 429 -113 c 0,56,43
 436 -94 436 -94 436 -69 c 128,-1,44
283 445 m 128,-1,58
 241 445 241 445 217.5 418 c 128,-1,59
 194 391 194 391 194 339.5 c 128,-1,60
 194 288 194 288 218 259 c 128,-1,61
 242 230 242 230 283 230 c 0,62,63
 372 230 372 230 372 340 c 0,64,65
 372 391 372 391 348.5 418 c 128,-1,57
 325 445 325 445 283 445 c 128,-1,58
EndSplineSet
EndChar

StartChar: h
Encoding: 104 104 75
Width: 617
GlyphClass: 2
Flags: W
LayerCount: 2
Fore
SplineSet
229 743 m 1,0,-1
 253 742 l 1,1,2
 253 690 253 690 240 651 c 1,3,4
 238 537 238 537 238 480 c 1,5,6
 270 494 270 494 311 507 c 128,-1,7
 352 520 352 520 362 520 c 0,8,9
 464 520 464 520 508.5 474 c 128,-1,10
 553 428 553 428 553 329 c 0,11,12
 553 319 553 319 543 96 c 1,13,-1
 621 86 l 1,14,15
 621 43 621 43 598 0 c 1,16,-1
 349 0 l 1,17,-1
 340 55 l 1,18,19
 407 82 407 82 426 84 c 1,20,21
 424 192 424 192 421 275.5 c 128,-1,22
 418 359 418 359 405 386 c 128,-1,23
 392 413 392 413 363.5 413 c 128,-1,24
 335 413 335 413 298.5 406.5 c 128,-1,25
 262 400 262 400 242 391 c 1,26,-1
 231 96 l 1,27,-1
 309 87 l 1,28,29
 309 46 309 46 286 0 c 1,30,-1
 37 0 l 1,31,-1
 28 55 l 1,32,33
 90 78 90 78 118 85 c 1,34,-1
 99 640 l 1,35,36
 52 645 52 645 20 655 c 1,37,38
 20 680 20 680 27 727 c 1,39,40
 86 743 86 743 229 743 c 1,0,-1
EndSplineSet
EndChar

StartChar: i
Encoding: 105 105 76
Width: 308
GlyphClass: 2
Flags: W
LayerCount: 2
Fore
SplineSet
239 512 m 0,0,1
 258 512 258 512 263 511 c 1,2,3
 263 462 263 462 246 420 c 1,4,5
 242 204 242 204 241 96 c 1,6,-1
 319 87 l 1,7,8
 319 46 319 46 296 0 c 1,9,-1
 47 0 l 1,10,-1
 38 55 l 1,11,12
 100 78 100 78 128 85 c 1,13,-1
 117 409 l 1,14,15
 58 415 58 415 30 424 c 1,16,17
 30 449 30 449 37 496 c 1,18,19
 96 512 96 512 239 512 c 0,0,1
239 701 m 1,20,21
 248 656 248 656 248 632.5 c 128,-1,22
 248 609 248 609 244 580 c 1,23,24
 204 571 204 571 176.5 571 c 128,-1,25
 149 571 149 571 110 574 c 1,26,27
 101 619 101 619 101 642.5 c 128,-1,28
 101 666 101 666 105 695 c 1,29,30
 145 704 145 704 172.5 704 c 128,-1,31
 200 704 200 704 239 701 c 1,20,21
EndSplineSet
EndChar

StartChar: j
Encoding: 106 106 77
Width: 285
GlyphClass: 2
Flags: W
LayerCount: 2
Fore
SplineSet
41 -150 m 1,0,-1
 62 -151 l 1,1,2
 95 -151 95 -151 110.5 -116.5 c 128,-1,3
 126 -82 126 -82 126 -31 c 0,4,5
 126 94 126 94 111 409 c 1,6,7
 52 415 52 415 24 424 c 1,8,9
 24 449 24 449 31 496 c 1,10,11
 90 512 90 512 233 512 c 0,12,13
 252 512 252 512 257 511 c 1,14,15
 257 462 257 462 240 420 c 1,16,-1
 236 -13 l 2,17,18
 235 -131 235 -131 199 -185.5 c 128,-1,19
 163 -240 163 -240 58 -240 c 0,20,21
 24 -240 24 -240 -26.5 -224.5 c 128,-1,22
 -77 -209 -77 -209 -98 -195 c 1,23,24
 -93 -99 -93 -99 -77 -51 c 1,25,26
 -54 -42 -54 -42 -16 -42 c 1,27,-1
 17 -43 l 1,28,-1
 41 -150 l 1,0,-1
233 701 m 1,29,30
 242 656 242 656 242 632.5 c 128,-1,31
 242 609 242 609 238 580 c 1,32,33
 198 571 198 571 170.5 571 c 128,-1,34
 143 571 143 571 104 574 c 1,35,36
 95 619 95 619 95 642.5 c 128,-1,37
 95 666 95 666 99 695 c 1,38,39
 139 704 139 704 166.5 704 c 128,-1,40
 194 704 194 704 233 701 c 1,29,30
EndSplineSet
EndChar

StartChar: k
Encoding: 107 107 78
Width: 591
GlyphClass: 2
Flags: W
LayerCount: 2
Fore
SplineSet
231 173 m 1,0,-1
 230 96 l 1,1,-1
 308 87 l 1,2,3
 308 46 308 46 285 0 c 1,4,-1
 36 0 l 1,5,-1
 27 55 l 1,6,7
 89 78 89 78 117 85 c 1,8,-1
 98 640 l 1,9,10
 51 645 51 645 19 655 c 1,11,12
 19 692 19 692 26 727 c 1,13,14
 85 743 85 743 228 743 c 0,15,16
 247 743 247 743 252 742 c 1,17,18
 252 690 252 690 239 651 c 1,19,20
 233 411 233 411 233 295 c 1,21,-1
 352 413 l 1,22,-1
 290 421 l 1,23,24
 290 462 290 462 313 508 c 1,25,-1
 562 508 l 1,26,-1
 571 453 l 1,27,28
 509 430 509 430 481 423 c 1,29,-1
 371 313 l 1,30,-1
 511 96 l 1,31,-1
 589 87 l 1,32,33
 589 46 589 46 566 0 c 1,34,-1
 438 0 l 1,35,-1
 290 232 l 1,36,-1
 231 173 l 1,0,-1
EndSplineSet
EndChar

StartChar: l
Encoding: 108 108 79
Width: 295
GlyphClass: 2
Flags: W
LayerCount: 2
Fore
SplineSet
228 743 m 0,0,1
 247 743 247 743 252 742 c 1,2,3
 252 690 252 690 239 651 c 1,4,5
 238 589 238 589 236 476 c 0,6,7
 232 228 232 228 230 96 c 1,8,-1
 308 87 l 1,9,10
 308 46 308 46 285 0 c 1,11,-1
 36 0 l 1,12,-1
 27 55 l 1,13,14
 89 78 89 78 117 85 c 1,15,-1
 98 640 l 1,16,17
 51 645 51 645 19 655 c 1,18,19
 19 692 19 692 26 727 c 1,20,21
 85 743 85 743 228 743 c 0,0,1
EndSplineSet
EndChar

StartChar: m
Encoding: 109 109 80
Width: 928
GlyphClass: 2
Flags: W
LayerCount: 2
Fore
SplineSet
718.5 386 m 128,-1,1
 704 413 704 413 652.5 413 c 128,-1,2
 601 413 601 413 557 391 c 1,3,4
 557 263 557 263 544 96 c 1,5,-1
 623 87 l 1,6,7
 623 46 623 46 600 0 c 1,8,-1
 351 0 l 1,9,-1
 342 55 l 1,10,11
 394 74 394 74 433 85 c 1,12,-1
 425 293 l 2,13,14
 423 358 423 358 409.5 385.5 c 128,-1,15
 396 413 396 413 358 413 c 0,16,17
 338 413 338 413 300 406 c 128,-1,18
 262 399 262 399 242 391 c 1,19,20
 242 388 242 388 233 96 c 1,21,-1
 311 87 l 1,22,23
 311 43 311 43 288 0 c 1,24,-1
 39 0 l 1,25,-1
 30 55 l 1,26,27
 89 78 89 78 120 85 c 1,28,-1
 107 408 l 1,29,30
 66 412 66 412 28 423 c 1,31,-1
 33 495 l 1,32,33
 50 500 50 500 106 507 c 128,-1,34
 162 514 162 514 191 514 c 1,35,36
 195 511 195 511 206 495.5 c 128,-1,37
 217 480 217 480 221 471 c 1,38,39
 255 488 255 488 303.5 504 c 128,-1,40
 352 520 352 520 363 520 c 0,41,42
 469 520 469 520 518 465 c 1,43,44
 556 485 556 485 610 502.5 c 128,-1,45
 664 520 664 520 677 520 c 0,46,47
 772 520 772 520 819 475 c 128,-1,48
 866 430 866 430 866 325 c 0,49,50
 866 267 866 267 857 96 c 1,51,-1
 935 87 l 1,52,53
 935 43 935 43 912 0 c 1,54,-1
 664 0 l 1,55,-1
 655 55 l 1,56,57
 702 74 702 74 741 85 c 1,58,59
 740 108 740 108 739 150 c 0,60,61
 737 219 737 219 735 289 c 128,-1,0
 733 359 733 359 718.5 386 c 128,-1,1
EndSplineSet
EndChar

StartChar: n
Encoding: 110 110 81
Width: 616
GlyphClass: 2
Flags: W
LayerCount: 2
Fore
SplineSet
509 471 m 128,-1,1
 554 422 554 422 554 334 c 128,-1,2
 554 246 554 246 544 96 c 1,3,-1
 623 87 l 1,4,5
 623 46 623 46 600 0 c 1,6,-1
 351 0 l 1,7,-1
 342 55 l 1,8,9
 389 74 389 74 429 85 c 1,10,11
 426 200 426 200 423 278.5 c 128,-1,12
 420 357 420 357 408 385 c 128,-1,13
 396 413 396 413 355 413 c 0,14,15
 293 413 293 413 244 391 c 1,16,17
 243 348 243 348 238.5 250.5 c 128,-1,18
 234 153 234 153 233 96 c 1,19,-1
 311 87 l 1,20,21
 311 46 311 46 288 0 c 1,22,-1
 39 0 l 1,23,-1
 30 55 l 1,24,25
 80 74 80 74 120 85 c 1,26,27
 119 145 119 145 113.5 251 c 128,-1,28
 108 357 108 357 107 408 c 1,29,30
 70 412 70 412 28 423 c 1,31,-1
 33 495 l 1,32,33
 103 514 103 514 191 514 c 1,34,35
 202 507 202 507 221 471 c 1,36,37
 255 488 255 488 304 504 c 128,-1,38
 353 520 353 520 364 520 c 0,39,0
 464 520 464 520 509 471 c 128,-1,1
EndSplineSet
EndChar

StartChar: o
Encoding: 111 111 82
Width: 538
GlyphClass: 2
Flags: W
LayerCount: 2
Fore
SplineSet
295 440 m 0,0,1
 259 440 259 440 213 422 c 1,2,3
 200 402 200 402 188.5 351.5 c 128,-1,4
 177 301 177 301 177 250 c 0,5,6
 177 156 177 156 205 116.5 c 128,-1,7
 233 77 233 77 295.5 77 c 128,-1,8
 358 77 358 77 386 116.5 c 128,-1,9
 414 156 414 156 414 252.5 c 128,-1,10
 414 349 414 349 385.5 394.5 c 128,-1,11
 357 440 357 440 295 440 c 0,0,1
483.5 448.5 m 128,-1,13
 555 377 555 377 555 249.5 c 128,-1,14
 555 122 555 122 484 55 c 128,-1,15
 413 -12 413 -12 295 -12 c 128,-1,16
 177 -12 177 -12 106.5 55 c 128,-1,17
 36 122 36 122 36 249.5 c 128,-1,18
 36 377 36 377 107 448.5 c 128,-1,19
 178 520 178 520 295 520 c 128,-1,12
 412 520 412 520 483.5 448.5 c 128,-1,13
EndSplineSet
EndChar

StartChar: p
Encoding: 112 112 83
Width: 541
GlyphClass: 2
Flags: W
LayerCount: 2
Fore
SplineSet
350 -12 m 0,0,1
 292 -12 292 -12 228 26 c 1,2,3
 226 -80 226 -80 226 -134 c 1,4,-1
 304 -143 l 1,5,6
 304 -187 304 -187 281 -230 c 1,7,-1
 32 -230 l 1,8,-1
 23 -175 l 1,9,10
 87 -151 87 -151 113 -145 c 1,11,-1
 94 410 l 1,12,13
 47 414 47 414 15 425 c 1,14,15
 15 462 15 462 22 497 c 1,16,17
 64 506 64 506 208 513 c 1,18,19
 216 500 216 500 226 469 c 1,20,21
 330 520 330 520 363 520 c 0,22,23
 462 520 462 520 510 450.5 c 128,-1,24
 558 381 558 381 558 264 c 128,-1,25
 558 147 558 147 504.5 67.5 c 128,-1,26
 451 -12 451 -12 350 -12 c 0,0,1
234 381 m 1,27,-1
 230 128 l 1,28,29
 253 107 253 107 284.5 91.5 c 128,-1,30
 316 76 316 76 338 76 c 0,31,32
 426 76 426 76 426 245 c 0,33,34
 426 308 426 308 413.5 346 c 128,-1,35
 401 384 401 384 384.5 399.5 c 128,-1,36
 368 415 368 415 346 415 c 0,37,38
 302 415 302 415 234 381 c 1,27,-1
EndSplineSet
EndChar

StartChar: q
Encoding: 113 113 84
Width: 575
GlyphClass: 2
Flags: W
LayerCount: 2
Fore
SplineSet
87 61 m 128,-1,1
 36 135 36 135 36 251.5 c 128,-1,2
 36 368 36 368 87 444 c 128,-1,3
 138 520 138 520 239 520 c 0,4,5
 302 520 302 520 374 477 c 1,6,-1
 398 513 l 1,7,8
 479 513 479 513 575 475 c 1,9,10
 579 457 579 457 579 421 c 1,11,12
 516 405 516 405 499 403 c 1,13,-1
 490 -134 l 1,14,-1
 568 -143 l 1,15,16
 568 -187 568 -187 545 -230 c 1,17,-1
 296 -230 l 1,18,-1
 287 -175 l 1,19,20
 344 -153 344 -153 377 -145 c 1,21,-1
 371 26 l 1,22,23
 308 -5 308 -5 240 -13 c 1,24,0
 138 -13 138 -13 87 61 c 128,-1,1
188 135 m 128,-1,26
 208 84 208 84 255 84 c 128,-1,27
 302 84 302 84 366 118 c 1,28,29
 363 254 363 254 359 378 c 1,30,31
 302 422 302 422 255 422 c 0,32,33
 168 422 168 422 168 255 c 0,34,25
 168 186 168 186 188 135 c 128,-1,26
EndSplineSet
EndChar

StartChar: r
Encoding: 114 114 85
Width: 449
GlyphClass: 2
Flags: W
LayerCount: 2
Fore
SplineSet
326 412 m 1,0,1
 324 417 324 417 306 417 c 128,-1,2
 288 417 288 417 244 390 c 1,3,4
 240 194 240 194 239 96 c 1,5,-1
 317 86 l 1,6,7
 317 43 317 43 294 0 c 1,8,-1
 45 0 l 1,9,-1
 36 55 l 1,10,11
 98 78 98 78 126 85 c 1,12,-1
 115 409 l 1,13,14
 63 413 63 413 28 424 c 1,15,-1
 35 496 l 1,16,17
 62 508 62 508 230 512 c 1,18,19
 239 503 239 503 239 477 c 1,20,21
 327 520 327 520 350.5 520 c 128,-1,22
 374 520 374 520 408.5 508.5 c 128,-1,23
 443 497 443 497 461 484 c 1,24,-1
 461 467 l 2,25,26
 461 385 461 385 441 315 c 1,27,28
 424 308 424 308 396 308 c 128,-1,29
 368 308 368 308 344 311 c 1,30,31
 341 324 341 324 326 412 c 1,0,1
EndSplineSet
EndChar

StartChar: s
Encoding: 115 115 86
Width: 452
GlyphClass: 2
Flags: W
LayerCount: 2
Fore
SplineSet
399 477 m 1,0,-1
 400 446 l 1,1,2
 400 368 400 368 388 344 c 1,3,4
 355 332 355 332 296 332 c 1,5,-1
 264 433 l 1,6,7
 251 438 251 438 228 438 c 128,-1,8
 205 438 205 438 190.5 424 c 128,-1,9
 176 410 176 410 176 391 c 128,-1,10
 176 372 176 372 191 356.5 c 128,-1,11
 206 341 206 341 222 332 c 128,-1,12
 238 323 238 323 268.5 308.5 c 128,-1,13
 299 294 299 294 314.5 286 c 128,-1,14
 330 278 330 278 354.5 262 c 128,-1,15
 379 246 379 246 392 232 c 0,16,17
 424 194 424 194 424 149 c 0,18,19
 424 72 424 72 365.5 30 c 128,-1,20
 307 -12 307 -12 222 -12 c 0,21,22
 177 -12 177 -12 123.5 4 c 128,-1,23
 70 20 70 20 33 47 c 1,24,25
 33 119 33 119 47 181 c 1,26,27
 87 186 87 186 112 186 c 128,-1,28
 137 186 137 186 146 185 c 1,29,-1
 158 88 l 1,30,31
 183 79 183 79 218 79 c 128,-1,32
 253 79 253 79 273.5 93 c 128,-1,33
 294 107 294 107 294 132.5 c 128,-1,34
 294 158 294 158 271 175 c 128,-1,35
 248 192 248 192 208 210.5 c 128,-1,36
 168 229 168 229 146 241.5 c 128,-1,37
 124 254 124 254 99 274 c 0,38,39
 48 313 48 313 48 370 c 0,40,41
 48 441 48 441 97.5 480.5 c 128,-1,42
 147 520 147 520 231 520 c 128,-1,43
 315 520 315 520 399 477 c 1,0,-1
EndSplineSet
EndChar

StartChar: t
Encoding: 116 116 87
Width: 348
GlyphClass: 2
Flags: W
LayerCount: 2
Fore
SplineSet
152 -12 m 1,0,-1
 130 -11 l 1,1,2
 124 0 124 0 114 30 c 128,-1,3
 104 60 104 60 103 75 c 0,4,5
 98 174 98 174 92 418 c 1,6,-1
 22 418 l 1,7,-1
 25 475 l 1,8,9
 48 491 48 491 80 504 c 1,10,-1
 161 632 l 1,11,12
 200 628 200 628 222 611 c 1,13,-1
 221 516 l 1,14,15
 284 514 284 514 338 504 c 1,16,17
 338 464 338 464 313 418 c 1,18,-1
 220 418 l 1,19,20
 216 208 216 208 215 103 c 1,21,22
 255 99 255 99 324 80 c 1,23,-1
 323 28 l 1,24,25
 306 17 306 17 247.5 2.5 c 128,-1,26
 189 -12 189 -12 152 -12 c 1,0,-1
EndSplineSet
EndChar

StartChar: u
Encoding: 117 117 88
Width: 595
GlyphClass: 2
Flags: W
LayerCount: 2
Fore
SplineSet
509 512 m 0,0,1
 528 512 528 512 533 511 c 1,2,3
 533 460 533 460 516 423 c 1,4,5
 510 203 510 203 506 98 c 1,6,7
 551 94 551 94 585 83 c 1,8,-1
 583 13 l 1,9,10
 522 -6 522 -6 478 -6 c 128,-1,11
 434 -6 434 -6 418 -4 c 1,12,13
 406 20 406 20 398 44 c 1,14,15
 315 -12 315 -12 278 -12 c 0,16,17
 99 -12 99 -12 99 169 c 0,18,19
 99 218 99 218 107 410 c 1,20,21
 54 410 54 410 10 424 c 1,22,23
 10 449 10 449 17 496 c 1,24,25
 76 512 76 512 219 512 c 0,26,27
 238 512 238 512 243 511 c 1,28,29
 243 462 243 462 226 420 c 1,30,-1
 226 218 l 2,31,32
 226 154 226 154 239.5 124.5 c 128,-1,33
 253 95 253 95 297.5 95 c 128,-1,34
 342 95 342 95 389 126 c 1,35,-1
 383 410 l 1,36,37
 339 412 339 412 300 424 c 1,38,39
 300 449 300 449 307 496 c 1,40,41
 366 512 366 512 509 512 c 0,0,1
EndSplineSet
EndChar

StartChar: v
Encoding: 118 118 89
Width: 590
GlyphClass: 2
Flags: W
LayerCount: 2
Fore
SplineSet
304 150 m 1,0,-1
 341 299 l 1,1,-1
 394 427 l 1,2,3
 360 433 360 433 310 453 c 1,4,-1
 319 508 l 1,5,-1
 568 508 l 1,6,7
 591 462 591 462 591 421 c 1,8,9
 552 415 552 415 513 413 c 1,10,11
 493 346 493 346 434.5 206 c 128,-1,12
 376 66 376 66 356 0 c 1,13,-1
 227 0 l 1,14,-1
 68 412 l 1,15,-1
 -10 421 l 1,16,17
 -10 462 -10 462 13 508 c 1,18,-1
 262 508 l 1,19,-1
 271 453 l 1,20,21
 230 434 230 434 202 427 c 1,22,-1
 250 300 l 1,23,-1
 285 150 l 1,24,-1
 304 150 l 1,0,-1
EndSplineSet
EndChar

StartChar: w
Encoding: 119 119 90
Width: 860
GlyphClass: 2
Flags: W
LayerCount: 2
Fore
SplineSet
367 508 m 1,0,1
 380 509 380 509 417.5 509 c 128,-1,2
 455 509 455 509 485 507 c 1,3,-1
 549 301 l 1,4,-1
 580 160 l 1,5,-1
 597 160 l 1,6,-1
 626 299 l 1,7,-1
 664 427 l 1,8,9
 630 433 630 433 580 453 c 1,10,-1
 589 508 l 1,11,-1
 838 508 l 1,12,13
 861 462 861 462 861 421 c 1,14,15
 822 415 822 415 783 413 c 1,16,17
 760 335 760 335 712.5 183.5 c 128,-1,18
 665 32 665 32 655 0 c 1,19,-1
 519 0 l 1,20,-1
 426 308 l 1,21,-1
 422 308 l 1,22,-1
 326 0 l 1,23,-1
 197 0 l 1,24,-1
 68 412 l 1,25,-1
 -10 421 l 1,26,27
 -10 462 -10 462 13 508 c 1,28,-1
 262 508 l 1,29,-1
 271 453 l 1,30,31
 230 434 230 434 202 427 c 1,32,-1
 235 300 l 1,33,-1
 260 160 l 1,34,-1
 276 160 l 1,35,-1
 305 301 l 1,36,-1
 367 508 l 1,0,1
EndSplineSet
EndChar

StartChar: x
Encoding: 120 120 91
Width: 548
GlyphClass: 2
Flags: W
LayerCount: 2
Fore
SplineSet
551 508 m 1,0,1
 557 497 557 497 557 487.5 c 128,-1,2
 557 478 557 478 555 470 c 128,-1,3
 553 462 553 462 549 452 c 128,-1,4
 545 442 545 442 544 438 c 1,5,6
 501 424 501 424 452 420 c 1,7,-1
 344 265 l 1,8,-1
 479 95 l 1,9,10
 515 95 515 95 559 87 c 1,11,12
 559 44 559 44 542 0 c 1,13,-1
 272 0 l 1,14,-1
 264 52 l 1,15,16
 301 72 301 72 343 84 c 1,17,-1
 273 175 l 1,18,-1
 150 0 l 1,19,-1
 -4 0 l 1,20,21
 -11 24 -11 24 -11 57 c 1,22,23
 46 84 46 84 101 95 c 1,24,-1
 214 249 l 1,25,-1
 86 410 l 1,26,-1
 -8 423 l 1,27,28
 -8 464 -8 464 9 508 c 1,29,-1
 279 508 l 1,30,-1
 285 453 l 1,31,32
 248 434 248 434 216 428 c 1,33,-1
 284 340 l 1,34,-1
 408 508 l 1,35,-1
 551 508 l 1,0,1
EndSplineSet
EndChar

StartChar: y
Encoding: 121 121 92
Width: 590
GlyphClass: 2
Flags: W
LayerCount: 2
Fore
SplineSet
169 -242 m 0,0,1
 140 -242 140 -242 105 -232 c 128,-1,2
 70 -222 70 -222 30 -202 c 1,3,4
 36 -87 36 -87 41 -65 c 1,5,6
 79 -55 79 -55 103.5 -55 c 128,-1,7
 128 -55 128 -55 135 -56 c 1,8,-1
 167 -156 l 1,9,-1
 176 -155 l 2,10,11
 199 -152 199 -152 223 -100 c 128,-1,12
 247 -48 247 -48 258 0 c 1,13,-1
 216 0 l 1,14,-1
 68 412 l 1,15,-1
 -10 421 l 1,16,17
 -10 462 -10 462 13 508 c 1,18,-1
 262 508 l 1,19,-1
 271 453 l 1,20,21
 230 434 230 434 202 427 c 1,22,-1
 278 190 l 1,23,-1
 287 147 l 1,24,-1
 309 147 l 1,25,-1
 394 427 l 1,26,27
 360 433 360 433 310 453 c 1,28,-1
 319 508 l 1,29,-1
 568 508 l 1,30,31
 591 462 591 462 591 421 c 1,32,33
 552 415 552 415 513 413 c 1,34,35
 423 149 423 149 372.5 5 c 128,-1,36
 322 -139 322 -139 281 -190.5 c 128,-1,37
 240 -242 240 -242 169 -242 c 0,0,1
EndSplineSet
EndChar

StartChar: z
Encoding: 122 122 93
Width: 485
GlyphClass: 2
Flags: W
LayerCount: 2
Fore
SplineSet
442 183 m 1,0,1
 458 126 458 126 458 84 c 128,-1,2
 458 42 458 42 454 0 c 1,3,-1
 66 0 l 1,4,5
 46 29 46 29 44 71 c 1,6,-1
 298 422 l 1,7,-1
 195 422 l 1,8,-1
 173 323 l 1,9,10
 165 322 165 322 137.5 322 c 128,-1,11
 110 322 110 322 78 329 c 1,12,13
 64 401 64 401 64 441 c 128,-1,14
 64 481 64 481 67 508 c 1,15,-1
 434 508 l 1,16,17
 448 480 448 480 448 435 c 1,18,-1
 205 90 l 1,19,-1
 326 90 l 1,20,-1
 348 189 l 1,21,22
 410 189 410 189 442 183 c 1,0,1
EndSplineSet
EndChar

StartChar: braceleft
Encoding: 123 123 94
Width: 405
GlyphClass: 2
Flags: W
LayerCount: 2
Fore
SplineSet
260 174 m 1,0,-1
 256 9 l 1,1,-1
 256 -28 l 1,2,3
 358 -83 358 -83 377 -98 c 1,4,5
 368 -125 368 -125 347 -166 c 1,6,7
 303 -161 303 -161 153 -112 c 1,8,9
 143 -105 143 -105 131 -78.5 c 128,-1,10
 119 -52 119 -52 119 -42 c 1,11,-1
 151 160 l 1,12,13
 122 190 122 190 44 260 c 1,14,-1
 38 265 l 1,15,16
 31 280 31 280 31 306 c 1,17,-1
 37 340 l 1,18,19
 54 354 54 354 96.5 393 c 128,-1,20
 139 432 139 432 151 445 c 1,21,22
 129 579 129 579 119 647 c 1,23,24
 119 656 119 656 131 682.5 c 128,-1,25
 143 709 143 709 153 717 c 1,26,27
 303 766 303 766 347 771 c 1,28,29
 367 732 367 732 377 702 c 1,30,31
 353 684 353 684 256 633 c 1,32,-1
 256 595 l 1,33,-1
 260 430 l 1,34,35
 260 364 260 364 128 308 c 1,36,-1
 128 297 l 1,37,38
 260 241 260 241 260 174 c 1,0,-1
EndSplineSet
EndChar

StartChar: bar
Encoding: 124 124 95
Width: 298
GlyphClass: 2
Flags: W
LayerCount: 2
Fore
SplineSet
228 -199 m 1,0,1
 204 -209 204 -209 173 -209 c 128,-1,2
 142 -209 142 -209 112 -201 c 1,3,4
 110 47 110 47 105.5 341.5 c 128,-1,5
 101 636 101 636 100 741 c 1,6,7
 134 749 134 749 171 749 c 128,-1,8
 208 749 208 749 238 743 c 1,9,-1
 228 -199 l 1,0,1
EndSplineSet
EndChar

StartChar: braceright
Encoding: 125 125 96
Width: 395
GlyphClass: 2
Flags: W
LayerCount: 2
Fore
SplineSet
146 430 m 1,0,-1
 150 595 l 1,1,-1
 150 633 l 1,2,3
 53 684 53 684 29 702 c 1,4,5
 39 732 39 732 59 771 c 1,6,7
 103 766 103 766 253 717 c 1,8,9
 263 709 263 709 275 682.5 c 128,-1,10
 287 656 287 656 287 647 c 1,11,12
 277 579 277 579 255 445 c 1,13,14
 267 432 267 432 309.5 393 c 128,-1,15
 352 354 352 354 369 340 c 1,16,17
 375 321 375 321 375 308 c 0,18,19
 375 281 375 281 368 265 c 1,20,-1
 362 260 l 1,21,22
 284 190 284 190 255 160 c 1,23,-1
 287 -42 l 1,24,25
 287 -52 287 -52 275 -78.5 c 128,-1,26
 263 -105 263 -105 253 -112 c 1,27,28
 103 -161 103 -161 59 -166 c 1,29,30
 38 -125 38 -125 29 -98 c 1,31,32
 48 -83 48 -83 150 -28 c 1,33,-1
 150 9 l 1,34,-1
 146 174 l 1,35,36
 146 241 146 241 278 297 c 1,37,-1
 278 308 l 1,38,39
 146 364 146 364 146 430 c 1,0,-1
EndSplineSet
EndChar

StartChar: asciitilde
Encoding: 126 126 97
Width: 565
GlyphClass: 2
Flags: W
LayerCount: 2
Fore
SplineSet
81 215 m 1,0,1
 60 242 60 242 50 265 c 1,2,3
 64 285 64 285 120 322 c 128,-1,4
 176 359 176 359 202 359 c 1,5,-1
 394 293 l 1,6,7
 412 302 412 302 503 331 c 1,8,9
 521 307 521 307 533 281 c 1,10,11
 521 261 521 261 464.5 223.5 c 128,-1,12
 408 186 408 186 383 186 c 1,13,-1
 190 252 l 1,14,15
 125 223 125 223 81 215 c 1,0,1
EndSplineSet
EndChar

StartChar: exclamdown
Encoding: 161 161 98
Width: 291
GlyphClass: 2
Flags: W
LayerCount: 2
Fore
SplineSet
228 -234 m 1,0,1
 193 -242 193 -242 158.5 -242 c 128,-1,2
 124 -242 124 -242 95 -239 c 1,3,-1
 119 294 l 1,4,5
 152 299 152 299 175.5 299 c 128,-1,6
 199 299 199 299 214 296 c 1,7,-1
 228 -234 l 1,0,1
100 359 m 1,8,9
 91 404 91 404 91 427.5 c 128,-1,10
 91 451 91 451 95 480 c 1,11,12
 135 489 135 489 162.5 489 c 128,-1,13
 190 489 190 489 229 486 c 1,14,15
 238 441 238 441 238 417.5 c 128,-1,16
 238 394 238 394 234 365 c 1,17,18
 194 356 194 356 166.5 356 c 128,-1,19
 139 356 139 356 100 359 c 1,8,9
EndSplineSet
EndChar

StartChar: cent
Encoding: 162 162 99
Width: 521
GlyphClass: 2
Flags: W
LayerCount: 2
Fore
SplineSet
344 -8 m 1,0,-1
 343 -115 l 1,1,2
 322 -123 322 -123 301 -123 c 128,-1,3
 280 -123 280 -123 253 -116 c 1,4,-1
 252 -8 l 1,5,6
 50 21 50 21 50 271 c 128,-1,7
 50 521 50 521 246 554 c 1,8,-1
 245 671 l 1,9,10
 272 680 272 680 300 680 c 128,-1,11
 328 680 328 680 352 672 c 1,12,13
 350 594 350 594 350 556 c 1,14,15
 422 546 422 546 478 513 c 1,16,17
 475 411 475 411 455 357 c 1,18,19
 424 351 424 351 395 351 c 2,20,-1
 358 352 l 1,21,-1
 334 467 l 1,22,23
 328 468 328 468 316 468 c 0,24,25
 256 468 256 468 220 426 c 128,-1,26
 184 384 184 384 184 286.5 c 128,-1,27
 184 189 184 189 211.5 134.5 c 128,-1,28
 239 80 239 80 317 80 c 0,29,30
 328 80 328 80 369.5 93 c 128,-1,31
 411 106 411 106 460 129 c 1,32,33
 494 87 494 87 497 53 c 1,34,35
 419 5 419 5 344 -8 c 1,0,-1
EndSplineSet
EndChar

StartChar: sterling
Encoding: 163 163 100
Width: 526
GlyphClass: 2
Flags: W
LayerCount: 2
Fore
SplineSet
389 178 m 1,0,-1
 421 180 l 1,1,2
 445 180 445 180 478 169 c 1,3,4
 491 99 491 99 491 52.5 c 128,-1,5
 491 6 491 6 490 0 c 1,6,-1
 82 0 l 1,7,8
 61 34 61 34 61 79 c 1,9,10
 66 90 66 90 102 126 c 0,11,12
 170 194 170 194 170 228 c 128,-1,13
 170 262 170 262 139 324 c 1,14,-1
 69 327 l 1,15,16
 65 346 65 346 61 396 c 1,17,18
 77 404 77 404 101 407 c 1,19,20
 80 460 80 460 80 506 c 0,21,22
 80 598 80 598 127.5 655 c 128,-1,23
 175 712 175 712 268 712 c 128,-1,24
 361 712 361 712 451 636 c 1,25,26
 451 564 451 564 431 504 c 1,27,28
 401 497 401 497 375 497 c 128,-1,29
 349 497 349 497 337 499 c 1,30,-1
 315 619 l 1,31,32
 300 622 300 622 271.5 622 c 128,-1,33
 243 622 243 622 225 589.5 c 128,-1,34
 207 557 207 557 207 514.5 c 128,-1,35
 207 472 207 472 234 416 c 1,36,-1
 418 410 l 1,37,38
 422 385 422 385 422 369 c 1,39,-1
 417 334 l 1,40,41
 337 320 337 320 282 320 c 1,42,43
 300 281 300 281 300 249 c 0,44,45
 300 170 300 170 233 90 c 1,46,-1
 375 90 l 1,47,48
 380 146 380 146 389 178 c 1,0,-1
EndSplineSet
EndChar

StartChar: currency
Encoding: 164 164 101
Width: 597
GlyphClass: 2
Flags: W
LayerCount: 2
Fore
SplineSet
192 533 m 1,0,1
 239 562 239 562 309.5 562 c 128,-1,2
 380 562 380 562 427 535 c 1,3,4
 485 595 485 595 513 613 c 1,5,6
 569 581 569 581 587 549 c 1,7,8
 587 538 587 538 573 512 c 1,9,10
 543 497 543 497 494 463 c 1,11,12
 516 416 516 416 516 353 c 128,-1,13
 516 290 516 290 485 236 c 1,14,-1
 490 232 l 1,15,16
 545 194 545 194 574 180 c 1,17,18
 588 155 588 155 588 142 c 1,19,20
 573 116 573 116 514 79 c 1,21,22
 478 101 478 101 415 169 c 1,23,24
 371 144 371 144 311.5 144 c 128,-1,25
 252 144 252 144 209 164 c 1,26,-1
 206 162 l 1,27,28
 145 99 145 99 115 78 c 1,29,30
 59 111 59 111 40 142 c 1,31,32
 40 154 40 154 54 180 c 1,33,34
 75 189 75 189 132 228 c 1,35,36
 99 280 99 280 99 346 c 128,-1,37
 99 412 99 412 125 461 c 1,38,39
 73 497 73 497 44 512 c 1,40,41
 30 536 30 536 30 549 c 1,42,43
 45 576 45 576 105 613 c 1,44,45
 131 597 131 597 192 533 c 1,0,1
310 234 m 0,46,47
 385 234 385 234 385 350 c 0,48,49
 385 411 385 411 369.5 441.5 c 128,-1,50
 354 472 354 472 316.5 472 c 128,-1,51
 279 472 279 472 255 462 c 1,52,53
 230 413 230 413 230 357 c 0,54,55
 230 234 230 234 310 234 c 0,46,47
EndSplineSet
EndChar

StartChar: yen
Encoding: 165 165 102
Width: 687
GlyphClass: 2
Flags: W
LayerCount: 2
Fore
SplineSet
537 325 m 1,0,1
 539 312 539 312 539 289 c 128,-1,2
 539 266 539 266 538 255 c 1,3,4
 470 243 470 243 425 243 c 2,5,-1
 412 243 l 1,6,-1
 412 215 l 1,7,8
 532 213 532 213 544 213 c 1,9,10
 546 185 546 185 546 174 c 128,-1,11
 546 163 546 163 544 141 c 1,12,13
 476 129 476 129 432 129 c 2,14,-1
 411 129 l 1,15,-1
 411 96 l 1,16,-1
 480 87 l 1,17,18
 480 46 480 46 457 0 c 1,19,-1
 214 0 l 1,20,-1
 205 55 l 1,21,22
 274 82 274 82 288 84 c 1,23,-1
 288 130 l 1,24,-1
 168 133 l 1,25,26
 164 161 164 161 164 175.5 c 128,-1,27
 164 190 164 190 167 206 c 1,28,29
 218 218 218 218 287 218 c 1,30,-1
 286 244 l 1,31,-1
 161 247 l 1,32,33
 158 266 158 266 158 284.5 c 128,-1,34
 158 303 158 303 162 319 c 1,35,36
 206 327 206 327 247 330 c 1,37,-1
 98 612 l 1,38,-1
 10 639 l 1,39,-1
 18 700 l 1,40,-1
 278 700 l 1,41,42
 296 667 296 667 296 621 c 1,43,44
 273 617 273 617 237 612 c 1,45,-1
 353 371 l 1,46,-1
 467 613 l 1,47,48
 433 620 433 620 384 639 c 1,49,-1
 391 700 l 1,50,-1
 652 700 l 1,51,52
 655 691 655 691 658.5 684 c 128,-1,53
 662 677 662 677 664 670 c 128,-1,54
 666 663 666 663 667 657 c 0,55,56
 670 639 670 639 670 621 c 1,57,58
 631 613 631 613 592 610 c 1,59,-1
 450 327 l 1,60,-1
 537 325 l 1,0,1
EndSplineSet
EndChar

StartChar: brokenbar
Encoding: 166 166 103
Width: 298
GlyphClass: 2
Flags: W
LayerCount: 2
Fore
SplineSet
238 747 m 1,0,-1
 234 382 l 1,1,-1
 105 381 l 1,2,3
 104 504 104 504 100 745 c 1,4,5
 134 753 134 753 171 753 c 128,-1,6
 208 753 208 753 238 747 c 1,0,-1
112 -212 m 1,7,8
 110 14 110 14 108 127 c 1,9,-1
 232 128 l 1,10,11
 230 14 230 14 228 -210 c 1,12,13
 204 -220 204 -220 173 -220 c 128,-1,14
 142 -220 142 -220 112 -212 c 1,7,8
EndSplineSet
EndChar

StartChar: section
Encoding: 167 167 104
Width: 510
GlyphClass: 2
Flags: W
LayerCount: 2
Fore
SplineSet
444 692 m 1,0,-1
 445 661 l 1,1,2
 445 583 445 583 433 559 c 1,3,4
 400 547 400 547 341 547 c 1,5,-1
 309 648 l 1,6,7
 296 653 296 653 273 653 c 128,-1,8
 250 653 250 653 235.5 639 c 128,-1,9
 221 625 221 625 221 606 c 128,-1,10
 221 587 221 587 236 571.5 c 128,-1,11
 251 556 251 556 267 547 c 128,-1,12
 283 538 283 538 313.5 523.5 c 128,-1,13
 344 509 344 509 359.5 501 c 128,-1,14
 375 493 375 493 399.5 477 c 128,-1,15
 424 461 424 461 436 446 c 1,16,17
 469 409 469 409 469 366.5 c 128,-1,18
 469 324 469 324 458 290.5 c 128,-1,19
 447 257 447 257 426 231 c 0,20,21
 393 190 393 190 350 158 c 1,22,23
 406 130 406 130 437.5 98 c 128,-1,24
 469 66 469 66 469 17 c 0,25,26
 469 -60 469 -60 410.5 -102 c 128,-1,27
 352 -144 352 -144 267 -144 c 0,28,29
 222 -144 222 -144 168.5 -128 c 128,-1,30
 115 -112 115 -112 78 -85 c 1,31,32
 78 -13 78 -13 92 47 c 1,33,34
 142 53 142 53 191 53 c 1,35,-1
 203 -44 l 1,36,37
 228 -53 228 -53 263 -53 c 128,-1,38
 298 -53 298 -53 318.5 -39 c 128,-1,39
 339 -25 339 -25 339 0.5 c 128,-1,40
 339 26 339 26 316 43 c 128,-1,41
 293 60 293 60 234.5 87 c 128,-1,42
 176 114 176 114 123 164 c 128,-1,43
 70 214 70 214 70 279 c 0,44,45
 70 358 70 358 120 402 c 0,46,47
 160 438 160 438 198 452 c 1,48,49
 93 510 93 510 93 583 c 128,-1,50
 93 656 93 656 142.5 695.5 c 128,-1,51
 192 735 192 735 276 735 c 128,-1,52
 360 735 360 735 444 692 c 1,0,-1
191 303 m 0,53,54
 191 261 191 261 213.5 236.5 c 128,-1,55
 236 212 236 212 276 193 c 1,56,57
 311 217 311 217 330 243.5 c 128,-1,58
 349 270 349 270 349 309 c 0,59,60
 349 375 349 375 271 416 c 1,61,62
 191 369 191 369 191 303 c 0,53,54
EndSplineSet
EndChar

StartChar: dieresis
Encoding: 168 168 105
Width: 833
GlyphClass: 2
Flags: W
LayerCount: 2
Fore
SplineSet
325 683 m 1,0,1
 333 649 333 649 333 628.5 c 128,-1,2
 333 608 333 608 330 581 c 1,3,4
 300 573 300 573 274.5 573 c 128,-1,5
 249 573 249 573 216 576 c 1,6,7
 208 610 208 610 208 630.5 c 128,-1,8
 208 651 208 651 211 678 c 1,9,10
 241 686 241 686 266.5 686 c 128,-1,11
 292 686 292 686 325 683 c 1,0,1
488 683 m 1,12,13
 496 649 496 649 496 628.5 c 128,-1,14
 496 608 496 608 493 581 c 1,15,16
 463 573 463 573 437.5 573 c 128,-1,17
 412 573 412 573 379 576 c 1,18,19
 371 610 371 610 371 630.5 c 128,-1,20
 371 651 371 651 374 678 c 1,21,22
 404 686 404 686 429.5 686 c 128,-1,23
 455 686 455 686 488 683 c 1,12,13
EndSplineSet
EndChar

StartChar: copyright
Encoding: 169 169 106
Width: 833
GlyphClass: 2
Flags: W
LayerCount: 2
Fore
SplineSet
50 195 m 128,-1,1
 19 270 19 270 19 368.5 c 128,-1,2
 19 467 19 467 50 541.5 c 128,-1,3
 81 616 81 616 136 660 c 1,4,5
 244 749 244 749 409 749 c 0,6,7
 572 749 572 749 682 657 c 0,8,9
 736 612 736 612 767.5 538 c 128,-1,10
 799 464 799 464 799 367 c 128,-1,11
 799 270 799 270 768 195 c 128,-1,12
 737 120 737 120 682 76 c 128,-1,13
 627 32 627 32 558.5 10 c 128,-1,14
 490 -12 490 -12 409 -12 c 128,-1,15
 328 -12 328 -12 259 10 c 128,-1,16
 190 32 190 32 135.5 76 c 128,-1,0
 81 120 81 120 50 195 c 128,-1,1
214.5 581 m 128,-1,18
 150 505 150 505 150 371.5 c 128,-1,19
 150 238 150 238 216 156 c 128,-1,20
 282 74 282 74 406.5 74 c 128,-1,21
 531 74 531 74 600 157 c 128,-1,22
 669 240 669 240 669 373 c 128,-1,23
 669 506 669 506 604 581.5 c 128,-1,24
 539 657 539 657 409 657 c 128,-1,17
 279 657 279 657 214.5 581 c 128,-1,18
468 517 m 1,25,-1
 421 521 l 1,26,27
 396 521 396 521 348 508 c 1,28,29
 323 462 323 462 323 380 c 0,30,31
 323 219 323 219 412 219 c 0,32,33
 448 219 448 219 472 229 c 1,34,-1
 485 307 l 1,35,-1
 514 308 l 1,36,-1
 561 302 l 1,37,38
 571 226 571 226 571 181 c 1,39,40
 556 169 556 169 507.5 154 c 128,-1,41
 459 139 459 139 414 139 c 0,42,43
 321 139 321 139 264 195 c 128,-1,44
 207 251 207 251 207 367 c 128,-1,45
 207 483 207 483 260 542 c 128,-1,46
 313 601 313 601 417 601 c 0,47,48
 457 601 457 601 495 588 c 128,-1,49
 533 575 533 575 552 562 c 2,50,-1
 570 549 l 1,51,-1
 570 537 l 2,52,53
 570 504 570 504 560 446 c 1,54,55
 533 440 533 440 514 440 c 2,56,-1
 486 441 l 1,57,-1
 468 517 l 1,25,-1
EndSplineSet
EndChar

StartChar: ordfeminine
Encoding: 170 170 107
Width: 374
GlyphClass: 2
Flags: W
LayerCount: 2
Fore
SplineSet
325 426 m 1,0,-1
 381 415 l 1,1,-1
 379 371 l 1,2,3
 365 363 365 363 326 353.5 c 128,-1,4
 287 344 287 344 250 344 c 1,5,6
 243 358 243 358 237 376 c 1,7,8
 175 340 175 340 148 340 c 0,9,10
 91 340 91 340 56.5 370 c 128,-1,11
 22 400 22 400 22 453 c 0,12,13
 22 572 22 572 170 577 c 2,14,-1
 221 579 l 1,15,-1
 220 598 l 2,16,17
 219 633 219 633 209.5 643.5 c 128,-1,18
 200 654 200 654 171 654 c 1,19,-1
 155 650 l 1,20,-1
 138 594 l 1,21,-1
 109 593 l 1,22,-1
 61 599 l 1,23,24
 47 622 47 622 47 682 c 1,25,26
 61 689 61 689 114 700.5 c 128,-1,27
 167 712 167 712 183 712 c 0,28,29
 265 712 265 712 296.5 685 c 128,-1,30
 328 658 328 658 328 581 c 128,-1,31
 328 504 328 504 325 426 c 1,0,-1
162 419 m 0,32,33
 171 419 171 419 227 453 c 1,34,-1
 224 511 l 1,35,-1
 178 506 l 2,36,37
 128 501 128 501 128 460 c 128,-1,38
 128 419 128 419 162 419 c 0,32,33
EndSplineSet
EndChar

StartChar: guillemotleft
Encoding: 171 171 108
Width: 479
GlyphClass: 2
Flags: W
LayerCount: 2
Fore
SplineSet
58 245 m 2,0,1
 55 251 55 251 55 262.5 c 128,-1,2
 55 274 55 274 56 279 c 1,3,-1
 103 345 l 2,4,5
 129 381 129 381 187 441 c 1,6,7
 219 433 219 433 267 391 c 1,8,9
 185 269 185 269 178 262 c 1,10,11
 189 249 189 249 196 239 c 2,12,-1
 266 133 l 1,13,14
 228 88 228 88 185 84 c 1,15,16
 132 137 132 137 103 179 c 2,17,-1
 58 245 l 2,0,1
225 245 m 2,18,19
 222 251 222 251 222 262.5 c 128,-1,20
 222 274 222 274 223 279 c 1,21,-1
 270 345 l 2,22,23
 296 381 296 381 354 441 c 1,24,25
 386 433 386 433 434 391 c 1,26,27
 352 269 352 269 345 262 c 1,28,29
 356 249 356 249 363 239 c 2,30,-1
 433 133 l 1,31,32
 395 88 395 88 352 84 c 1,33,34
 299 137 299 137 270 179 c 2,35,-1
 225 245 l 2,18,19
EndSplineSet
EndChar

StartChar: logicalnot
Encoding: 172 172 109
Width: 518
GlyphClass: 2
Flags: W
LayerCount: 2
Fore
SplineSet
40 314 m 1,0,1
 117 329 117 329 151 329 c 128,-1,2
 185 329 185 329 221.5 328 c 128,-1,3
 258 327 258 327 302 326 c 0,4,5
 424 323 424 323 485 321 c 1,6,-1
 485 102 l 1,7,8
 462 98 462 98 436 98 c 128,-1,9
 410 98 410 98 383 101 c 1,10,-1
 371 221 l 1,11,-1
 338 221 l 1,12,-1
 41 227 l 1,13,14
 35 250 35 250 35 269 c 1,15,-1
 40 314 l 1,0,1
EndSplineSet
EndChar

StartChar: uni00AD
Encoding: 173 173 110
Width: 386
GlyphClass: 2
Flags: W
LayerCount: 2
Fore
SplineSet
339 299 m 1,0,1
 343 280 343 280 343 257.5 c 128,-1,2
 343 235 343 235 340 211 c 1,3,4
 271 204 271 204 227 204 c 1,5,-1
 82 210 l 1,6,7
 77 228 77 228 77 251.5 c 128,-1,8
 77 275 77 275 80 299 c 1,9,10
 149 306 149 306 193 306 c 1,11,-1
 339 299 l 1,0,1
EndSplineSet
EndChar

StartChar: registered
Encoding: 174 174 111
Width: 530
GlyphClass: 2
Flags: W
LayerCount: 2
Fore
SplineSet
364 569 m 2,0,1
 490 569 490 569 490 495 c 0,2,3
 490 446 490 446 442 423 c 1,4,-1
 501 364 l 1,5,-1
 536 360 l 1,6,7
 536 335 536 335 522 310 c 1,8,-1
 444 310 l 1,9,-1
 361 391 l 1,10,-1
 361 363 l 1,11,-1
 387 351 l 1,12,13
 386 329 386 329 376 310 c 1,14,-1
 254 310 l 1,15,-1
 245 341 l 1,16,17
 265 354 265 354 279 357 c 1,18,-1
 279 519 l 1,19,-1
 248 532 l 1,20,-1
 251 569 l 1,21,-1
 364 569 l 2,0,1
363 470 m 1,22,-1
 374 470 l 2,23,24
 401 470 401 470 401 493 c 0,25,26
 401 509 401 509 374 509 c 2,27,-1
 363 509 l 1,28,-1
 363 470 l 1,22,-1
217.5 609 m 128,-1,30
 150 555 150 555 150 446.5 c 128,-1,31
 150 338 150 338 218.5 279.5 c 128,-1,32
 287 221 287 221 384.5 221 c 128,-1,33
 482 221 482 221 550 279.5 c 128,-1,34
 618 338 618 338 618 445 c 128,-1,35
 618 552 618 552 550 607.5 c 128,-1,36
 482 663 482 663 383.5 663 c 128,-1,29
 285 663 285 663 217.5 609 c 128,-1,30
83.5 309 m 128,-1,38
 56 371 56 371 56 441.5 c 128,-1,39
 56 512 56 512 74 563 c 128,-1,40
 92 614 92 614 123 648.5 c 128,-1,41
 154 683 154 683 196 706 c 0,42,43
 276 751 276 751 374 751 c 128,-1,44
 472 751 472 751 544.5 719.5 c 128,-1,45
 617 688 617 688 664.5 618 c 128,-1,46
 712 548 712 548 712 459.5 c 128,-1,47
 712 371 712 371 685 309 c 128,-1,48
 658 247 658 247 611.5 209.5 c 128,-1,49
 565 172 565 172 507 152.5 c 128,-1,50
 449 133 449 133 384 133 c 128,-1,51
 319 133 319 133 261.5 152.5 c 128,-1,52
 204 172 204 172 157.5 209.5 c 128,-1,37
 111 247 111 247 83.5 309 c 128,-1,38
EndSplineSet
EndChar

StartChar: macron
Encoding: 175 175 112
Width: 297
GlyphClass: 2
Flags: W
LayerCount: 2
Fore
SplineSet
45 697 m 1,0,1
 114 704 114 704 166.5 704 c 128,-1,2
 219 704 219 704 293 697 c 1,3,4
 295 688 295 688 295 658 c 1,5,-1
 292 610 l 1,6,7
 223 604 223 604 179 604 c 1,8,-1
 46 609 l 1,9,10
 41 632 41 632 41 649 c 1,11,-1
 45 697 l 1,0,1
EndSplineSet
EndChar

StartChar: degree
Encoding: 176 176 113
Width: 442
GlyphClass: 2
Flags: W
LayerCount: 2
Fore
SplineSet
130 715 m 128,-1,1
 165 746 165 746 224.5 746 c 128,-1,2
 284 746 284 746 318 714.5 c 128,-1,3
 352 683 352 683 352 620.5 c 128,-1,4
 352 558 352 558 318 522.5 c 128,-1,5
 284 487 284 487 225 487 c 0,6,7
 95 487 95 487 95 625 c 0,8,0
 95 684 95 684 130 715 c 128,-1,1
224 556 m 0,9,10
 255 556 255 556 255 614 c 128,-1,11
 255 672 255 672 224 672 c 0,12,13
 188 672 188 672 188 614 c 128,-1,14
 188 556 188 556 224 556 c 0,9,10
EndSplineSet
EndChar

StartChar: plusminus
Encoding: 177 177 114
Width: 566
GlyphClass: 2
Flags: W
LayerCount: 2
Fore
SplineSet
184 412 m 1,0,-1
 229 411 l 1,1,-1
 234 609 l 1,2,3
 266 616 266 616 283 616 c 1,4,-1
 334 610 l 1,5,6
 348 537 348 537 348 494 c 128,-1,7
 348 451 348 451 347 409 c 1,8,-1
 530 405 l 1,9,10
 535 380 535 380 535 361 c 1,11,-1
 531 320 l 1,12,13
 453 305 453 305 398 305 c 2,14,-1
 345 305 l 1,15,-1
 343 102 l 1,16,17
 312 94 312 94 291 94 c 1,18,-1
 241 99 l 1,19,20
 227 173 227 173 227 217.5 c 128,-1,21
 227 262 227 262 228 307 c 1,22,-1
 51 312 l 1,23,24
 45 342 45 342 45 354 c 1,25,-1
 50 397 l 1,26,27
 128 412 128 412 184 412 c 1,0,-1
50 13 m 1,28,29
 128 27 128 27 174 27 c 128,-1,30
 220 27 220 27 368.5 23.5 c 128,-1,31
 517 20 517 20 533 19 c 1,32,33
 536 9 536 9 536 -23 c 1,34,-1
 531 -65 l 1,35,36
 453 -80 453 -80 398 -80 c 1,37,-1
 51 -73 l 1,38,39
 45 -43 45 -43 45 -31 c 1,40,-1
 50 13 l 1,28,29
EndSplineSet
EndChar

StartChar: twosuperior
Encoding: 178 178 115
Width: 347
GlyphClass: 2
Flags: W
LayerCount: 2
Fore
SplineSet
348 293 m 1,0,-1
 347 263 l 1,1,-1
 41 263 l 1,2,3
 26 290 26 290 26 310.5 c 128,-1,4
 26 331 26 331 27 338 c 1,5,6
 153 479 153 479 184 524.5 c 128,-1,7
 215 570 215 570 215 607 c 0,8,9
 215 662 215 662 164 662 c 2,10,-1
 150 662 l 1,11,-1
 134 578 l 1,12,13
 124 576 124 576 101 576 c 1,14,-1
 57 582 l 1,15,16
 42 626 42 626 42 693 c 1,17,18
 98 749 98 749 182.5 749 c 128,-1,19
 267 749 267 749 305.5 714 c 128,-1,20
 344 679 344 679 344 624.5 c 128,-1,21
 344 570 344 570 316.5 525.5 c 128,-1,22
 289 481 289 481 174 349 c 1,23,-1
 253 350 l 1,24,25
 255 382 255 382 264 412 c 1,26,-1
 290 413 l 2,27,28
 306 413 306 413 338 404 c 1,29,30
 348 345 348 345 348 293 c 1,0,-1
EndSplineSet
EndChar

StartChar: threesuperior
Encoding: 179 179 116
Width: 346
GlyphClass: 2
Flags: W
LayerCount: 2
Fore
SplineSet
35 682 m 1,0,-1
 36 692 l 1,1,2
 53 713 53 713 91.5 731 c 128,-1,3
 130 749 130 749 159 749 c 0,4,5
 233 749 233 749 281 714.5 c 128,-1,6
 329 680 329 680 329 632 c 0,7,8
 329 569 329 569 274 531 c 1,9,10
 348 503 348 503 348 423 c 0,11,12
 348 372 348 372 314 332.5 c 128,-1,13
 280 293 280 293 235.5 275 c 128,-1,14
 191 257 191 257 140.5 257 c 128,-1,15
 90 257 90 257 25 281 c 1,16,17
 27 329 27 329 43 360 c 1,18,19
 109 346 109 346 127 346 c 128,-1,20
 145 346 145 346 155.5 347.5 c 128,-1,21
 166 349 166 349 184.5 354.5 c 128,-1,22
 203 360 203 360 215 374.5 c 128,-1,23
 227 389 227 389 227 413 c 128,-1,24
 227 437 227 437 207.5 451 c 128,-1,25
 188 465 188 465 155 465 c 2,26,-1
 143 465 l 1,27,-1
 103 461 l 1,28,29
 93 481 93 481 93 498 c 128,-1,30
 93 515 93 515 96 542 c 1,31,-1
 144 548 l 2,32,33
 171 551 171 551 190.5 567.5 c 128,-1,34
 210 584 210 584 210 608 c 0,35,36
 210 663 210 663 153 663 c 1,37,-1
 144 662 l 1,38,-1
 127 576 l 1,39,-1
 100 575 l 1,40,-1
 50 582 l 1,41,42
 35 629 35 629 35 682 c 1,0,-1
EndSplineSet
EndChar

StartChar: acute
Encoding: 180 180 117
Width: 280
GlyphClass: 2
Flags: W
LayerCount: 2
Fore
SplineSet
64 616 m 1,0,-1
 222 747 l 1,1,2
 281 700 281 700 285 660 c 1,3,4
 259 635 259 635 219.5 608 c 128,-1,5
 180 581 180 581 126 553 c 1,6,7
 94 577 94 577 64 616 c 1,0,-1
EndSplineSet
EndChar

StartChar: mu
Encoding: 181 181 118
AltUni2: 0003bc.ffffffff.0
Width: 600
GlyphClass: 2
Flags: W
LayerCount: 2
Fore
SplineSet
232 422 m 1,0,-1
 231 218 l 2,1,2
 231 154 231 154 244.5 124.5 c 128,-1,3
 258 95 258 95 302.5 95 c 128,-1,4
 347 95 347 95 394 126 c 1,5,6
 394 218 394 218 388 410 c 1,7,8
 330 416 330 416 305 424 c 1,9,-1
 312 496 l 1,10,11
 328 500 328 500 395 506 c 128,-1,12
 462 512 462 512 496 512 c 128,-1,13
 530 512 530 512 538 511 c 1,14,15
 538 462 538 462 521 423 c 1,16,17
 517 318 517 318 511 98 c 1,18,19
 556 94 556 94 590 83 c 1,20,-1
 588 13 l 1,21,22
 530 -6 530 -6 464 -6 c 0,23,24
 447 -6 447 -6 423 -4 c 1,25,26
 411 20 411 20 403 44 c 1,27,28
 320 -12 320 -12 288 -12 c 128,-1,29
 256 -12 256 -12 225 -5 c 1,30,-1
 222 -192 l 1,31,32
 203 -221 203 -221 179 -230 c 1,33,-1
 32 -230 l 1,34,-1
 26 -176 l 1,35,36
 67 -156 67 -156 107 -144 c 1,37,38
 98 407 98 407 98 410 c 1,39,40
 53 414 53 414 15 424 c 1,41,42
 15 461 15 461 22 496 c 1,43,44
 43 501 43 501 105.5 506.5 c 128,-1,45
 168 512 168 512 203.5 512 c 128,-1,46
 239 512 239 512 248 511 c 1,47,48
 248 468 248 468 232 422 c 1,0,-1
EndSplineSet
EndChar

StartChar: paragraph
Encoding: 182 182 119
Width: 657
GlyphClass: 2
Flags: W
LayerCount: 2
Fore
SplineSet
65 489 m 0,0,1
 65 605 65 605 133 658.5 c 128,-1,2
 201 712 201 712 313 712 c 0,3,4
 375 712 375 712 408 709 c 1,5,6
 403 655 403 655 394 624 c 1,7,-1
 387 -105 l 1,8,-1
 189 -105 l 1,9,-1
 184 -44 l 1,10,11
 228 -28 228 -28 269 -19 c 1,12,13
 268 78 268 78 264 267 c 1,14,15
 162 274 162 274 113.5 335 c 128,-1,16
 65 396 65 396 65 489 c 0,0,1
430 709 m 1,17,18
 455 712 455 712 520 712 c 128,-1,19
 585 712 585 712 655 693 c 1,20,21
 660 655 660 655 660 620 c 1,22,23
 623 609 623 609 578 605 c 1,24,25
 577 536 577 536 575 408 c 0,26,27
 571 128 571 128 569 -19 c 1,28,-1
 654 -44 l 1,29,-1
 649 -105 l 1,30,-1
 451 -105 l 1,31,-1
 444 624 l 1,32,33
 436 653 436 653 430 709 c 1,17,18
EndSplineSet
EndChar

StartChar: periodcentered
Encoding: 183 183 120
Width: 208
GlyphClass: 2
Flags: W
LayerCount: 2
Fore
SplineSet
188 351 m 1,0,1
 197 315 197 315 197 289.5 c 128,-1,2
 197 264 197 264 194 232 c 1,3,4
 159 223 159 223 128.5 223 c 128,-1,5
 98 223 98 223 61 226 c 1,6,7
 51 266 51 266 51 284.5 c 128,-1,8
 51 303 51 303 55 345 c 1,9,10
 88 354 88 354 118.5 354 c 128,-1,11
 149 354 149 354 188 351 c 1,0,1
EndSplineSet
EndChar

StartChar: cedilla
Encoding: 184 184 121
Width: 330
GlyphClass: 2
Flags: W
LayerCount: 2
Fore
SplineSet
229 -101 m 0,0,1
 229 -95 229 -95 171 -72 c 1,2,3
 171 -34 171 -34 207 48 c 1,4,5
 224 51 224 51 235 51 c 128,-1,6
 246 51 246 51 273 42 c 1,7,8
 270 -7 270 -7 263 -26 c 1,9,10
 334 -64 334 -64 334 -94 c 128,-1,11
 334 -124 334 -124 299 -160.5 c 128,-1,12
 264 -197 264 -197 219 -213 c 1,13,-1
 193 -182 l 1,14,15
 195 -177 195 -177 205 -158 c 0,16,17
 229 -114 229 -114 229 -101 c 0,0,1
EndSplineSet
EndChar

StartChar: onesuperior
Encoding: 185 185 122
Width: 343
GlyphClass: 2
Flags: W
LayerCount: 2
Fore
SplineSet
242 705 m 1,0,-1
 237 358 l 1,1,-1
 293 348 l 1,2,3
 293 304 293 304 275 263 c 1,4,-1
 44 263 l 1,5,-1
 27 320 l 1,6,7
 54 331 54 331 82.5 340 c 128,-1,8
 111 349 111 349 122 353 c 1,9,10
 120 535 120 535 118 628 c 1,11,12
 66 612 66 612 39 612 c 1,13,14
 20 650 20 650 20 695 c 1,15,-1
 185 748 l 1,16,17
 197 746 197 746 218 731 c 128,-1,18
 239 716 239 716 242 705 c 1,0,-1
EndSplineSet
EndChar

StartChar: ordmasculine
Encoding: 186 186 123
Width: 431
GlyphClass: 2
Flags: W
LayerCount: 2
Fore
SplineSet
169.5 428 m 128,-1,1
 184 396 184 396 224.5 396 c 128,-1,2
 265 396 265 396 279 427 c 128,-1,3
 293 458 293 458 293 515.5 c 128,-1,4
 293 573 293 573 279 605.5 c 128,-1,5
 265 638 265 638 226 638 c 0,6,7
 199 638 199 638 177 629 c 1,8,9
 155 584 155 584 155 522 c 128,-1,0
 155 460 155 460 169.5 428 c 128,-1,1
92.5 660 m 128,-1,11
 136 712 136 712 227 712 c 128,-1,12
 318 712 318 712 358.5 664.5 c 128,-1,13
 399 617 399 617 399 523.5 c 128,-1,14
 399 430 399 430 356 376.5 c 128,-1,15
 313 323 313 323 226 323 c 0,16,17
 49 323 49 323 49 514 c 0,18,10
 49 608 49 608 92.5 660 c 128,-1,11
EndSplineSet
EndChar

StartChar: guillemotright
Encoding: 187 187 124
Width: 479
GlyphClass: 2
Flags: W
LayerCount: 2
Fore
SplineSet
448 279 m 1,0,1
 449 274 449 274 449 262.5 c 128,-1,2
 449 251 449 251 446 245 c 2,3,-1
 401 179 l 2,4,5
 377 144 377 144 319 84 c 1,6,7
 300 86 300 86 279.5 98 c 128,-1,8
 259 110 259 110 238 133 c 1,9,10
 287 213 287 213 326 262 c 1,11,12
 318 270 318 270 237 391 c 1,13,14
 280 432 280 432 317 441 c 1,15,16
 372 386 372 386 401 345 c 2,17,-1
 448 279 l 1,0,1
281 279 m 1,18,19
 282 274 282 274 282 262.5 c 128,-1,20
 282 251 282 251 279 245 c 2,21,-1
 234 179 l 2,22,23
 210 144 210 144 152 84 c 1,24,25
 133 86 133 86 112.5 98 c 128,-1,26
 92 110 92 110 71 133 c 1,27,28
 120 213 120 213 159 262 c 1,29,30
 151 270 151 270 70 391 c 1,31,32
 113 432 113 432 150 441 c 1,33,34
 205 386 205 386 234 345 c 2,35,-1
 281 279 l 1,18,19
EndSplineSet
EndChar

StartChar: onequarter
Encoding: 188 188 125
Width: 857
GlyphClass: 2
Flags: W
LayerCount: 2
Fore
SplineSet
746 -3 m 1,0,-1
 703 -6 l 1,1,2
 677 -6 677 -6 650 1 c 1,3,-1
 644 107 l 1,4,-1
 452 107 l 1,5,6
 439 138 439 138 439 178 c 1,7,-1
 621 476 l 1,8,-1
 759 476 l 1,9,10
 759 474 759 474 753 195 c 1,11,-1
 823 194 l 1,12,13
 823 136 823 136 810 107 c 1,14,-1
 751 107 l 1,15,-1
 746 -3 l 1,0,-1
642 196 m 1,16,-1
 641 319 l 1,17,-1
 565 195 l 1,18,19
 611 195 611 195 642 196 c 1,16,-1
242 705 m 1,20,-1
 237 358 l 1,21,-1
 293 348 l 1,22,23
 293 304 293 304 275 263 c 1,24,-1
 44 263 l 1,25,-1
 27 320 l 1,26,27
 54 331 54 331 82.5 340 c 128,-1,28
 111 349 111 349 122 353 c 1,29,30
 120 535 120 535 118 628 c 1,31,32
 66 612 66 612 39 612 c 1,33,34
 20 650 20 650 20 695 c 1,35,-1
 185 748 l 1,36,37
 197 746 197 746 218 731 c 128,-1,38
 239 716 239 716 242 705 c 1,20,-1
724 677 m 1,39,-1
 219 -19 l 1,40,41
 181 -1 181 -1 148 30 c 1,42,-1
 627 740 l 1,43,44
 687 715 687 715 724 677 c 1,39,-1
EndSplineSet
EndChar

StartChar: onehalf
Encoding: 189 189 126
Width: 847
GlyphClass: 2
Flags: W
LayerCount: 2
Fore
SplineSet
242 705 m 1,0,-1
 237 358 l 1,1,-1
 293 348 l 1,2,3
 293 304 293 304 275 263 c 1,4,-1
 44 263 l 1,5,-1
 27 320 l 1,6,7
 54 331 54 331 82.5 340 c 128,-1,8
 111 349 111 349 122 353 c 1,9,10
 120 535 120 535 118 628 c 1,11,12
 66 612 66 612 39 612 c 1,13,14
 20 650 20 650 20 695 c 1,15,-1
 185 748 l 1,16,17
 197 746 197 746 218 731 c 128,-1,18
 239 716 239 716 242 705 c 1,0,-1
895 30 m 1,19,-1
 894 0 l 1,20,-1
 588 0 l 1,21,22
 573 28 573 28 573 48 c 128,-1,23
 573 68 573 68 574 75 c 1,24,25
 700 216 700 216 731 261.5 c 128,-1,26
 762 307 762 307 762 344 c 0,27,28
 762 399 762 399 711 399 c 2,29,-1
 697 399 l 1,30,-1
 681 315 l 1,31,32
 671 313 671 313 648 313 c 1,33,-1
 604 319 l 1,34,35
 589 363 589 363 589 430 c 1,36,37
 645 486 645 486 729.5 486 c 128,-1,38
 814 486 814 486 852.5 451 c 128,-1,39
 891 416 891 416 891 361.5 c 128,-1,40
 891 307 891 307 863.5 262.5 c 128,-1,41
 836 218 836 218 721 86 c 1,42,-1
 800 87 l 1,43,44
 802 119 802 119 811 149 c 1,45,-1
 837 150 l 2,46,47
 860 150 860 150 885 141 c 1,48,49
 895 82 895 82 895 30 c 1,19,-1
724 677 m 1,50,-1
 219 -19 l 1,51,52
 181 -1 181 -1 148 30 c 1,53,-1
 627 740 l 1,54,55
 687 715 687 715 724 677 c 1,50,-1
EndSplineSet
EndChar

StartChar: threequarters
Encoding: 190 190 127
Width: 837
GlyphClass: 2
Flags: W
LayerCount: 2
Fore
SplineSet
746 -3 m 1,0,-1
 703 -6 l 1,1,2
 677 -6 677 -6 650 1 c 1,3,-1
 644 107 l 1,4,-1
 452 107 l 1,5,6
 439 138 439 138 439 178 c 1,7,-1
 621 476 l 1,8,-1
 759 476 l 1,9,10
 759 474 759 474 753 195 c 1,11,-1
 823 194 l 1,12,13
 823 136 823 136 810 107 c 1,14,-1
 751 107 l 1,15,-1
 746 -3 l 1,0,-1
642 196 m 1,16,-1
 641 319 l 1,17,-1
 565 195 l 1,18,19
 611 195 611 195 642 196 c 1,16,-1
35 682 m 1,20,-1
 36 692 l 1,21,22
 53 713 53 713 91.5 731 c 128,-1,23
 130 749 130 749 159 749 c 0,24,25
 233 749 233 749 281 714.5 c 128,-1,26
 329 680 329 680 329 632 c 0,27,28
 329 569 329 569 274 531 c 1,29,30
 348 503 348 503 348 423 c 0,31,32
 348 372 348 372 314 332.5 c 128,-1,33
 280 293 280 293 235.5 275 c 128,-1,34
 191 257 191 257 140.5 257 c 128,-1,35
 90 257 90 257 25 281 c 1,36,37
 27 329 27 329 43 360 c 1,38,39
 109 346 109 346 127 346 c 128,-1,40
 145 346 145 346 155.5 347.5 c 128,-1,41
 166 349 166 349 184.5 354.5 c 128,-1,42
 203 360 203 360 215 374.5 c 128,-1,43
 227 389 227 389 227 413 c 128,-1,44
 227 437 227 437 207.5 451 c 128,-1,45
 188 465 188 465 155 465 c 2,46,-1
 143 465 l 1,47,-1
 103 461 l 1,48,49
 93 481 93 481 93 498 c 128,-1,50
 93 515 93 515 96 542 c 1,51,-1
 144 548 l 2,52,53
 171 551 171 551 190.5 567.5 c 128,-1,54
 210 584 210 584 210 608 c 0,55,56
 210 663 210 663 153 663 c 1,57,-1
 144 662 l 1,58,-1
 127 576 l 1,59,-1
 100 575 l 1,60,-1
 50 582 l 1,61,62
 35 629 35 629 35 682 c 1,20,-1
724 677 m 1,63,-1
 219 -19 l 1,64,65
 181 -1 181 -1 148 30 c 1,66,-1
 627 740 l 1,67,68
 687 715 687 715 724 677 c 1,63,-1
EndSplineSet
EndChar

StartChar: questiondown
Encoding: 191 191 128
Width: 487
GlyphClass: 2
Flags: W
LayerCount: 2
Fore
SplineSet
196 -18 m 128,-1,1
 185 -48 185 -48 185 -79.5 c 128,-1,2
 185 -111 185 -111 205 -132.5 c 128,-1,3
 225 -154 225 -154 260 -154 c 0,4,5
 278 -154 278 -154 298 -148 c 1,6,-1
 321 -43 l 1,7,-1
 413 -47 l 1,8,9
 431 -98 431 -98 435 -174 c 1,10,11
 347 -242 347 -242 244 -242 c 0,12,13
 60 -242 60 -242 60 -65 c 0,14,15
 60 -33 60 -33 73.5 2 c 128,-1,16
 87 37 87 37 101 58.5 c 128,-1,17
 115 80 115 80 142 118 c 0,18,19
 200 200 200 200 211 248 c 0,20,21
 214 262 214 262 214 328 c 1,22,23
 250 335 250 335 294 335 c 1,24,25
 312 293 312 293 322 239 c 1,26,27
 312 176 312 176 250 82 c 0,28,29
 230 51 230 51 218.5 31.5 c 128,-1,0
 207 12 207 12 196 -18 c 128,-1,1
186 502 m 1,30,31
 218 510 218 510 250 510 c 128,-1,32
 282 510 282 510 309 506 c 1,33,34
 317 472 317 472 317 436 c 128,-1,35
 317 400 317 400 314 382 c 1,36,37
 282 376 282 376 249 376 c 128,-1,38
 216 376 216 376 191 379 c 1,39,40
 183 411 183 411 183 444.5 c 128,-1,41
 183 478 183 478 186 502 c 1,30,31
EndSplineSet
EndChar

StartChar: Aacute
Encoding: 193 193 130
Width: 739
GlyphClass: 2
Flags: W
LayerCount: 2
Fore
SplineSet
519 689 m 1,0,-1
 520 679 l 1,1,2
 520 638 520 638 507 609 c 1,3,4
 494 599 494 599 466 593 c 1,5,-1
 633 99 l 1,6,-1
 728 87 l 1,7,8
 728 46 728 46 705 0 c 1,9,-1
 462 0 l 1,10,-1
 453 55 l 1,11,12
 495 71 495 71 508 76 c 1,13,-1
 468 189 l 1,14,-1
 243 189 l 1,15,16
 213 100 213 100 211 96 c 1,17,-1
 280 87 l 1,18,19
 280 66 280 66 272 38.5 c 128,-1,20
 264 11 264 11 257 0 c 1,21,-1
 14 0 l 1,22,-1
 5 55 l 1,23,24
 50 74 50 74 86 83 c 1,25,-1
 254 597 l 1,26,27
 187 607 187 607 153 623 c 1,28,29
 153 652 153 652 162 674 c 1,30,31
 183 681 183 681 260.5 690.5 c 128,-1,32
 338 700 338 700 408.5 700 c 128,-1,33
 479 700 479 700 519 689 c 1,0,-1
390 414 m 1,34,-1
 361 546 l 1,35,-1
 351 546 l 1,36,-1
 319 408 l 1,37,-1
 272 283 l 1,38,-1
 439 283 l 1,39,-1
 390 414 l 1,34,-1
291 808 m 1,40,-1
 449 939 l 1,41,42
 508 892 508 892 512 852 c 1,43,44
 486 827 486 827 446.5 800 c 128,-1,45
 407 773 407 773 353 745 c 1,46,47
 321 769 321 769 291 808 c 1,40,-1
EndSplineSet
EndChar

StartChar: AE
Encoding: 198 198 135
Width: 959
GlyphClass: 2
Flags: W
LayerCount: 2
Fore
SplineSet
459 84 m 1,0,1
 459 149 459 149 457 189 c 1,2,-1
 273 189 l 1,3,-1
 222 95 l 1,4,-1
 289 86 l 1,5,6
 289 46 289 46 266 0 c 1,7,-1
 13 0 l 1,8,-1
 5 56 l 1,9,10
 45 75 45 75 92 84 c 1,11,-1
 368 614 l 1,12,-1
 296 636 l 1,13,-1
 304 700 l 1,14,-1
 866 700 l 1,15,16
 870 672 870 672 870 646 c 0,17,18
 870 597 870 597 855 518 c 1,19,20
 824 511 824 511 796 511 c 2,21,-1
 761 512 l 1,22,-1
 738 601 l 1,23,-1
 589 601 l 1,24,25
 587 534 587 534 585 404 c 1,26,-1
 687 404 l 1,27,-1
 697 473 l 1,28,29
 748 473 748 473 796 448 c 1,30,-1
 796 244 l 1,31,-1
 730 244 l 1,32,33
 706 281 706 281 701 308 c 1,34,-1
 584 308 l 1,35,-1
 581 96 l 1,36,-1
 752 96 l 1,37,-1
 775 184 l 1,38,-1
 810 185 l 1,39,-1
 869 178 l 1,40,41
 884 113 884 113 884 70.5 c 128,-1,42
 884 28 884 28 880 0 c 1,43,-1
 384 0 l 1,44,-1
 387 56 l 1,45,46
 420 77 420 77 459 84 c 1,0,1
455 283 m 1,47,48
 455 329 455 329 453 414.5 c 128,-1,49
 451 500 451 500 451 527 c 1,50,-1
 387 403 l 1,51,-1
 321 283 l 1,52,-1
 455 283 l 1,47,48
EndSplineSet
EndChar

StartChar: Ccedilla
Encoding: 199 199 136
Width: 591
GlyphClass: 2
Flags: W
LayerCount: 2
Fore
SplineSet
477 474 m 1,0,-1
 446 475 l 1,1,-1
 417 595 l 1,2,3
 359 605 359 605 330 605 c 0,4,5
 273 605 273 605 202 582 c 1,6,7
 181 543 181 543 169 482 c 128,-1,8
 157 421 157 421 157 367 c 0,9,10
 157 91 157 91 316 91 c 0,11,12
 384 91 384 91 424 111 c 1,13,-1
 445 233 l 1,14,15
 508 233 508 233 541 226 c 1,16,17
 557 117 557 117 557 49 c 1,18,19
 536 33 536 33 472 12.5 c 128,-1,20
 408 -8 408 -8 342 -12 c 1,21,-1
 339 -26 l 1,22,23
 410 -64 410 -64 410 -94 c 128,-1,24
 410 -124 410 -124 375 -160.5 c 128,-1,25
 340 -197 340 -197 295 -213 c 1,26,-1
 269 -182 l 1,27,28
 271 -177 271 -177 281 -158 c 0,29,30
 305 -114 305 -114 305 -101 c 0,31,32
 305 -95 305 -95 247 -72 c 1,33,34
 247 -48 247 -48 260 -9 c 1,35,36
 20 24 20 24 20 355 c 0,37,38
 20 530 20 530 92.5 621 c 128,-1,39
 165 712 165 712 324 712 c 0,40,41
 403 712 403 712 464 689 c 0,42,43
 518 669 518 669 556 645 c 1,44,45
 556 577 556 577 541 481 c 1,46,47
 513 474 513 474 477 474 c 1,0,-1
EndSplineSet
EndChar

StartChar: Egrave
Encoding: 200 200 137
Width: 595
GlyphClass: 2
Flags: W
LayerCount: 2
Fore
SplineSet
249 600 m 1,0,1
 249 486 249 486 247 404 c 1,2,-1
 349 404 l 1,3,-1
 359 473 l 1,4,5
 410 473 410 473 458 448 c 1,6,-1
 458 248 l 1,7,-1
 392 245 l 1,8,9
 368 281 368 281 364 308 c 1,10,-1
 246 308 l 1,11,12
 244 168 244 168 244 97 c 1,13,-1
 415 97 l 1,14,-1
 437 184 l 1,15,16
 499 184 499 184 531 178 c 1,17,18
 546 121 546 121 546 74.5 c 128,-1,19
 546 28 546 28 543 0 c 1,20,-1
 47 0 l 1,21,-1
 38 55 l 1,22,23
 103 80 103 80 122 84 c 1,24,25
 121 143 121 143 120 250 c 0,26,27
 116 490 116 490 113 613 c 1,28,-1
 30 639 l 1,29,-1
 38 700 l 1,30,-1
 529 700 l 1,31,32
 532 673 532 673 532 632.5 c 128,-1,33
 532 592 532 592 517 520 c 1,34,35
 486 510 486 510 423 510 c 1,36,-1
 400 600 l 1,37,-1
 249 600 l 1,0,1
218 939 m 1,38,-1
 376 808 l 1,39,40
 348 772 348 772 314 745 c 1,41,42
 213 795 213 795 155 852 c 1,43,44
 157 870 157 870 172.5 891.5 c 128,-1,45
 188 913 188 913 218 939 c 1,38,-1
EndSplineSet
EndChar

StartChar: Ecircumflex
Encoding: 202 202 139
Width: 595
GlyphClass: 2
Flags: W
LayerCount: 2
Fore
SplineSet
249 600 m 1,0,1
 249 486 249 486 247 404 c 1,2,-1
 349 404 l 1,3,-1
 359 473 l 1,4,5
 410 473 410 473 458 448 c 1,6,-1
 458 248 l 1,7,-1
 392 245 l 1,8,9
 368 281 368 281 364 308 c 1,10,-1
 246 308 l 1,11,12
 244 168 244 168 244 97 c 1,13,-1
 415 97 l 1,14,-1
 437 184 l 1,15,16
 499 184 499 184 531 178 c 1,17,18
 546 121 546 121 546 74.5 c 128,-1,19
 546 28 546 28 543 0 c 1,20,-1
 47 0 l 1,21,-1
 38 55 l 1,22,23
 103 80 103 80 122 84 c 1,24,25
 121 143 121 143 120 250 c 0,26,27
 116 490 116 490 113 613 c 1,28,-1
 30 639 l 1,29,-1
 38 700 l 1,30,-1
 529 700 l 1,31,32
 532 673 532 673 532 632.5 c 128,-1,33
 532 592 532 592 517 520 c 1,34,35
 486 510 486 510 423 510 c 1,36,-1
 400 600 l 1,37,-1
 249 600 l 1,0,1
420 747 m 1,38,39
 347 784 347 784 315 808 c 1,40,41
 297 794 297 794 210 747 c 1,42,43
 172 783 172 783 157 807 c 1,44,-1
 315 938 l 1,45,-1
 474 807 l 1,46,47
 460 785 460 785 420 747 c 1,38,39
EndSplineSet
EndChar

StartChar: Edieresis
Encoding: 203 203 140
Width: 595
GlyphClass: 2
Flags: W
LayerCount: 2
Fore
SplineSet
249 600 m 1,0,1
 249 486 249 486 247 404 c 1,2,-1
 349 404 l 1,3,-1
 359 473 l 1,4,5
 410 473 410 473 458 448 c 1,6,-1
 458 248 l 1,7,-1
 392 245 l 1,8,9
 368 281 368 281 364 308 c 1,10,-1
 246 308 l 1,11,12
 244 168 244 168 244 97 c 1,13,-1
 415 97 l 1,14,-1
 437 184 l 1,15,16
 499 184 499 184 531 178 c 1,17,18
 546 121 546 121 546 74.5 c 128,-1,19
 546 28 546 28 543 0 c 1,20,-1
 47 0 l 1,21,-1
 38 55 l 1,22,23
 103 80 103 80 122 84 c 1,24,25
 121 143 121 143 120 250 c 0,26,27
 116 490 116 490 113 613 c 1,28,-1
 30 639 l 1,29,-1
 38 700 l 1,30,-1
 529 700 l 1,31,32
 532 673 532 673 532 632.5 c 128,-1,33
 532 592 532 592 517 520 c 1,34,35
 486 510 486 510 423 510 c 1,36,-1
 400 600 l 1,37,-1
 249 600 l 1,0,1
301 875 m 1,38,39
 309 841 309 841 309 820.5 c 128,-1,40
 309 800 309 800 306 773 c 1,41,42
 276 765 276 765 250.5 765 c 128,-1,43
 225 765 225 765 192 768 c 1,44,45
 184 802 184 802 184 822.5 c 128,-1,46
 184 843 184 843 187 870 c 1,47,48
 217 878 217 878 242.5 878 c 128,-1,49
 268 878 268 878 301 875 c 1,38,39
464 875 m 1,50,51
 472 841 472 841 472 820.5 c 128,-1,52
 472 800 472 800 469 773 c 1,53,54
 439 765 439 765 413.5 765 c 128,-1,55
 388 765 388 765 355 768 c 1,56,57
 347 802 347 802 347 822.5 c 128,-1,58
 347 843 347 843 350 870 c 1,59,60
 380 878 380 878 405.5 878 c 128,-1,61
 431 878 431 878 464 875 c 1,50,51
EndSplineSet
EndChar

StartChar: Iacute
Encoding: 205 205 142
Width: 380
GlyphClass: 2
Flags: W
LayerCount: 2
Fore
SplineSet
323 700 m 2,0,1
 322 700 322 700 323.5 698 c 128,-1,2
 325 696 325 696 327.5 689.5 c 128,-1,3
 330 683 330 683 333 674 c 0,4,5
 339 658 339 658 341 621 c 1,6,7
 290 613 290 613 274 611 c 1,8,-1
 269 96 l 1,9,-1
 338 87 l 1,10,11
 338 46 338 46 315 0 c 1,12,-1
 72 0 l 1,13,-1
 63 55 l 1,14,15
 119 78 119 78 147 84 c 1,16,17
 146 143 146 143 144 250 c 0,18,19
 141 490 141 490 138 613 c 1,20,-1
 55 639 l 1,21,-1
 63 700 l 1,22,-1
 323 700 l 2,0,1
156 808 m 1,23,-1
 314 939 l 1,24,25
 373 892 373 892 377 852 c 1,26,27
 351 827 351 827 311.5 800 c 128,-1,28
 272 773 272 773 218 745 c 1,29,30
 186 769 186 769 156 808 c 1,23,-1
EndSplineSet
EndChar

StartChar: Eth
Encoding: 208 208 145
Width: 666
GlyphClass: 2
Flags: W
LayerCount: 2
Fore
SplineSet
635 365 m 0,0,1
 635 145 635 145 530 59 c 0,2,3
 487 25 487 25 437 12.5 c 128,-1,4
 387 0 387 0 306 0 c 2,5,-1
 47 0 l 1,6,-1
 38 55 l 1,7,8
 114 83 114 83 122 84 c 1,9,10
 120 234 120 234 118 309 c 1,11,-1
 39 312 l 1,12,13
 36 328 36 328 33.5 354 c 128,-1,14
 31 380 31 380 30 389 c 1,15,16
 77 402 77 402 117 403 c 1,17,18
 115 473 115 473 113 613 c 1,19,20
 69 624 69 624 30 639 c 1,21,22
 36 691 36 691 38 700 c 1,23,-1
 303 700 l 2,24,25
 401 700 401 700 459.5 680 c 128,-1,26
 518 660 518 660 563 609 c 0,27,28
 635 525 635 525 635 365 c 0,0,1
245 306 m 1,29,-1
 244 97 l 1,30,-1
 315 97 l 2,31,32
 429 97 429 97 466.5 152 c 128,-1,33
 504 207 504 207 504 342 c 128,-1,34
 504 477 504 477 462 538.5 c 128,-1,35
 420 600 420 600 322 600 c 2,36,-1
 249 600 l 1,37,-1
 246 403 l 1,38,-1
 364 399 l 1,39,40
 371 381 371 381 371 359.5 c 128,-1,41
 371 338 371 338 366 313 c 1,42,43
 298 306 298 306 254 306 c 2,44,-1
 245 306 l 1,29,-1
EndSplineSet
EndChar

StartChar: Ntilde
Encoding: 209 209 146
Width: 785
GlyphClass: 2
Flags: W
LayerCount: 2
Fore
SplineSet
710 611 m 1,0,-1
 707 0 l 1,1,-1
 579 0 l 1,2,-1
 249 538 l 1,3,4
 245 245 245 245 244 96 c 1,5,-1
 313 87 l 1,6,7
 313 46 313 46 290 0 c 1,8,-1
 47 0 l 1,9,-1
 38 55 l 1,10,11
 94 78 94 78 122 84 c 1,12,13
 122 87 122 87 113 613 c 1,14,-1
 30 639 l 1,15,-1
 38 700 l 1,16,-1
 298 700 l 1,17,-1
 589 178 l 1,18,-1
 574 613 l 1,19,-1
 491 639 l 1,20,-1
 499 700 l 1,21,-1
 759 700 l 2,22,23
 758 700 758 700 759.5 698 c 128,-1,24
 761 696 761 696 763.5 689.5 c 128,-1,25
 766 683 766 683 769 674 c 0,26,27
 775 658 775 658 777 621 c 1,28,29
 726 613 726 613 710 611 c 1,0,-1
251 757 m 1,30,31
 232 782 232 782 219 810 c 1,32,33
 237 835 237 835 310 890 c 0,34,35
 329 904 329 904 347 904 c 128,-1,36
 365 904 365 904 410 884 c 128,-1,37
 455 864 455 864 472 860 c 1,38,39
 560 902 560 902 561 903 c 1,40,41
 585 869 585 869 594 850 c 1,42,43
 566 809 566 809 501 767 c 0,44,45
 481 753 481 753 466 753 c 1,46,47
 443 760 443 760 404 776.5 c 128,-1,48
 365 793 365 793 345 798 c 1,49,50
 330 789 330 789 298 776.5 c 128,-1,51
 266 764 266 764 251 757 c 1,30,31
EndSplineSet
EndChar

StartChar: Ograve
Encoding: 210 210 147
Width: 647
GlyphClass: 2
Flags: W
LayerCount: 2
Fore
SplineSet
330 94 m 0,0,1
 496 94 496 94 496 349 c 128,-1,2
 496 604 496 604 330 604 c 0,3,4
 258 604 258 604 204 582 c 1,5,6
 158 486 158 486 158 359.5 c 128,-1,7
 158 233 158 233 196 163.5 c 128,-1,8
 234 94 234 94 330 94 c 0,0,1
330 712 m 0,9,10
 497 712 497 712 565 624.5 c 128,-1,11
 633 537 633 537 633 357 c 0,12,13
 633 244 633 244 604 164 c 128,-1,14
 575 84 575 84 506 36 c 128,-1,15
 437 -12 437 -12 330 -12 c 0,16,17
 167 -12 167 -12 93.5 79 c 128,-1,18
 20 170 20 170 20 344 c 0,19,20
 20 712 20 712 330 712 c 0,9,10
255 939 m 1,21,-1
 413 808 l 1,22,23
 385 772 385 772 351 745 c 1,24,25
 250 795 250 795 192 852 c 1,26,27
 194 870 194 870 209.5 891.5 c 128,-1,28
 225 913 225 913 255 939 c 1,21,-1
EndSplineSet
EndChar

StartChar: Otilde
Encoding: 213 213 150
Width: 647
GlyphClass: 2
Flags: W
LayerCount: 2
Fore
SplineSet
330 94 m 0,0,1
 496 94 496 94 496 349 c 128,-1,2
 496 604 496 604 330 604 c 0,3,4
 258 604 258 604 204 582 c 1,5,6
 158 486 158 486 158 359.5 c 128,-1,7
 158 233 158 233 196 163.5 c 128,-1,8
 234 94 234 94 330 94 c 0,0,1
330 712 m 0,9,10
 497 712 497 712 565 624.5 c 128,-1,11
 633 537 633 537 633 357 c 0,12,13
 633 244 633 244 604 164 c 128,-1,14
 575 84 575 84 506 36 c 128,-1,15
 437 -12 437 -12 330 -12 c 0,16,17
 167 -12 167 -12 93.5 79 c 128,-1,18
 20 170 20 170 20 344 c 0,19,20
 20 712 20 712 330 712 c 0,9,10
190 757 m 1,21,22
 171 782 171 782 158 810 c 1,23,24
 176 835 176 835 249 890 c 0,25,26
 268 904 268 904 286 904 c 128,-1,27
 304 904 304 904 349 884 c 128,-1,28
 394 864 394 864 411 860 c 1,29,30
 499 902 499 902 500 903 c 1,31,32
 524 869 524 869 533 850 c 1,33,34
 505 809 505 809 440 767 c 0,35,36
 420 753 420 753 405 753 c 1,37,38
 382 760 382 760 343 776.5 c 128,-1,39
 304 793 304 793 284 798 c 1,40,41
 269 789 269 789 237 776.5 c 128,-1,42
 205 764 205 764 190 757 c 1,21,22
EndSplineSet
EndChar

StartChar: Odieresis
Encoding: 214 214 151
Width: 647
GlyphClass: 2
Flags: W
LayerCount: 2
Fore
SplineSet
330 94 m 0,0,1
 496 94 496 94 496 349 c 128,-1,2
 496 604 496 604 330 604 c 0,3,4
 258 604 258 604 204 582 c 1,5,6
 158 486 158 486 158 359.5 c 128,-1,7
 158 233 158 233 196 163.5 c 128,-1,8
 234 94 234 94 330 94 c 0,0,1
330 712 m 0,9,10
 497 712 497 712 565 624.5 c 128,-1,11
 633 537 633 537 633 357 c 0,12,13
 633 244 633 244 604 164 c 128,-1,14
 575 84 575 84 506 36 c 128,-1,15
 437 -12 437 -12 330 -12 c 0,16,17
 167 -12 167 -12 93.5 79 c 128,-1,18
 20 170 20 170 20 344 c 0,19,20
 20 712 20 712 330 712 c 0,9,10
300 875 m 1,21,22
 308 841 308 841 308 820.5 c 128,-1,23
 308 800 308 800 305 773 c 1,24,25
 275 765 275 765 249.5 765 c 128,-1,26
 224 765 224 765 191 768 c 1,27,28
 183 802 183 802 183 822.5 c 128,-1,29
 183 843 183 843 186 870 c 1,30,31
 216 878 216 878 241.5 878 c 128,-1,32
 267 878 267 878 300 875 c 1,21,22
463 875 m 1,33,34
 471 841 471 841 471 820.5 c 128,-1,35
 471 800 471 800 468 773 c 1,36,37
 438 765 438 765 412.5 765 c 128,-1,38
 387 765 387 765 354 768 c 1,39,40
 346 802 346 802 346 822.5 c 128,-1,41
 346 843 346 843 349 870 c 1,42,43
 379 878 379 878 404.5 878 c 128,-1,44
 430 878 430 878 463 875 c 1,33,34
EndSplineSet
EndChar

StartChar: multiply
Encoding: 215 215 152
Width: 526
GlyphClass: 2
Flags: W
LayerCount: 2
Fore
SplineSet
416 475 m 1,0,1
 458 449 458 449 488 411 c 1,2,3
 449 352 449 352 407 310 c 2,4,-1
 354 258 l 1,5,-1
 491 111 l 1,6,7
 469 79 469 79 425 45 c 1,8,9
 347 101 347 101 274 179 c 1,10,-1
 132 41 l 1,11,12
 94 67 94 67 64 107 c 1,13,14
 102 166 102 166 145 208 c 0,15,16
 149 211 149 211 155 217.5 c 128,-1,17
 161 224 161 224 173 235.5 c 128,-1,18
 185 247 185 247 197 259 c 1,19,-1
 60 406 l 1,20,21
 78 436 78 436 126 472 c 1,22,23
 208 411 208 411 277 338 c 1,24,-1
 416 475 l 1,0,1
EndSplineSet
EndChar

StartChar: Oslash
Encoding: 216 216 153
Width: 647
GlyphClass: 2
Flags: W
LayerCount: 2
Fore
SplineSet
330 712 m 0,0,1
 372 712 372 712 407 706 c 1,2,-1
 440 799 l 1,3,4
 471 796 471 796 523 769 c 1,5,-1
 491 682 l 1,6,7
 567 646 567 646 600 565.5 c 128,-1,8
 633 485 633 485 633 364.5 c 128,-1,9
 633 244 633 244 604 164 c 128,-1,10
 575 84 575 84 506 36 c 128,-1,11
 437 -12 437 -12 330 -12 c 0,12,13
 280 -12 280 -12 238 -3 c 1,14,-1
 203 -99 l 1,15,16
 175 -96 175 -96 162.5 -91 c 128,-1,17
 150 -86 150 -86 132 -72 c 1,18,-1
 165 22 l 1,19,20
 20 97 20 97 20 344 c 0,21,22
 20 712 20 712 330 712 c 0,0,1
330 90 m 0,23,24
 500 90 500 90 500 346 c 0,25,26
 500 492 500 492 445 558 c 1,27,-1
 275 97 l 1,28,29
 297 90 297 90 330 90 c 0,23,24
200 582 m 1,30,31
 154 486 154 486 154 345.5 c 128,-1,32
 154 205 154 205 207 141 c 1,33,-1
 371 603 l 1,34,35
 349 608 349 608 330 608 c 0,36,37
 255 608 255 608 200 582 c 1,30,31
EndSplineSet
EndChar

StartChar: Uacute
Encoding: 218 218 155
Width: 754
GlyphClass: 2
Flags: W
LayerCount: 2
Fore
SplineSet
574 363 m 2,0,-1
 570 613 l 1,1,-1
 487 639 l 1,2,-1
 495 700 l 1,3,-1
 755 700 l 2,4,5
 754 700 754 700 755.5 698 c 128,-1,6
 757 696 757 696 759.5 689.5 c 128,-1,7
 762 683 762 683 765 674 c 0,8,9
 771 658 771 658 773 621 c 1,10,11
 722 613 722 613 706 611 c 1,12,-1
 704 357 l 2,13,14
 702 166 702 166 634.5 77 c 128,-1,15
 567 -12 567 -12 404 -12 c 128,-1,16
 241 -12 241 -12 177 71 c 128,-1,17
 113 154 113 154 111 339.5 c 128,-1,18
 109 525 109 525 107 613 c 1,19,-1
 24 639 l 1,20,-1
 32 700 l 1,21,-1
 292 700 l 2,22,23
 291 700 291 700 292.5 698 c 128,-1,24
 294 696 294 696 296.5 689.5 c 128,-1,25
 299 683 299 683 302 674 c 0,26,27
 308 658 308 658 310 621 c 1,28,29
 259 613 259 613 243 611 c 1,30,-1
 240 357 l 1,31,32
 240 246 240 246 252 199.5 c 128,-1,33
 264 153 264 153 282 134 c 0,34,35
 321 94 321 94 406 94 c 0,36,37
 488 94 488 94 530 140 c 0,38,39
 564 177 564 177 571 270 c 0,40,41
 574 307 574 307 574 363 c 2,0,-1
330 808 m 1,42,-1
 488 939 l 1,43,44
 547 892 547 892 551 852 c 1,45,46
 525 827 525 827 485.5 800 c 128,-1,47
 446 773 446 773 392 745 c 1,48,49
 360 769 360 769 330 808 c 1,42,-1
EndSplineSet
EndChar

StartChar: Ucircumflex
Encoding: 219 219 156
Width: 754
GlyphClass: 2
Flags: W
LayerCount: 2
Fore
SplineSet
574 363 m 2,0,-1
 570 613 l 1,1,-1
 487 639 l 1,2,-1
 495 700 l 1,3,-1
 755 700 l 2,4,5
 754 700 754 700 755.5 698 c 128,-1,6
 757 696 757 696 759.5 689.5 c 128,-1,7
 762 683 762 683 765 674 c 0,8,9
 771 658 771 658 773 621 c 1,10,11
 722 613 722 613 706 611 c 1,12,-1
 704 357 l 2,13,14
 702 166 702 166 634.5 77 c 128,-1,15
 567 -12 567 -12 404 -12 c 128,-1,16
 241 -12 241 -12 177 71 c 128,-1,17
 113 154 113 154 111 339.5 c 128,-1,18
 109 525 109 525 107 613 c 1,19,-1
 24 639 l 1,20,-1
 32 700 l 1,21,-1
 292 700 l 2,22,23
 291 700 291 700 292.5 698 c 128,-1,24
 294 696 294 696 296.5 689.5 c 128,-1,25
 299 683 299 683 302 674 c 0,26,27
 308 658 308 658 310 621 c 1,28,29
 259 613 259 613 243 611 c 1,30,-1
 240 357 l 1,31,32
 240 246 240 246 252 199.5 c 128,-1,33
 264 153 264 153 282 134 c 0,34,35
 321 94 321 94 406 94 c 0,36,37
 488 94 488 94 530 140 c 0,38,39
 564 177 564 177 571 270 c 0,40,41
 574 307 574 307 574 363 c 2,0,-1
494 747 m 1,42,43
 421 784 421 784 389 808 c 1,44,45
 371 794 371 794 284 747 c 1,46,47
 246 783 246 783 231 807 c 1,48,-1
 389 938 l 1,49,-1
 548 807 l 1,50,51
 534 785 534 785 494 747 c 1,42,43
EndSplineSet
EndChar

StartChar: Thorn
Encoding: 222 222 159
Width: 579
GlyphClass: 2
Flags: W
LayerCount: 2
Fore
SplineSet
233 173 m 1,0,-1
 231 96 l 1,1,-1
 309 87 l 1,2,3
 309 48 309 48 286 0 c 1,4,-1
 37 0 l 1,5,-1
 28 55 l 1,6,7
 84 76 84 76 118 85 c 1,8,-1
 99 600 l 1,9,10
 53 605 53 605 20 615 c 1,11,12
 20 647 20 647 28 687 c 1,13,14
 92 703 92 703 222 703 c 0,15,16
 245 703 245 703 253 702 c 1,17,18
 253 652 253 652 240 611 c 1,19,-1
 237 536 l 1,20,21
 309 568 309 568 332 568 c 0,22,23
 441 568 441 568 497 520 c 128,-1,24
 553 472 553 472 553 349 c 0,25,26
 553 257 553 257 497.5 197.5 c 128,-1,27
 442 138 442 138 328 138 c 0,28,29
 294 138 294 138 233 173 c 1,0,-1
276.5 251 m 128,-1,31
 304 236 304 236 322.5 236 c 128,-1,32
 341 236 341 236 354.5 238.5 c 128,-1,33
 368 241 368 241 386 250 c 0,34,35
 425 269 425 269 425 344 c 0,36,37
 425 423 425 423 398 446 c 0,38,39
 378 464 378 464 347 464 c 0,40,41
 292 464 292 464 240 438 c 1,42,43
 235 306 235 306 235 280 c 1,44,30
 249 266 249 266 276.5 251 c 128,-1,31
EndSplineSet
EndChar

StartChar: germandbls
Encoding: 223 223 160
Width: 652
GlyphClass: 2
Flags: W
LayerCount: 2
Fore
SplineSet
345 749 m 0,0,1
 432 749 432 749 503 703 c 128,-1,2
 574 657 574 657 574 595 c 0,3,4
 574 562 574 562 559.5 534 c 128,-1,5
 545 506 545 506 530 492.5 c 128,-1,6
 515 479 515 479 495 464.5 c 128,-1,7
 475 450 475 450 468 444 c 128,-1,8
 461 438 461 438 453.5 425 c 128,-1,9
 446 412 446 412 446 397 c 128,-1,10
 446 382 446 382 458 367.5 c 128,-1,11
 470 353 470 353 482 345.5 c 128,-1,12
 494 338 494 338 523.5 322.5 c 128,-1,13
 553 307 553 307 568.5 297.5 c 128,-1,14
 584 288 584 288 608 268 c 0,15,16
 653 230 653 230 653 165 c 0,17,18
 653 -12 653 -12 444 -12 c 0,19,20
 384 -12 384 -12 326 10 c 1,21,22
 326 96 326 96 344 154 c 1,23,-1
 432 161 l 1,24,-1
 444 70 l 1,25,26
 473 70 473 70 497 92 c 128,-1,27
 521 114 521 114 521 146.5 c 128,-1,28
 521 179 521 179 502.5 194.5 c 128,-1,29
 484 210 484 210 452.5 226 c 128,-1,30
 421 242 421 242 409 248.5 c 128,-1,31
 397 255 397 255 375 270.5 c 128,-1,32
 353 286 353 286 343 300 c 0,33,34
 316 340 316 340 316 378 c 128,-1,35
 316 416 316 416 328 441 c 128,-1,36
 340 466 340 466 354 480 c 128,-1,37
 368 494 368 494 388 508.5 c 128,-1,38
 408 523 408 523 416 531 c 0,39,40
 441 554 441 554 441 585 c 128,-1,41
 441 616 441 616 407 630 c 128,-1,42
 373 644 373 644 339 644 c 0,43,44
 239 644 239 644 236 494 c 0,45,46
 230 99 230 99 230 97 c 1,47,-1
 309 91 l 1,48,49
 309 46 309 46 286 0 c 1,50,-1
 33 0 l 1,51,-1
 25 55 l 1,52,53
 72 77 72 77 113 84 c 1,54,55
 113 86 113 86 107 418 c 1,56,-1
 36 418 l 1,57,-1
 34 475 l 1,58,59
 62 490 62 490 108 502 c 1,60,61
 116 612 116 612 176 680.5 c 128,-1,62
 236 749 236 749 345 749 c 0,0,1
EndSplineSet
EndChar

StartChar: aacute
Encoding: 225 225 162
Width: 539
GlyphClass: 2
Flags: W
LayerCount: 2
Fore
SplineSet
219 -12 m 0,0,1
 134 -12 134 -12 87.5 23 c 128,-1,2
 41 58 41 58 41 141 c 0,3,4
 41 220 41 220 96 270 c 0,5,6
 128 299 128 299 185 304 c 128,-1,7
 242 309 242 309 342 309 c 1,8,-1
 342 325 l 2,9,10
 342 386 342 386 322.5 414.5 c 128,-1,11
 303 443 303 443 254 443 c 0,12,13
 229 443 229 443 209 433 c 1,14,-1
 185 346 l 1,15,-1
 111 348 l 1,16,17
 86 386 86 386 84 469 c 1,18,19
 104 479 104 479 178 499.5 c 128,-1,20
 252 520 252 520 273 520 c 0,21,22
 381 520 381 520 430 475.5 c 128,-1,23
 479 431 479 431 479 334.5 c 128,-1,24
 479 238 479 238 470 80 c 1,25,26
 527 75 527 75 558 63 c 1,27,28
 559 51 559 51 559 34 c 2,29,-1
 558 12 l 1,30,31
 486 -12 486 -12 413 -12 c 0,32,33
 394 -12 394 -12 385 -11 c 1,34,35
 370 19 370 19 367 61 c 1,36,-1
 362 61 l 1,37,38
 343 43 343 43 295.5 15.5 c 128,-1,39
 248 -12 248 -12 219 -12 c 0,0,1
189.5 86.5 m 128,-1,41
 210 71 210 71 236 71 c 128,-1,42
 262 71 262 71 298 94.5 c 128,-1,43
 334 118 334 118 356 137 c 1,44,-1
 351 229 l 1,45,46
 272 225 272 225 232 214 c 1,47,48
 169 201 169 201 169 135 c 0,49,40
 169 102 169 102 189.5 86.5 c 128,-1,41
205 616 m 1,50,-1
 363 747 l 1,51,52
 422 700 422 700 426 660 c 1,53,54
 400 635 400 635 360.5 608 c 128,-1,55
 321 581 321 581 267 553 c 1,56,57
 235 577 235 577 205 616 c 1,50,-1
EndSplineSet
EndChar

StartChar: aring
Encoding: 229 229 166
Width: 539
GlyphClass: 2
Flags: W
LayerCount: 2
Fore
SplineSet
219 -12 m 0,0,1
 134 -12 134 -12 87.5 23 c 128,-1,2
 41 58 41 58 41 141 c 0,3,4
 41 220 41 220 96 270 c 0,5,6
 128 299 128 299 185 304 c 128,-1,7
 242 309 242 309 342 309 c 1,8,-1
 342 325 l 2,9,10
 342 386 342 386 322.5 414.5 c 128,-1,11
 303 443 303 443 254 443 c 0,12,13
 229 443 229 443 209 433 c 1,14,-1
 185 346 l 1,15,-1
 111 348 l 1,16,17
 86 386 86 386 84 469 c 1,18,19
 104 479 104 479 178 499.5 c 128,-1,20
 252 520 252 520 273 520 c 0,21,22
 381 520 381 520 430 475.5 c 128,-1,23
 479 431 479 431 479 334.5 c 128,-1,24
 479 238 479 238 470 80 c 1,25,26
 527 75 527 75 558 63 c 1,27,28
 559 51 559 51 559 34 c 2,29,-1
 558 12 l 1,30,31
 486 -12 486 -12 413 -12 c 0,32,33
 394 -12 394 -12 385 -11 c 1,34,35
 370 19 370 19 367 61 c 1,36,-1
 362 61 l 1,37,38
 343 43 343 43 295.5 15.5 c 128,-1,39
 248 -12 248 -12 219 -12 c 0,0,1
189.5 86.5 m 128,-1,41
 210 71 210 71 236 71 c 128,-1,42
 262 71 262 71 298 94.5 c 128,-1,43
 334 118 334 118 356 137 c 1,44,-1
 351 229 l 1,45,46
 272 225 272 225 232 214 c 1,47,48
 169 201 169 201 169 135 c 0,49,40
 169 102 169 102 189.5 86.5 c 128,-1,41
246 719.5 m 128,-1,51
 235 707 235 707 235 685.5 c 128,-1,52
 235 664 235 664 246 652 c 128,-1,53
 257 640 257 640 275.5 640 c 128,-1,54
 294 640 294 640 305 652 c 128,-1,55
 316 664 316 664 316 685.5 c 128,-1,56
 316 707 316 707 305 719.5 c 128,-1,57
 294 732 294 732 275.5 732 c 128,-1,50
 257 732 257 732 246 719.5 c 128,-1,51
367.5 771 m 128,-1,59
 406 739 406 739 406 684.5 c 128,-1,60
 406 630 406 630 368 600.5 c 128,-1,61
 330 571 330 571 276 571 c 128,-1,62
 222 571 222 571 183 601 c 128,-1,63
 144 631 144 631 144 685 c 128,-1,64
 144 739 144 739 183.5 771 c 128,-1,65
 223 803 223 803 276 803 c 128,-1,58
 329 803 329 803 367.5 771 c 128,-1,59
EndSplineSet
EndChar

StartChar: ae
Encoding: 230 230 167
Width: 826
GlyphClass: 2
Flags: W
LayerCount: 2
Fore
SplineSet
584 -12 m 0,0,1
 456 -12 456 -12 391 74 c 1,2,3
 367 50 367 50 309 19 c 128,-1,4
 251 -12 251 -12 219 -12 c 0,5,6
 45 -12 45 -12 45 141 c 0,7,8
 45 223 45 223 98 270 c 0,9,10
 129 297 129 297 177 303 c 128,-1,11
 225 309 225 309 346 309 c 1,12,-1
 346 330 l 2,13,14
 346 388 346 388 325 415.5 c 128,-1,15
 304 443 304 443 258 443 c 0,16,17
 235 443 235 443 213 433 c 1,18,-1
 189 347 l 1,19,20
 130 347 130 347 115 348 c 1,21,22
 89 387 89 387 88 469 c 1,23,24
 109 479 109 479 180 499.5 c 128,-1,25
 251 520 251 520 271 520 c 0,26,27
 381 520 381 520 419 478 c 1,28,29
 478 528 478 528 577 528 c 128,-1,30
 676 528 676 528 728.5 462.5 c 128,-1,31
 781 397 781 397 781 294 c 0,32,33
 781 281 781 281 780 276 c 1,34,35
 771 259 771 259 758 245 c 1,36,37
 565 249 565 249 471 250 c 1,38,39
 473 180 473 180 499 132.5 c 128,-1,40
 525 85 525 85 579 85 c 128,-1,41
 633 85 633 85 733 133 c 1,42,43
 752 109 752 109 766 59 c 1,44,45
 640 -12 640 -12 584 -12 c 0,0,1
193.5 86.5 m 128,-1,47
 214 71 214 71 240 71 c 128,-1,48
 266 71 266 71 302 94.5 c 128,-1,49
 338 118 338 118 360 137 c 1,50,-1
 355 229 l 1,51,52
 276 225 276 225 236 214 c 1,53,54
 173 201 173 201 173 135 c 0,55,46
 173 102 173 102 193.5 86.5 c 128,-1,47
575 437 m 0,56,57
 537 437 537 437 504 422 c 1,58,59
 481 374 481 374 475 333 c 1,60,61
 553 336 553 336 652 337 c 1,62,63
 647 437 647 437 575 437 c 0,56,57
EndSplineSet
EndChar

StartChar: ccedilla
Encoding: 231 231 168
Width: 475
GlyphClass: 2
Flags: W
LayerCount: 2
Fore
SplineSet
307 437 m 1,0,-1
 291 438 l 1,1,2
 235 438 235 438 201.5 399.5 c 128,-1,3
 168 361 168 361 168 270.5 c 128,-1,4
 168 180 168 180 193.5 133 c 128,-1,5
 219 86 219 86 292 86 c 0,6,7
 326 86 326 86 436 132 c 1,8,9
 461 97 461 97 463 59 c 1,10,11
 375 5 375 5 302 -10 c 1,12,-1
 298 -26 l 1,13,14
 369 -64 369 -64 369 -94 c 128,-1,15
 369 -124 369 -124 334 -160.5 c 128,-1,16
 299 -197 299 -197 254 -213 c 1,17,-1
 228 -182 l 1,18,19
 230 -177 230 -177 240 -158 c 0,20,21
 264 -114 264 -114 264 -101 c 0,22,23
 264 -95 264 -95 206 -72 c 1,24,25
 206 -49 206 -49 219 -8 c 1,26,27
 36 24 36 24 36 244 c 0,28,29
 36 520 36 520 285 520 c 0,30,31
 328 520 328 520 373.5 509.5 c 128,-1,32
 419 499 419 499 445 483 c 1,33,34
 442 383 442 383 423 338 c 1,35,36
 390 330 390 330 330 330 c 1,37,-1
 307 437 l 1,0,-1
EndSplineSet
EndChar

StartChar: egrave
Encoding: 232 232 169
Width: 512
GlyphClass: 2
Flags: W
LayerCount: 2
Fore
SplineSet
297 86 m 0,0,1
 331 86 331 86 435 133 c 1,2,3
 457 101 457 101 468 59 c 1,4,5
 413 25 413 25 360.5 6.5 c 128,-1,6
 308 -12 308 -12 286 -12 c 0,7,8
 165 -12 165 -12 102.5 55 c 128,-1,9
 40 122 40 122 40 245.5 c 128,-1,10
 40 369 40 369 102 444.5 c 128,-1,11
 164 520 164 520 286 520 c 0,12,13
 383 520 383 520 434 457 c 128,-1,14
 485 394 485 394 485 293 c 0,15,16
 485 272 485 272 461 245 c 1,17,-1
 173 250 l 1,18,19
 175 170 175 170 203 128 c 128,-1,20
 231 86 231 86 297 86 c 0,0,1
277 437 m 0,21,22
 239 437 239 437 206 422 c 1,23,24
 183 374 183 374 177 333 c 1,25,26
 255 336 255 336 354 337 c 1,27,28
 349 437 349 437 277 437 c 0,21,22
189 747 m 1,29,-1
 347 616 l 1,30,31
 319 580 319 580 285 553 c 1,32,33
 184 603 184 603 126 660 c 1,34,35
 128 678 128 678 143.5 699.5 c 128,-1,36
 159 721 159 721 189 747 c 1,29,-1
EndSplineSet
EndChar

StartChar: eacute
Encoding: 233 233 170
Width: 512
GlyphClass: 2
Flags: W
LayerCount: 2
Fore
SplineSet
297 86 m 0,0,1
 331 86 331 86 435 133 c 1,2,3
 457 101 457 101 468 59 c 1,4,5
 413 25 413 25 360.5 6.5 c 128,-1,6
 308 -12 308 -12 286 -12 c 0,7,8
 165 -12 165 -12 102.5 55 c 128,-1,9
 40 122 40 122 40 245.5 c 128,-1,10
 40 369 40 369 102 444.5 c 128,-1,11
 164 520 164 520 286 520 c 0,12,13
 383 520 383 520 434 457 c 128,-1,14
 485 394 485 394 485 293 c 0,15,16
 485 272 485 272 461 245 c 1,17,-1
 173 250 l 1,18,19
 175 170 175 170 203 128 c 128,-1,20
 231 86 231 86 297 86 c 0,0,1
277 437 m 0,21,22
 239 437 239 437 206 422 c 1,23,24
 183 374 183 374 177 333 c 1,25,26
 255 336 255 336 354 337 c 1,27,28
 349 437 349 437 277 437 c 0,21,22
184 616 m 1,29,-1
 342 747 l 1,30,31
 401 700 401 700 405 660 c 1,32,33
 379 635 379 635 339.5 608 c 128,-1,34
 300 581 300 581 246 553 c 1,35,36
 214 577 214 577 184 616 c 1,29,-1
EndSplineSet
EndChar

StartChar: ecircumflex
Encoding: 234 234 171
Width: 512
GlyphClass: 2
Flags: W
LayerCount: 2
Fore
SplineSet
297 86 m 0,0,1
 331 86 331 86 435 133 c 1,2,3
 457 101 457 101 468 59 c 1,4,5
 413 25 413 25 360.5 6.5 c 128,-1,6
 308 -12 308 -12 286 -12 c 0,7,8
 165 -12 165 -12 102.5 55 c 128,-1,9
 40 122 40 122 40 245.5 c 128,-1,10
 40 369 40 369 102 444.5 c 128,-1,11
 164 520 164 520 286 520 c 0,12,13
 383 520 383 520 434 457 c 128,-1,14
 485 394 485 394 485 293 c 0,15,16
 485 272 485 272 461 245 c 1,17,-1
 173 250 l 1,18,19
 175 170 175 170 203 128 c 128,-1,20
 231 86 231 86 297 86 c 0,0,1
277 437 m 0,21,22
 239 437 239 437 206 422 c 1,23,24
 183 374 183 374 177 333 c 1,25,26
 255 336 255 336 354 337 c 1,27,28
 349 437 349 437 277 437 c 0,21,22
366 555 m 1,29,30
 293 592 293 592 261 616 c 1,31,32
 243 602 243 602 156 555 c 1,33,34
 118 591 118 591 103 615 c 1,35,-1
 261 746 l 1,36,-1
 420 615 l 1,37,38
 406 593 406 593 366 555 c 1,29,30
EndSplineSet
EndChar

StartChar: edieresis
Encoding: 235 235 172
Width: 512
GlyphClass: 2
Flags: W
LayerCount: 2
Fore
SplineSet
297 86 m 0,0,1
 331 86 331 86 435 133 c 1,2,3
 457 101 457 101 468 59 c 1,4,5
 413 25 413 25 360.5 6.5 c 128,-1,6
 308 -12 308 -12 286 -12 c 0,7,8
 165 -12 165 -12 102.5 55 c 128,-1,9
 40 122 40 122 40 245.5 c 128,-1,10
 40 369 40 369 102 444.5 c 128,-1,11
 164 520 164 520 286 520 c 0,12,13
 383 520 383 520 434 457 c 128,-1,14
 485 394 485 394 485 293 c 0,15,16
 485 272 485 272 461 245 c 1,17,-1
 173 250 l 1,18,19
 175 170 175 170 203 128 c 128,-1,20
 231 86 231 86 297 86 c 0,0,1
277 437 m 0,21,22
 239 437 239 437 206 422 c 1,23,24
 183 374 183 374 177 333 c 1,25,26
 255 336 255 336 354 337 c 1,27,28
 349 437 349 437 277 437 c 0,21,22
232 683 m 1,29,30
 240 649 240 649 240 628.5 c 128,-1,31
 240 608 240 608 237 581 c 1,32,33
 207 573 207 573 181.5 573 c 128,-1,34
 156 573 156 573 123 576 c 1,35,36
 115 610 115 610 115 630.5 c 128,-1,37
 115 651 115 651 118 678 c 1,38,39
 148 686 148 686 173.5 686 c 128,-1,40
 199 686 199 686 232 683 c 1,29,30
395 683 m 1,41,42
 403 649 403 649 403 628.5 c 128,-1,43
 403 608 403 608 400 581 c 1,44,45
 370 573 370 573 344.5 573 c 128,-1,46
 319 573 319 573 286 576 c 1,47,48
 278 610 278 610 278 630.5 c 128,-1,49
 278 651 278 651 281 678 c 1,50,51
 311 686 311 686 336.5 686 c 128,-1,52
 362 686 362 686 395 683 c 1,41,42
EndSplineSet
EndChar

StartChar: igrave
Encoding: 236 236 173
Width: 308
GlyphClass: 2
Flags: W
LayerCount: 2
Fore
SplineSet
83 747 m 1,0,-1
 241 616 l 1,1,2
 213 580 213 580 179 553 c 1,3,4
 78 603 78 603 20 660 c 1,5,6
 22 678 22 678 37.5 699.5 c 128,-1,7
 53 721 53 721 83 747 c 1,0,-1
239 512 m 0,8,9
 258 512 258 512 263 511 c 1,10,11
 263 462 263 462 246 420 c 1,12,13
 242 204 242 204 241 96 c 1,14,-1
 319 87 l 1,15,16
 319 46 319 46 296 0 c 1,17,-1
 47 0 l 1,18,-1
 38 55 l 1,19,20
 100 78 100 78 128 85 c 1,21,-1
 117 409 l 1,22,23
 58 415 58 415 30 424 c 1,24,25
 30 449 30 449 37 496 c 1,26,27
 96 512 96 512 239 512 c 0,8,9
EndSplineSet
EndChar

StartChar: iacute
Encoding: 237 237 174
Width: 308
GlyphClass: 2
Flags: W
LayerCount: 2
Fore
SplineSet
87 616 m 1,0,-1
 245 747 l 1,1,2
 304 700 304 700 308 660 c 1,3,4
 282 635 282 635 242.5 608 c 128,-1,5
 203 581 203 581 149 553 c 1,6,7
 117 577 117 577 87 616 c 1,0,-1
239 512 m 0,8,9
 258 512 258 512 263 511 c 1,10,11
 263 462 263 462 246 420 c 1,12,13
 242 204 242 204 241 96 c 1,14,-1
 319 87 l 1,15,16
 319 46 319 46 296 0 c 1,17,-1
 47 0 l 1,18,-1
 38 55 l 1,19,20
 100 78 100 78 128 85 c 1,21,-1
 117 409 l 1,22,23
 58 415 58 415 30 424 c 1,24,25
 30 449 30 449 37 496 c 1,26,27
 96 512 96 512 239 512 c 0,8,9
EndSplineSet
EndChar

StartChar: icircumflex
Encoding: 238 238 175
Width: 308
GlyphClass: 2
Flags: W
LayerCount: 2
Fore
SplineSet
283 555 m 1,0,1
 210 592 210 592 178 616 c 1,2,3
 160 602 160 602 73 555 c 1,4,5
 35 591 35 591 20 615 c 1,6,-1
 178 746 l 1,7,-1
 337 615 l 1,8,9
 323 593 323 593 283 555 c 1,0,1
239 512 m 0,10,11
 258 512 258 512 263 511 c 1,12,13
 263 462 263 462 246 420 c 1,14,15
 242 204 242 204 241 96 c 1,16,-1
 319 87 l 1,17,18
 319 46 319 46 296 0 c 1,19,-1
 47 0 l 1,20,-1
 38 55 l 1,21,22
 100 78 100 78 128 85 c 1,23,-1
 117 409 l 1,24,25
 58 415 58 415 30 424 c 1,26,27
 30 449 30 449 37 496 c 1,28,29
 96 512 96 512 239 512 c 0,10,11
EndSplineSet
EndChar

StartChar: idieresis
Encoding: 239 239 176
Width: 308
GlyphClass: 2
Flags: W
LayerCount: 2
Fore
SplineSet
132 683 m 1,0,1
 140 649 140 649 140 628.5 c 128,-1,2
 140 608 140 608 137 581 c 1,3,4
 107 573 107 573 81.5 573 c 128,-1,5
 56 573 56 573 23 576 c 1,6,7
 15 610 15 610 15 630.5 c 128,-1,8
 15 651 15 651 18 678 c 1,9,10
 48 686 48 686 73.5 686 c 128,-1,11
 99 686 99 686 132 683 c 1,0,1
295 683 m 1,12,13
 303 649 303 649 303 628.5 c 128,-1,14
 303 608 303 608 300 581 c 1,15,16
 270 573 270 573 244.5 573 c 128,-1,17
 219 573 219 573 186 576 c 1,18,19
 178 610 178 610 178 630.5 c 128,-1,20
 178 651 178 651 181 678 c 1,21,22
 211 686 211 686 236.5 686 c 128,-1,23
 262 686 262 686 295 683 c 1,12,13
239 512 m 0,24,25
 258 512 258 512 263 511 c 1,26,27
 263 462 263 462 246 420 c 1,28,29
 242 204 242 204 241 96 c 1,30,-1
 319 87 l 1,31,32
 319 46 319 46 296 0 c 1,33,-1
 47 0 l 1,34,-1
 38 55 l 1,35,36
 100 78 100 78 128 85 c 1,37,-1
 117 409 l 1,38,39
 58 415 58 415 30 424 c 1,40,41
 30 449 30 449 37 496 c 1,42,43
 96 512 96 512 239 512 c 0,24,25
EndSplineSet
EndChar

StartChar: eth
Encoding: 240 240 177
Width: 579
GlyphClass: 2
Flags: W
LayerCount: 2
Fore
SplineSet
528 334 m 0,0,1
 528 -12 528 -12 275 -12 c 0,2,3
 168 -12 168 -12 102 67 c 128,-1,4
 36 146 36 146 36 247 c 128,-1,5
 36 348 36 348 98.5 422.5 c 128,-1,6
 161 497 161 497 267 497 c 0,7,8
 311 497 311 497 380 465 c 1,9,10
 366 539 366 539 333 582 c 1,11,-1
 228 513 l 1,12,13
 196 545 196 545 175 585 c 1,14,15
 212 619 212 619 249 646 c 1,16,17
 202 663 202 663 133 669 c 1,18,19
 132 675 132 675 132 695.5 c 128,-1,20
 132 716 132 716 147 742 c 1,21,22
 249 742 249 742 329 702 c 1,23,-1
 427 765 l 1,24,25
 448 739 448 739 469 690 c 1,26,27
 446 664 446 664 414 639 c 1,28,29
 528 527 528 527 528 334 c 0,0,1
192.5 365.5 m 128,-1,31
 169 326 169 326 169 241.5 c 128,-1,32
 169 157 169 157 194.5 118 c 128,-1,33
 220 79 220 79 280 79 c 0,34,35
 397 79 397 79 397 336 c 0,36,37
 397 354 397 354 396 363 c 1,38,39
 318 405 318 405 267 405 c 128,-1,30
 216 405 216 405 192.5 365.5 c 128,-1,31
EndSplineSet
EndChar

StartChar: ntilde
Encoding: 241 241 178
Width: 616
GlyphClass: 2
Flags: W
LayerCount: 2
Fore
SplineSet
509 471 m 128,-1,1
 554 422 554 422 554 334 c 128,-1,2
 554 246 554 246 544 96 c 1,3,-1
 623 87 l 1,4,5
 623 46 623 46 600 0 c 1,6,-1
 351 0 l 1,7,-1
 342 55 l 1,8,9
 389 74 389 74 429 85 c 1,10,11
 426 200 426 200 423 278.5 c 128,-1,12
 420 357 420 357 408 385 c 128,-1,13
 396 413 396 413 355 413 c 0,14,15
 293 413 293 413 244 391 c 1,16,17
 243 348 243 348 238.5 250.5 c 128,-1,18
 234 153 234 153 233 96 c 1,19,-1
 311 87 l 1,20,21
 311 46 311 46 288 0 c 1,22,-1
 39 0 l 1,23,-1
 30 55 l 1,24,25
 80 74 80 74 120 85 c 1,26,27
 119 145 119 145 113.5 251 c 128,-1,28
 108 357 108 357 107 408 c 1,29,30
 70 412 70 412 28 423 c 1,31,-1
 33 495 l 1,32,33
 103 514 103 514 191 514 c 1,34,35
 202 507 202 507 221 471 c 1,36,37
 255 488 255 488 304 504 c 128,-1,38
 353 520 353 520 364 520 c 0,39,0
 464 520 464 520 509 471 c 128,-1,1
158 565 m 1,40,41
 139 589 139 589 126 618 c 1,42,43
 144 643 144 643 217 698 c 0,44,45
 236 712 236 712 254 712 c 128,-1,46
 272 712 272 712 317 692 c 128,-1,47
 362 672 362 672 379 668 c 1,48,49
 467 710 467 710 468 711 c 1,50,51
 492 677 492 677 501 658 c 1,52,53
 473 617 473 617 408 575 c 0,54,55
 388 561 388 561 373 561 c 1,56,57
 350 568 350 568 311 584.5 c 128,-1,58
 272 601 272 601 252 606 c 1,59,60
 237 597 237 597 205 584.5 c 128,-1,61
 173 572 173 572 158 565 c 1,40,41
EndSplineSet
EndChar

StartChar: divide
Encoding: 247 247 184
Width: 566
GlyphClass: 2
Flags: W
LayerCount: 2
Fore
SplineSet
354 127 m 1,0,1
 363 91 363 91 363 65.5 c 128,-1,2
 363 40 363 40 360 8 c 1,3,4
 326 -1 326 -1 295 -1 c 128,-1,5
 264 -1 264 -1 227 2 c 1,6,7
 217 42 217 42 217 60.5 c 128,-1,8
 217 79 217 79 221 121 c 1,9,10
 254 130 254 130 284.5 130 c 128,-1,11
 315 130 315 130 354 127 c 1,0,1
354 512 m 1,12,13
 363 476 363 476 363 450 c 128,-1,14
 363 424 363 424 360 393 c 1,15,16
 326 384 326 384 295 384 c 128,-1,17
 264 384 264 384 227 387 c 1,18,19
 217 427 217 427 217 445.5 c 128,-1,20
 217 464 217 464 221 506 c 1,21,22
 254 515 254 515 284.5 515 c 128,-1,23
 315 515 315 515 354 512 c 1,12,13
50 301 m 1,24,25
 128 315 128 315 171.5 315 c 128,-1,26
 215 315 215 315 364.5 312 c 128,-1,27
 514 309 514 309 530 308 c 1,28,29
 535 288 535 288 535 265 c 1,30,-1
 531 223 l 1,31,32
 453 208 453 208 398 208 c 1,33,-1
 51 215 l 1,34,35
 45 245 45 245 45 257 c 1,36,-1
 50 301 l 1,24,25
EndSplineSet
EndChar

StartChar: oslash
Encoding: 248 248 185
Width: 538
GlyphClass: 2
Flags: W
LayerCount: 2
Fore
SplineSet
555 249 m 0,0,1
 555 122 555 122 484 55 c 128,-1,2
 413 -12 413 -12 295 -12 c 0,3,4
 265 -12 265 -12 228 -5 c 1,5,-1
 190 -100 l 1,6,7
 141 -94 141 -94 119 -73 c 1,8,-1
 155 19 l 1,9,10
 36 83 36 83 36 249 c 0,11,12
 36 377 36 377 107 448.5 c 128,-1,13
 178 520 178 520 295 520 c 0,14,15
 313 520 313 520 347 516 c 1,16,-1
 387 617 l 1,17,18
 438 607 438 607 470 587 c 1,19,-1
 429 488 l 1,20,21
 488 456 488 456 521.5 395 c 128,-1,22
 555 334 555 334 555 249 c 0,0,1
389 113 m 128,-1,24
 418 153 418 153 418 249.5 c 128,-1,25
 418 346 418 346 391 393 c 1,26,-1
 261 76 l 1,27,28
 278 73 278 73 295 73 c 0,29,23
 360 73 360 73 389 113 c 128,-1,24
319 442 m 1,30,31
 303 444 303 444 290 444 c 0,32,33
 259 444 259 444 213 426 c 1,34,35
 209 419 209 419 202 406.5 c 128,-1,36
 195 394 195 394 184 348 c 128,-1,37
 173 302 173 302 173 233 c 128,-1,38
 173 164 173 164 195 123 c 1,39,-1
 319 442 l 1,30,31
EndSplineSet
EndChar

StartChar: ugrave
Encoding: 249 249 186
Width: 595
GlyphClass: 2
Flags: W
LayerCount: 2
Fore
SplineSet
509 512 m 0,0,1
 528 512 528 512 533 511 c 1,2,3
 533 460 533 460 516 423 c 1,4,5
 510 203 510 203 506 98 c 1,6,7
 551 94 551 94 585 83 c 1,8,-1
 583 13 l 1,9,10
 522 -6 522 -6 478 -6 c 128,-1,11
 434 -6 434 -6 418 -4 c 1,12,13
 406 20 406 20 398 44 c 1,14,15
 315 -12 315 -12 278 -12 c 0,16,17
 99 -12 99 -12 99 169 c 0,18,19
 99 218 99 218 107 410 c 1,20,21
 54 410 54 410 10 424 c 1,22,23
 10 449 10 449 17 496 c 1,24,25
 76 512 76 512 219 512 c 0,26,27
 238 512 238 512 243 511 c 1,28,29
 243 462 243 462 226 420 c 1,30,-1
 226 218 l 2,31,32
 226 154 226 154 239.5 124.5 c 128,-1,33
 253 95 253 95 297.5 95 c 128,-1,34
 342 95 342 95 389 126 c 1,35,-1
 383 410 l 1,36,37
 339 412 339 412 300 424 c 1,38,39
 300 449 300 449 307 496 c 1,40,41
 366 512 366 512 509 512 c 0,0,1
207 747 m 1,42,-1
 365 616 l 1,43,44
 337 580 337 580 303 553 c 1,45,46
 202 603 202 603 144 660 c 1,47,48
 146 678 146 678 161.5 699.5 c 128,-1,49
 177 721 177 721 207 747 c 1,42,-1
EndSplineSet
EndChar

StartChar: uacute
Encoding: 250 250 187
Width: 595
GlyphClass: 2
Flags: W
LayerCount: 2
Fore
SplineSet
509 512 m 0,0,1
 528 512 528 512 533 511 c 1,2,3
 533 460 533 460 516 423 c 1,4,5
 510 203 510 203 506 98 c 1,6,7
 551 94 551 94 585 83 c 1,8,-1
 583 13 l 1,9,10
 522 -6 522 -6 478 -6 c 128,-1,11
 434 -6 434 -6 418 -4 c 1,12,13
 406 20 406 20 398 44 c 1,14,15
 315 -12 315 -12 278 -12 c 0,16,17
 99 -12 99 -12 99 169 c 0,18,19
 99 218 99 218 107 410 c 1,20,21
 54 410 54 410 10 424 c 1,22,23
 10 449 10 449 17 496 c 1,24,25
 76 512 76 512 219 512 c 0,26,27
 238 512 238 512 243 511 c 1,28,29
 243 462 243 462 226 420 c 1,30,-1
 226 218 l 2,31,32
 226 154 226 154 239.5 124.5 c 128,-1,33
 253 95 253 95 297.5 95 c 128,-1,34
 342 95 342 95 389 126 c 1,35,-1
 383 410 l 1,36,37
 339 412 339 412 300 424 c 1,38,39
 300 449 300 449 307 496 c 1,40,41
 366 512 366 512 509 512 c 0,0,1
210 616 m 1,42,-1
 368 747 l 1,43,44
 427 700 427 700 431 660 c 1,45,46
 405 635 405 635 365.5 608 c 128,-1,47
 326 581 326 581 272 553 c 1,48,49
 240 577 240 577 210 616 c 1,42,-1
EndSplineSet
EndChar

StartChar: ucircumflex
Encoding: 251 251 188
Width: 595
GlyphClass: 2
Flags: W
LayerCount: 2
Fore
SplineSet
509 512 m 0,0,1
 528 512 528 512 533 511 c 1,2,3
 533 460 533 460 516 423 c 1,4,5
 510 203 510 203 506 98 c 1,6,7
 551 94 551 94 585 83 c 1,8,-1
 583 13 l 1,9,10
 522 -6 522 -6 478 -6 c 128,-1,11
 434 -6 434 -6 418 -4 c 1,12,13
 406 20 406 20 398 44 c 1,14,15
 315 -12 315 -12 278 -12 c 0,16,17
 99 -12 99 -12 99 169 c 0,18,19
 99 218 99 218 107 410 c 1,20,21
 54 410 54 410 10 424 c 1,22,23
 10 449 10 449 17 496 c 1,24,25
 76 512 76 512 219 512 c 0,26,27
 238 512 238 512 243 511 c 1,28,29
 243 462 243 462 226 420 c 1,30,-1
 226 218 l 2,31,32
 226 154 226 154 239.5 124.5 c 128,-1,33
 253 95 253 95 297.5 95 c 128,-1,34
 342 95 342 95 389 126 c 1,35,-1
 383 410 l 1,36,37
 339 412 339 412 300 424 c 1,38,39
 300 449 300 449 307 496 c 1,40,41
 366 512 366 512 509 512 c 0,0,1
392 555 m 1,42,43
 319 592 319 592 287 616 c 1,44,45
 269 602 269 602 182 555 c 1,46,47
 144 591 144 591 129 615 c 1,48,-1
 287 746 l 1,49,-1
 446 615 l 1,50,51
 432 593 432 593 392 555 c 1,42,43
EndSplineSet
EndChar

StartChar: udieresis
Encoding: 252 252 189
Width: 595
GlyphClass: 2
Flags: W
LayerCount: 2
Fore
SplineSet
509 512 m 0,0,1
 528 512 528 512 533 511 c 1,2,3
 533 460 533 460 516 423 c 1,4,5
 510 203 510 203 506 98 c 1,6,7
 551 94 551 94 585 83 c 1,8,-1
 583 13 l 1,9,10
 522 -6 522 -6 478 -6 c 128,-1,11
 434 -6 434 -6 418 -4 c 1,12,13
 406 20 406 20 398 44 c 1,14,15
 315 -12 315 -12 278 -12 c 0,16,17
 99 -12 99 -12 99 169 c 0,18,19
 99 218 99 218 107 410 c 1,20,21
 54 410 54 410 10 424 c 1,22,23
 10 449 10 449 17 496 c 1,24,25
 76 512 76 512 219 512 c 0,26,27
 238 512 238 512 243 511 c 1,28,29
 243 462 243 462 226 420 c 1,30,-1
 226 218 l 2,31,32
 226 154 226 154 239.5 124.5 c 128,-1,33
 253 95 253 95 297.5 95 c 128,-1,34
 342 95 342 95 389 126 c 1,35,-1
 383 410 l 1,36,37
 339 412 339 412 300 424 c 1,38,39
 300 449 300 449 307 496 c 1,40,41
 366 512 366 512 509 512 c 0,0,1
263 683 m 1,42,43
 271 649 271 649 271 628.5 c 128,-1,44
 271 608 271 608 268 581 c 1,45,46
 238 573 238 573 212.5 573 c 128,-1,47
 187 573 187 573 154 576 c 1,48,49
 146 610 146 610 146 630.5 c 128,-1,50
 146 651 146 651 149 678 c 1,51,52
 179 686 179 686 204.5 686 c 128,-1,53
 230 686 230 686 263 683 c 1,42,43
426 683 m 1,54,55
 434 649 434 649 434 628.5 c 128,-1,56
 434 608 434 608 431 581 c 1,57,58
 401 573 401 573 375.5 573 c 128,-1,59
 350 573 350 573 317 576 c 1,60,61
 309 610 309 610 309 630.5 c 128,-1,62
 309 651 309 651 312 678 c 1,63,64
 342 686 342 686 367.5 686 c 128,-1,65
 393 686 393 686 426 683 c 1,54,55
EndSplineSet
EndChar

StartChar: thorn
Encoding: 254 254 191
Width: 579
GlyphClass: 2
Flags: W
LayerCount: 2
Fore
SplineSet
332 528 m 0,0,1
 553 528 553 528 553 259 c 0,2,3
 553 165 553 165 502 82 c 0,4,5
 476 40 476 40 430.5 14 c 128,-1,6
 385 -12 385 -12 328 -12 c 0,7,8
 294 -12 294 -12 233 23 c 1,9,10
 231 -75 231 -75 231 -124 c 1,11,-1
 309 -133 l 1,12,13
 309 -172 309 -172 286 -220 c 1,14,-1
 37 -220 l 1,15,-1
 28 -165 l 1,16,17
 84 -144 84 -144 118 -135 c 1,18,19
 116 16 116 16 108 296 c 128,-1,20
 100 576 100 576 99 640 c 1,21,22
 53 645 53 645 20 655 c 1,23,24
 20 687 20 687 28 727 c 1,25,26
 92 743 92 743 222 743 c 0,27,28
 245 743 245 743 253 742 c 1,29,30
 253 692 253 692 240 651 c 1,31,32
 237 599 237 599 237 496 c 1,33,34
 309 528 309 528 332 528 c 0,0,1
326 424 m 0,35,36
 290 424 290 424 240 398 c 1,37,38
 235 176 235 176 235 130 c 1,39,40
 294 86 294 86 321 86 c 0,41,42
 369 86 369 86 397 131 c 128,-1,43
 425 176 425 176 425 254 c 0,44,45
 425 424 425 424 326 424 c 0,35,36
EndSplineSet
EndChar

StartChar: Amacron
Encoding: 256 256 193
Width: 739
GlyphClass: 2
Flags: W
LayerCount: 2
Fore
SplineSet
519 689 m 1,0,-1
 520 679 l 1,1,2
 520 638 520 638 507 609 c 1,3,4
 494 599 494 599 466 593 c 1,5,-1
 633 99 l 1,6,-1
 728 87 l 1,7,8
 728 46 728 46 705 0 c 1,9,-1
 462 0 l 1,10,-1
 453 55 l 1,11,12
 495 71 495 71 508 76 c 1,13,-1
 468 189 l 1,14,-1
 243 189 l 1,15,16
 213 100 213 100 211 96 c 1,17,-1
 280 87 l 1,18,19
 280 66 280 66 272 38.5 c 128,-1,20
 264 11 264 11 257 0 c 1,21,-1
 14 0 l 1,22,-1
 5 55 l 1,23,24
 50 74 50 74 86 83 c 1,25,-1
 254 597 l 1,26,27
 187 607 187 607 153 623 c 1,28,29
 153 652 153 652 162 674 c 1,30,31
 183 681 183 681 260.5 690.5 c 128,-1,32
 338 700 338 700 408.5 700 c 128,-1,33
 479 700 479 700 519 689 c 1,0,-1
390 414 m 1,34,-1
 361 546 l 1,35,-1
 351 546 l 1,36,-1
 319 408 l 1,37,-1
 272 283 l 1,38,-1
 439 283 l 1,39,-1
 390 414 l 1,34,-1
264 889 m 1,40,41
 333 896 333 896 385.5 896 c 128,-1,42
 438 896 438 896 512 889 c 1,43,44
 514 880 514 880 514 850 c 1,45,-1
 511 802 l 1,46,47
 442 796 442 796 398 796 c 1,48,-1
 265 801 l 1,49,50
 260 824 260 824 260 841 c 1,51,-1
 264 889 l 1,40,41
EndSplineSet
EndChar

StartChar: Abreve
Encoding: 258 258 195
Width: 739
GlyphClass: 2
Flags: W
LayerCount: 2
Fore
SplineSet
519 689 m 1,0,-1
 520 679 l 1,1,2
 520 638 520 638 507 609 c 1,3,4
 494 599 494 599 466 593 c 1,5,-1
 633 99 l 1,6,-1
 728 87 l 1,7,8
 728 46 728 46 705 0 c 1,9,-1
 462 0 l 1,10,-1
 453 55 l 1,11,12
 495 71 495 71 508 76 c 1,13,-1
 468 189 l 1,14,-1
 243 189 l 1,15,16
 213 100 213 100 211 96 c 1,17,-1
 280 87 l 1,18,19
 280 66 280 66 272 38.5 c 128,-1,20
 264 11 264 11 257 0 c 1,21,-1
 14 0 l 1,22,-1
 5 55 l 1,23,24
 50 74 50 74 86 83 c 1,25,-1
 254 597 l 1,26,27
 187 607 187 607 153 623 c 1,28,29
 153 652 153 652 162 674 c 1,30,31
 183 681 183 681 260.5 690.5 c 128,-1,32
 338 700 338 700 408.5 700 c 128,-1,33
 479 700 479 700 519 689 c 1,0,-1
390 414 m 1,34,-1
 361 546 l 1,35,-1
 351 546 l 1,36,-1
 319 408 l 1,37,-1
 272 283 l 1,38,-1
 439 283 l 1,39,-1
 390 414 l 1,34,-1
EndSplineSet
EndChar

StartChar: abreve
Encoding: 259 259 196
Width: 539
GlyphClass: 2
Flags: W
LayerCount: 2
Fore
SplineSet
219 -12 m 0,0,1
 134 -12 134 -12 87.5 23 c 128,-1,2
 41 58 41 58 41 141 c 0,3,4
 41 220 41 220 96 270 c 0,5,6
 128 299 128 299 185 304 c 128,-1,7
 242 309 242 309 342 309 c 1,8,-1
 342 325 l 2,9,10
 342 386 342 386 322.5 414.5 c 128,-1,11
 303 443 303 443 254 443 c 0,12,13
 229 443 229 443 209 433 c 1,14,-1
 185 346 l 1,15,-1
 111 348 l 1,16,17
 86 386 86 386 84 469 c 1,18,19
 104 479 104 479 178 499.5 c 128,-1,20
 252 520 252 520 273 520 c 0,21,22
 381 520 381 520 430 475.5 c 128,-1,23
 479 431 479 431 479 334.5 c 128,-1,24
 479 238 479 238 470 80 c 1,25,26
 527 75 527 75 558 63 c 1,27,28
 559 51 559 51 559 34 c 2,29,-1
 558 12 l 1,30,31
 486 -12 486 -12 413 -12 c 0,32,33
 394 -12 394 -12 385 -11 c 1,34,35
 370 19 370 19 367 61 c 1,36,-1
 362 61 l 1,37,38
 343 43 343 43 295.5 15.5 c 128,-1,39
 248 -12 248 -12 219 -12 c 0,0,1
189.5 86.5 m 128,-1,41
 210 71 210 71 236 71 c 128,-1,42
 262 71 262 71 298 94.5 c 128,-1,43
 334 118 334 118 356 137 c 1,44,-1
 351 229 l 1,45,46
 272 225 272 225 232 214 c 1,47,48
 169 201 169 201 169 135 c 0,49,40
 169 102 169 102 189.5 86.5 c 128,-1,41
425 737 m 1,50,51
 425 673 425 673 382 624 c 128,-1,52
 339 575 339 575 267.5 575 c 128,-1,53
 196 575 196 575 155.5 623.5 c 128,-1,54
 115 672 115 672 115 737 c 1,55,-1
 197 737 l 1,56,57
 197 709 197 709 214.5 688.5 c 128,-1,58
 232 668 232 668 269 668 c 0,59,60
 332 668 332 668 332 737 c 1,61,-1
 425 737 l 1,50,51
EndSplineSet
EndChar

StartChar: Emacron
Encoding: 274 274 197
Width: 595
GlyphClass: 2
Flags: W
LayerCount: 2
Fore
SplineSet
249 600 m 1,0,1
 249 486 249 486 247 404 c 1,2,-1
 349 404 l 1,3,-1
 359 473 l 1,4,5
 410 473 410 473 458 448 c 1,6,-1
 458 248 l 1,7,-1
 392 245 l 1,8,9
 368 281 368 281 364 308 c 1,10,-1
 246 308 l 1,11,12
 244 168 244 168 244 97 c 1,13,-1
 415 97 l 1,14,-1
 437 184 l 1,15,16
 499 184 499 184 531 178 c 1,17,18
 546 121 546 121 546 74.5 c 128,-1,19
 546 28 546 28 543 0 c 1,20,-1
 47 0 l 1,21,-1
 38 55 l 1,22,23
 103 80 103 80 122 84 c 1,24,25
 121 143 121 143 120 250 c 0,26,27
 116 490 116 490 113 613 c 1,28,-1
 30 639 l 1,29,-1
 38 700 l 1,30,-1
 529 700 l 1,31,32
 532 673 532 673 532 632.5 c 128,-1,33
 532 592 532 592 517 520 c 1,34,35
 486 510 486 510 423 510 c 1,36,-1
 400 600 l 1,37,-1
 249 600 l 1,0,1
191 889 m 1,38,39
 260 896 260 896 313 896 c 128,-1,40
 366 896 366 896 439 889 c 1,41,42
 441 880 441 880 441 850 c 1,43,-1
 438 802 l 1,44,45
 369 796 369 796 325 796 c 1,46,-1
 192 801 l 1,47,48
 187 824 187 824 187 841 c 1,49,-1
 191 889 l 1,38,39
EndSplineSet
EndChar

StartChar: emacron
Encoding: 275 275 198
Width: 512
GlyphClass: 2
Flags: W
LayerCount: 2
Fore
SplineSet
297 86 m 0,0,1
 331 86 331 86 435 133 c 1,2,3
 457 101 457 101 468 59 c 1,4,5
 413 25 413 25 360.5 6.5 c 128,-1,6
 308 -12 308 -12 286 -12 c 0,7,8
 165 -12 165 -12 102.5 55 c 128,-1,9
 40 122 40 122 40 245.5 c 128,-1,10
 40 369 40 369 102 444.5 c 128,-1,11
 164 520 164 520 286 520 c 0,12,13
 383 520 383 520 434 457 c 128,-1,14
 485 394 485 394 485 293 c 0,15,16
 485 272 485 272 461 245 c 1,17,-1
 173 250 l 1,18,19
 175 170 175 170 203 128 c 128,-1,20
 231 86 231 86 297 86 c 0,0,1
277 437 m 0,21,22
 239 437 239 437 206 422 c 1,23,24
 183 374 183 374 177 333 c 1,25,26
 255 336 255 336 354 337 c 1,27,28
 349 437 349 437 277 437 c 0,21,22
132 697 m 1,29,30
 201 704 201 704 253.5 704 c 128,-1,31
 306 704 306 704 380 697 c 1,32,33
 382 688 382 688 382 658 c 1,34,-1
 379 610 l 1,35,36
 310 604 310 604 266 604 c 1,37,-1
 133 609 l 1,38,39
 128 632 128 632 128 649 c 1,40,-1
 132 697 l 1,29,30
EndSplineSet
EndChar

StartChar: ebreve
Encoding: 277 277 200
Width: 508
GlyphClass: 2
Flags: W
LayerCount: 2
Fore
SplineSet
297 86 m 0,0,1
 331 86 331 86 435 133 c 1,2,3
 457 101 457 101 468 59 c 1,4,5
 413 25 413 25 360.5 6.5 c 128,-1,6
 308 -12 308 -12 286 -12 c 0,7,8
 165 -12 165 -12 102.5 55 c 128,-1,9
 40 122 40 122 40 245.5 c 128,-1,10
 40 369 40 369 102 444.5 c 128,-1,11
 164 520 164 520 286 520 c 0,12,13
 383 520 383 520 434 457 c 128,-1,14
 485 394 485 394 485 293 c 0,15,16
 485 272 485 272 461 245 c 1,17,-1
 173 250 l 1,18,19
 175 170 175 170 203 128 c 128,-1,20
 231 86 231 86 297 86 c 0,0,1
277 437 m 0,21,22
 239 437 239 437 206 422 c 1,23,24
 183 374 183 374 177 333 c 1,25,26
 255 336 255 336 354 337 c 1,27,28
 349 437 349 437 277 437 c 0,21,22
418 737 m 1,29,30
 418 673 418 673 375 624 c 128,-1,31
 332 575 332 575 260.5 575 c 128,-1,32
 189 575 189 575 148.5 623.5 c 128,-1,33
 108 672 108 672 108 737 c 1,34,-1
 190 737 l 1,35,36
 190 709 190 709 207.5 688.5 c 128,-1,37
 225 668 225 668 262 668 c 0,38,39
 325 668 325 668 325 737 c 1,40,-1
 418 737 l 1,29,30
EndSplineSet
EndChar

StartChar: Gbreve
Encoding: 286 286 201
Width: 676
GlyphClass: 2
Flags: W
LayerCount: 2
Fore
SplineSet
318 -13 m 0,0,1
 182 -13 182 -13 101 79 c 128,-1,2
 20 171 20 171 20 351 c 128,-1,3
 20 531 20 531 90.5 621.5 c 128,-1,4
 161 712 161 712 319 712 c 0,5,6
 386 712 386 712 447.5 694 c 128,-1,7
 509 676 509 676 531 663.5 c 128,-1,8
 553 651 553 651 566 641 c 1,9,10
 566 577 566 577 550 499 c 1,11,12
 524 487 524 487 498.5 487 c 128,-1,13
 473 487 473 487 455 489 c 1,14,-1
 434 593 l 1,15,16
 390 605 390 605 348 605 c 0,17,18
 289 605 289 605 201 581 c 1,19,20
 157 493 157 493 157 367 c 0,21,22
 157 91 157 91 319 91 c 0,23,24
 400 91 400 91 448 118 c 1,25,26
 450 170 450 170 452 278 c 1,27,-1
 368 304 l 1,28,-1
 376 365 l 1,29,-1
 618 365 l 1,30,31
 630 343 630 343 636 286 c 1,32,33
 602 279 602 279 563 276 c 1,34,35
 569 147 569 147 569 54 c 1,36,37
 540 35 540 35 464 11 c 128,-1,38
 388 -13 388 -13 318 -13 c 0,0,1
480 928 m 1,39,40
 480 864 480 864 437 815 c 128,-1,41
 394 766 394 766 322.5 766 c 128,-1,42
 251 766 251 766 210.5 814.5 c 128,-1,43
 170 863 170 863 170 928 c 1,44,-1
 252 928 l 1,45,46
 252 900 252 900 269.5 879.5 c 128,-1,47
 287 859 287 859 324 859 c 0,48,49
 387 859 387 859 387 928 c 1,50,-1
 480 928 l 1,39,40
EndSplineSet
EndChar

StartChar: gbreve
Encoding: 287 287 202
Width: 578
GlyphClass: 2
Flags: W
LayerCount: 2
Fore
SplineSet
364 142.5 m 128,-1,1
 327 133 327 133 292.5 133 c 128,-1,2
 258 133 258 133 232 140 c 1,3,4
 221 114 221 114 211 101 c 1,5,6
 219 89 219 89 379 89 c 0,7,8
 479 89 479 89 520 58 c 1,9,10
 539 45 539 45 553.5 17 c 128,-1,11
 568 -11 568 -11 568 -55.5 c 128,-1,12
 568 -100 568 -100 524 -145 c 128,-1,13
 480 -190 480 -190 414 -216 c 128,-1,14
 348 -242 348 -242 283 -242 c 0,15,16
 175 -242 175 -242 108 -199.5 c 128,-1,17
 41 -157 41 -157 41 -94 c 0,18,19
 41 -82 41 -82 76 -35.5 c 128,-1,20
 111 11 111 11 122 18 c 1,21,22
 112 23 112 23 87 51.5 c 128,-1,23
 62 80 62 80 59 92 c 1,24,25
 72 128 72 128 139 182 c 1,26,27
 61 229 61 229 61 340 c 0,28,29
 61 428 61 428 121.5 474 c 128,-1,30
 182 520 182 520 281.5 520 c 128,-1,31
 381 520 381 520 432 493 c 1,32,33
 517 508 517 508 552.5 508 c 128,-1,34
 588 508 588 508 599 507 c 1,35,36
 599 483 599 483 587.5 452.5 c 128,-1,37
 576 422 576 422 566 410 c 1,38,-1
 480 430 l 1,39,40
 505 394 505 394 505 337 c 128,-1,41
 505 280 505 280 486 237.5 c 128,-1,42
 467 195 467 195 434 173.5 c 128,-1,0
 401 152 401 152 364 142.5 c 128,-1,1
436 -69 m 128,-1,44
 436 -44 436 -44 414 -32.5 c 128,-1,45
 392 -21 392 -21 362 -21 c 0,46,47
 245 -21 245 -21 207 -19 c 1,48,49
 199 -36 199 -36 187 -67.5 c 128,-1,50
 175 -99 175 -99 175 -105 c 128,-1,51
 175 -111 175 -111 183 -122.5 c 128,-1,52
 191 -134 191 -134 217.5 -147 c 128,-1,53
 244 -160 244 -160 282.5 -160 c 128,-1,54
 321 -160 321 -160 373 -142 c 128,-1,55
 425 -124 425 -124 429 -113 c 0,56,43
 436 -94 436 -94 436 -69 c 128,-1,44
283 445 m 128,-1,58
 241 445 241 445 217.5 418 c 128,-1,59
 194 391 194 391 194 339.5 c 128,-1,60
 194 288 194 288 218 259 c 128,-1,61
 242 230 242 230 283 230 c 0,62,63
 372 230 372 230 372 340 c 0,64,65
 372 391 372 391 348.5 418 c 128,-1,57
 325 445 325 445 283 445 c 128,-1,58
EndSplineSet
EndChar

StartChar: hbar
Encoding: 295 295 203
Width: 617
GlyphClass: 2
Flags: W
LayerCount: 2
Fore
SplineSet
284 601 m 1,0,1
 288 582 288 582 288 571 c 128,-1,2
 288 560 288 560 285 536 c 1,3,4
 263 533 263 533 238 531 c 1,5,-1
 238 480 l 1,6,7
 270 494 270 494 311 507 c 128,-1,8
 352 520 352 520 362 520 c 0,9,10
 464 520 464 520 508.5 474 c 128,-1,11
 553 428 553 428 553 329 c 0,12,13
 553 319 553 319 543 96 c 1,14,-1
 621 86 l 1,15,16
 621 43 621 43 598 0 c 1,17,-1
 349 0 l 1,18,-1
 340 55 l 1,19,20
 407 82 407 82 426 84 c 1,21,22
 426 86 426 86 420 298 c 0,23,24
 418 358 418 358 405 385.5 c 128,-1,25
 392 413 392 413 363.5 413 c 128,-1,26
 335 413 335 413 298.5 406.5 c 128,-1,27
 262 400 262 400 242 391 c 1,28,-1
 231 96 l 1,29,-1
 309 87 l 1,30,31
 309 46 309 46 286 0 c 1,32,-1
 37 0 l 1,33,-1
 28 55 l 1,34,35
 90 78 90 78 118 85 c 1,36,-1
 102 531 l 1,37,-1
 27 535 l 1,38,39
 22 552 22 552 22 564.5 c 128,-1,40
 22 577 22 577 25 601 c 1,41,42
 63 605 63 605 100 607 c 1,43,-1
 100 650 l 1,44,45
 52 655 52 655 20 665 c 1,46,47
 20 685 20 685 27 727 c 1,48,49
 86 743 86 743 229 743 c 0,50,51
 248 743 248 743 253 742 c 1,52,53
 253 690 253 690 240 651 c 1,54,55
 239 635 239 635 239 603 c 1,56,-1
 284 601 l 1,0,1
EndSplineSet
EndChar

StartChar: Itilde
Encoding: 296 296 204
Width: 380
GlyphClass: 2
Flags: W
LayerCount: 2
Fore
SplineSet
323 700 m 2,0,1
 322 700 322 700 323.5 698 c 128,-1,2
 325 696 325 696 327.5 689.5 c 128,-1,3
 330 683 330 683 333 674 c 0,4,5
 339 658 339 658 341 621 c 1,6,7
 290 613 290 613 274 611 c 1,8,-1
 269 96 l 1,9,-1
 338 87 l 1,10,11
 338 46 338 46 315 0 c 1,12,-1
 72 0 l 1,13,-1
 63 55 l 1,14,15
 119 78 119 78 147 84 c 1,16,17
 146 143 146 143 144 250 c 0,18,19
 141 490 141 490 138 613 c 1,20,-1
 55 639 l 1,21,-1
 63 700 l 1,22,-1
 323 700 l 2,0,1
50 757 m 1,23,24
 31 782 31 782 18 810 c 1,25,26
 36 835 36 835 109 890 c 0,27,28
 128 904 128 904 146 904 c 128,-1,29
 164 904 164 904 209 884 c 128,-1,30
 254 864 254 864 271 860 c 1,31,32
 359 902 359 902 360 903 c 1,33,34
 384 869 384 869 393 850 c 1,35,36
 365 809 365 809 300 767 c 0,37,38
 280 753 280 753 265 753 c 1,39,40
 242 760 242 760 203 776.5 c 128,-1,41
 164 793 164 793 144 798 c 1,42,43
 129 789 129 789 97 776.5 c 128,-1,44
 65 764 65 764 50 757 c 1,23,24
EndSplineSet
EndChar

StartChar: itilde
Encoding: 297 297 205
Width: 308
GlyphClass: 2
Flags: W
LayerCount: 2
Fore
SplineSet
18 565 m 1,0,1
 -1 590 -1 590 -14 618 c 1,2,3
 4 643 4 643 77 698 c 0,4,5
 96 712 96 712 114 712 c 128,-1,6
 132 712 132 712 177 692 c 128,-1,7
 222 672 222 672 239 668 c 1,8,9
 327 710 327 710 328 711 c 1,10,11
 352 677 352 677 361 658 c 1,12,13
 333 617 333 617 268 575 c 0,14,15
 248 561 248 561 233 561 c 1,16,17
 210 568 210 568 171 584.5 c 128,-1,18
 132 601 132 601 112 606 c 1,19,20
 97 597 97 597 65 584.5 c 128,-1,21
 33 572 33 572 18 565 c 1,0,1
239 512 m 0,22,23
 258 512 258 512 263 511 c 1,24,25
 263 462 263 462 246 420 c 1,26,27
 242 204 242 204 241 96 c 1,28,-1
 319 87 l 1,29,30
 319 46 319 46 296 0 c 1,31,-1
 47 0 l 1,32,-1
 38 55 l 1,33,34
 100 78 100 78 128 85 c 1,35,-1
 117 409 l 1,36,37
 58 415 58 415 30 424 c 1,38,39
 30 449 30 449 37 496 c 1,40,41
 96 512 96 512 239 512 c 0,22,23
EndSplineSet
EndChar

StartChar: Imacron
Encoding: 298 298 206
Width: 380
GlyphClass: 2
Flags: W
LayerCount: 2
Fore
SplineSet
323 700 m 2,0,1
 322 700 322 700 323.5 698 c 128,-1,2
 325 696 325 696 327.5 689.5 c 128,-1,3
 330 683 330 683 333 674 c 0,4,5
 339 658 339 658 341 621 c 1,6,7
 290 613 290 613 274 611 c 1,8,-1
 269 96 l 1,9,-1
 338 87 l 1,10,11
 338 46 338 46 315 0 c 1,12,-1
 72 0 l 1,13,-1
 63 55 l 1,14,15
 119 78 119 78 147 84 c 1,16,17
 146 143 146 143 144 250 c 0,18,19
 141 490 141 490 138 613 c 1,20,-1
 55 639 l 1,21,-1
 63 700 l 1,22,-1
 323 700 l 2,0,1
79 889 m 1,23,24
 148 896 148 896 201 896 c 128,-1,25
 254 896 254 896 327 889 c 1,26,27
 329 880 329 880 329 850 c 1,28,-1
 326 802 l 1,29,30
 257 796 257 796 213 796 c 1,31,-1
 80 801 l 1,32,33
 75 824 75 824 75 841 c 1,34,-1
 79 889 l 1,23,24
EndSplineSet
EndChar

StartChar: ibreve
Encoding: 301 301 209
Width: 308
GlyphClass: 2
Flags: W
LayerCount: 2
Fore
SplineSet
239 512 m 0,0,1
 258 512 258 512 263 511 c 1,2,3
 263 462 263 462 246 420 c 1,4,5
 242 204 242 204 241 96 c 1,6,-1
 319 87 l 1,7,8
 319 46 319 46 296 0 c 1,9,-1
 47 0 l 1,10,-1
 38 55 l 1,11,12
 100 78 100 78 128 85 c 1,13,-1
 117 409 l 1,14,15
 58 415 58 415 30 424 c 1,16,17
 30 449 30 449 37 496 c 1,18,19
 96 512 96 512 239 512 c 0,0,1
EndSplineSet
EndChar

StartChar: dotlessi
Encoding: 305 305 210
Width: 308
GlyphClass: 2
Flags: W
LayerCount: 2
Fore
SplineSet
239 512 m 0,0,1
 258 512 258 512 263 511 c 1,2,3
 263 462 263 462 246 420 c 1,4,5
 242 204 242 204 241 96 c 1,6,-1
 319 87 l 1,7,8
 319 46 319 46 296 0 c 1,9,-1
 47 0 l 1,10,-1
 38 55 l 1,11,12
 100 78 100 78 128 85 c 1,13,-1
 117 409 l 1,14,15
 58 415 58 415 30 424 c 1,16,17
 30 449 30 449 37 496 c 1,18,19
 96 512 96 512 239 512 c 0,0,1
EndSplineSet
EndChar

StartChar: IJ
Encoding: 306 306 211
Width: 841
GlyphClass: 2
Flags: W
LayerCount: 2
Fore
SplineSet
323 700 m 2,0,1
 322 700 322 700 323.5 698 c 128,-1,2
 325 696 325 696 327.5 689.5 c 128,-1,3
 330 683 330 683 333 674 c 0,4,5
 339 658 339 658 341 621 c 1,6,7
 290 613 290 613 274 611 c 1,8,-1
 269 96 l 1,9,-1
 338 87 l 1,10,11
 338 46 338 46 315 0 c 1,12,-1
 72 0 l 1,13,-1
 63 55 l 1,14,15
 119 78 119 78 147 84 c 1,16,17
 146 143 146 143 144 250 c 0,18,19
 141 490 141 490 138 613 c 1,20,-1
 55 639 l 1,21,-1
 63 700 l 1,22,-1
 323 700 l 2,0,1
562 93 m 0,23,24
 625 93 625 93 625 189 c 0,25,26
 625 225 625 225 614 613 c 1,27,-1
 531 639 l 1,28,-1
 539 700 l 1,29,-1
 799 700 l 1,30,31
 817 661 817 661 817 621 c 1,32,33
 757 611 757 611 750 611 c 1,34,35
 749 553 749 553 748.5 404 c 128,-1,36
 748 255 748 255 746 170.5 c 128,-1,37
 744 86 744 86 702 36.5 c 128,-1,38
 660 -13 660 -13 580 -13 c 0,39,40
 522 -13 522 -13 464.5 5 c 128,-1,41
 407 23 407 23 382 47 c 1,42,43
 383 120 383 120 398 213 c 1,44,45
 438 224 438 224 496 224 c 1,46,-1
 515 97 l 1,47,48
 531 93 531 93 562 93 c 0,23,24
EndSplineSet
EndChar

StartChar: ij
Encoding: 307 307 212
Width: 613
GlyphClass: 2
Flags: W
LayerCount: 2
Fore
SplineSet
254 512 m 0,0,1
 273 512 273 512 278 511 c 1,2,3
 278 462 278 462 261 420 c 1,4,5
 257 204 257 204 256 96 c 1,6,-1
 334 87 l 1,7,8
 334 46 334 46 311 0 c 1,9,-1
 62 0 l 1,10,-1
 53 55 l 1,11,12
 115 78 115 78 143 85 c 1,13,-1
 132 409 l 1,14,15
 74 415 74 415 45 424 c 1,16,17
 45 461 45 461 52 496 c 1,18,19
 111 512 111 512 254 512 c 0,0,1
359 -150 m 1,20,-1
 380 -151 l 1,21,22
 413 -151 413 -151 428.5 -116.5 c 128,-1,23
 444 -82 444 -82 444 -31 c 0,24,25
 444 94 444 94 429 409 c 1,26,27
 370 415 370 415 342 424 c 1,28,29
 342 449 342 449 349 496 c 1,30,31
 408 512 408 512 551 512 c 0,32,33
 570 512 570 512 575 511 c 1,34,35
 575 462 575 462 558 420 c 1,36,-1
 554 -13 l 2,37,38
 553 -131 553 -131 517 -185.5 c 128,-1,39
 481 -240 481 -240 376 -240 c 0,40,41
 342 -240 342 -240 291.5 -224.5 c 128,-1,42
 241 -209 241 -209 220 -195 c 1,43,44
 225 -99 225 -99 241 -51 c 1,45,46
 264 -42 264 -42 302 -42 c 1,47,-1
 335 -43 l 1,48,-1
 359 -150 l 1,20,-1
551 701 m 1,49,50
 560 656 560 656 560 632.5 c 128,-1,51
 560 609 560 609 556 580 c 1,52,53
 516 571 516 571 488.5 571 c 128,-1,54
 461 571 461 571 422 574 c 1,55,56
 413 619 413 619 413 642.5 c 128,-1,57
 413 666 413 666 417 695 c 1,58,59
 457 704 457 704 484.5 704 c 128,-1,60
 512 704 512 704 551 701 c 1,49,50
EndSplineSet
EndChar

StartChar: Jcircumflex
Encoding: 308 308 213
Width: 464
GlyphClass: 2
Flags: W
LayerCount: 2
Fore
SplineSet
135 93 m 0,0,1
 198 93 198 93 198 189 c 0,2,3
 198 225 198 225 187 613 c 1,4,-1
 104 639 l 1,5,-1
 112 700 l 1,6,-1
 372 700 l 1,7,8
 390 661 390 661 390 621 c 1,9,10
 330 611 330 611 323 611 c 1,11,12
 322 553 322 553 321.5 404 c 128,-1,13
 321 255 321 255 319 170.5 c 128,-1,14
 317 86 317 86 275 36.5 c 128,-1,15
 233 -13 233 -13 153 -13 c 0,16,17
 95 -13 95 -13 37.5 5 c 128,-1,18
 -20 23 -20 23 -45 47 c 1,19,20
 -44 120 -44 120 -29 213 c 1,21,22
 11 224 11 224 69 224 c 1,23,-1
 88 97 l 1,24,25
 104 93 104 93 135 93 c 0,0,1
429 747 m 1,26,27
 356 784 356 784 324 808 c 1,28,29
 306 794 306 794 219 747 c 1,30,31
 181 783 181 783 166 807 c 1,32,-1
 324 938 l 1,33,-1
 483 807 l 1,34,35
 469 785 469 785 429 747 c 1,26,27
EndSplineSet
EndChar

StartChar: jcircumflex
Encoding: 309 309 214
Width: 305
GlyphClass: 2
Flags: W
LayerCount: 2
Fore
SplineSet
41 -150 m 1,0,-1
 62 -151 l 1,1,2
 95 -151 95 -151 110.5 -116.5 c 128,-1,3
 126 -82 126 -82 126 -31 c 0,4,5
 126 133 126 133 111 409 c 1,6,7
 52 415 52 415 24 424 c 1,8,9
 24 449 24 449 31 496 c 1,10,11
 90 512 90 512 233 512 c 0,12,13
 252 512 252 512 257 511 c 1,14,15
 257 462 257 462 240 420 c 1,16,17
 238 277 238 277 236 -13 c 0,18,19
 235 -131 235 -131 199 -185.5 c 128,-1,20
 163 -240 163 -240 58 -240 c 0,21,22
 24 -240 24 -240 -26.5 -224.5 c 128,-1,23
 -77 -209 -77 -209 -98 -195 c 1,24,25
 -93 -99 -93 -99 -77 -51 c 1,26,27
 -54 -42 -54 -42 -16 -42 c 1,28,-1
 17 -43 l 1,29,-1
 41 -150 l 1,0,-1
165 746 m 1,30,-1
 324 615 l 1,31,32
 310 593 310 593 270 555 c 1,33,34
 263 559 263 559 237 573 c 0,35,36
 187 599 187 599 165 616 c 1,37,38
 141 597 141 597 83 568 c 1,39,-1
 60 555 l 1,40,41
 22 591 22 591 7 615 c 1,42,-1
 165 746 l 1,30,-1
EndSplineSet
EndChar

StartChar: kcedilla
Encoding: 311 311 215
Width: 591
GlyphClass: 2
Flags: W
LayerCount: 2
Fore
SplineSet
228 743 m 0,0,1
 247 743 247 743 252 742 c 1,2,3
 252 690 252 690 239 651 c 1,4,5
 233 411 233 411 233 295 c 1,6,-1
 352 413 l 1,7,-1
 290 421 l 1,8,9
 290 462 290 462 313 508 c 1,10,-1
 562 508 l 1,11,-1
 571 453 l 1,12,13
 509 430 509 430 481 423 c 1,14,-1
 371 313 l 1,15,-1
 511 96 l 1,16,-1
 589 87 l 1,17,18
 589 46 589 46 566 0 c 1,19,-1
 438 0 l 1,20,-1
 290 232 l 1,21,-1
 231 173 l 1,22,23
 230 147 230 147 230 96 c 1,24,-1
 308 87 l 1,25,26
 308 46 308 46 285 0 c 1,27,-1
 36 0 l 1,28,-1
 27 55 l 1,29,30
 89 78 89 78 117 85 c 1,31,-1
 98 640 l 1,32,33
 51 645 51 645 19 655 c 1,34,35
 19 692 19 692 26 727 c 1,36,37
 85 743 85 743 228 743 c 0,0,1
383 -83 m 1,38,39
 391 -113 391 -113 391 -150.5 c 128,-1,40
 391 -188 391 -188 358 -234 c 128,-1,41
 325 -280 325 -280 297 -297 c 1,42,43
 266 -283 266 -283 246 -263 c 1,44,45
 257 -232 257 -232 290 -191 c 1,46,-1
 273 -188 l 1,47,48
 266 -167 266 -167 266 -138.5 c 128,-1,49
 266 -110 266 -110 268 -87 c 1,50,51
 308 -79 308 -79 332 -79 c 128,-1,52
 356 -79 356 -79 383 -83 c 1,38,39
EndSplineSet
EndChar

StartChar: kgreenlandic
Encoding: 312 312 216
Width: 591
GlyphClass: 2
Flags: W
LayerCount: 2
Fore
SplineSet
235 173 m 1,0,-1
 234 96 l 1,1,-1
 312 87 l 1,2,3
 312 46 312 46 289 0 c 1,4,-1
 40 0 l 1,5,-1
 31 55 l 1,6,7
 93 78 93 78 121 85 c 1,8,9
 120 146 120 146 116 257.5 c 128,-1,10
 112 369 112 369 111 404 c 1,11,12
 62 406 62 406 19 420 c 1,13,14
 19 457 19 457 26 492 c 1,15,16
 85 508 85 508 228 508 c 0,17,18
 247 508 247 508 252 507 c 1,19,20
 252 455 252 455 239 416 c 1,21,22
 237 336 237 336 237 295 c 1,23,-1
 356 413 l 1,24,-1
 294 421 l 1,25,26
 294 462 294 462 317 508 c 1,27,-1
 566 508 l 1,28,-1
 575 453 l 1,29,30
 513 430 513 430 485 423 c 1,31,-1
 375 313 l 1,32,-1
 515 96 l 1,33,-1
 593 87 l 1,34,35
 593 46 593 46 570 0 c 1,36,-1
 442 0 l 1,37,-1
 294 232 l 1,38,-1
 235 173 l 1,0,-1
EndSplineSet
EndChar

StartChar: ldot
Encoding: 320 320 218
Width: 503
GlyphClass: 2
Flags: W
LayerCount: 2
Fore
SplineSet
460 351 m 1,0,1
 469 315 469 315 469 289.5 c 128,-1,2
 469 264 469 264 466 232 c 1,3,4
 432 223 432 223 401 223 c 128,-1,5
 370 223 370 223 333 226 c 1,6,7
 323 266 323 266 323 284.5 c 128,-1,8
 323 303 323 303 327 345 c 1,9,10
 360 354 360 354 390.5 354 c 128,-1,11
 421 354 421 354 460 351 c 1,0,1
228 743 m 0,12,13
 247 743 247 743 252 742 c 1,14,15
 252 690 252 690 239 651 c 1,16,17
 238 589 238 589 236 476 c 0,18,19
 232 228 232 228 230 96 c 1,20,-1
 308 87 l 1,21,22
 308 46 308 46 285 0 c 1,23,-1
 36 0 l 1,24,-1
 27 55 l 1,25,26
 89 78 89 78 117 85 c 1,27,-1
 98 640 l 1,28,29
 51 645 51 645 19 655 c 1,30,31
 19 692 19 692 26 727 c 1,32,33
 85 743 85 743 228 743 c 0,12,13
EndSplineSet
EndChar

StartChar: Lslash
Encoding: 321 321 219
Width: 592
GlyphClass: 2
Flags: W
LayerCount: 2
Fore
SplineSet
156 364 m 1,0,-1
 152 613 l 1,1,-1
 69 639 l 1,2,-1
 77 700 l 1,3,-1
 336 700 l 1,4,5
 352 673 352 673 355 621 c 1,6,7
 304 613 304 613 288 611 c 1,8,9
 288 588 288 588 287 546 c 0,10,11
 285 464 285 464 285 407 c 1,12,13
 307 415 307 415 356 428 c 1,14,15
 378 382 378 382 383 345 c 1,16,17
 329 319 329 319 284 305 c 1,18,19
 283 235 283 235 283 96 c 1,20,-1
 445 96 l 1,21,-1
 467 182 l 1,22,23
 491 186 491 186 503.5 186 c 128,-1,24
 516 186 516 186 558 179 c 1,25,26
 562 171 562 171 569.5 128 c 128,-1,27
 577 85 577 85 577 58.5 c 128,-1,28
 577 32 577 32 571 0 c 1,29,-1
 86 0 l 1,30,-1
 77 55 l 1,31,32
 126 75 126 75 161 84 c 1,33,34
 161 183 161 183 158 264 c 1,35,-1
 93 243 l 1,36,37
 73 277 73 277 63 323 c 1,38,39
 113 348 113 348 156 364 c 1,0,-1
EndSplineSet
EndChar

StartChar: lslash
Encoding: 322 322 220
Width: 303
GlyphClass: 2
Flags: W
LayerCount: 2
Fore
SplineSet
223 743 m 0,0,1
 242 743 242 743 247 742 c 1,2,3
 247 690 247 690 234 651 c 1,4,5
 230 487 230 487 229 405 c 1,6,-1
 301 428 l 1,7,8
 322 382 322 382 328 345 c 1,9,10
 271 318 271 318 227 304 c 1,11,12
 225 164 225 164 225 96 c 1,13,-1
 303 87 l 1,14,15
 303 46 303 46 280 0 c 1,16,-1
 31 0 l 1,17,-1
 22 55 l 1,18,19
 84 78 84 78 112 85 c 1,20,-1
 106 265 l 1,21,-1
 38 243 l 1,22,23
 18 277 18 277 8 323 c 1,24,25
 58 348 58 348 102 365 c 1,26,-1
 93 640 l 1,27,28
 46 645 46 645 14 655 c 1,29,30
 14 680 14 680 21 727 c 1,31,32
 80 743 80 743 223 743 c 0,0,1
EndSplineSet
EndChar

StartChar: Eng
Encoding: 330 330 223
Width: 785
GlyphClass: 2
Flags: W
LayerCount: 2
Fore
SplineSet
710 611 m 1,0,-1
 707 2 l 2,1,2
 707 -132 707 -132 664 -188 c 0,3,4
 647 -211 647 -211 615 -226.5 c 128,-1,5
 583 -242 583 -242 532.5 -242 c 128,-1,6
 482 -242 482 -242 424.5 -224 c 128,-1,7
 367 -206 367 -206 342 -182 c 1,8,9
 343 -109 343 -109 358 -16 c 1,10,11
 398 -5 398 -5 456 -5 c 1,12,-1
 475 -132 l 1,13,14
 491 -136 491 -136 522 -136 c 0,15,16
 585 -136 585 -136 585 -40 c 2,17,-1
 585 -10 l 1,18,-1
 249 538 l 1,19,20
 245 245 245 245 244 96 c 1,21,-1
 313 87 l 1,22,23
 313 46 313 46 290 0 c 1,24,-1
 47 0 l 1,25,-1
 38 55 l 1,26,27
 94 78 94 78 122 84 c 1,28,29
 122 87 122 87 113 613 c 1,30,-1
 30 639 l 1,31,-1
 38 700 l 1,32,-1
 298 700 l 1,33,-1
 589 178 l 1,34,-1
 574 613 l 1,35,-1
 491 639 l 1,36,-1
 499 700 l 1,37,-1
 758 700 l 1,38,39
 774 673 774 673 777 621 c 1,40,41
 726 613 726 613 710 611 c 1,0,-1
EndSplineSet
EndChar

StartChar: eng
Encoding: 331 331 224
Width: 616
GlyphClass: 2
Flags: W
LayerCount: 2
Fore
SplineSet
346 -150 m 1,0,-1
 367 -151 l 1,1,2
 400 -151 400 -151 415.5 -116.5 c 128,-1,3
 431 -82 431 -82 431 -31 c 0,4,5
 431 86 431 86 422 293 c 0,6,7
 419 358 419 358 407.5 385.5 c 128,-1,8
 396 413 396 413 355 413 c 0,9,10
 293 413 293 413 244 391 c 1,11,12
 243 348 243 348 238.5 250.5 c 128,-1,13
 234 153 234 153 233 96 c 1,14,-1
 311 87 l 1,15,16
 311 46 311 46 288 0 c 1,17,-1
 39 0 l 1,18,-1
 30 55 l 1,19,20
 80 74 80 74 120 85 c 1,21,22
 119 145 119 145 113.5 251 c 128,-1,23
 108 357 108 357 107 408 c 1,24,25
 70 412 70 412 28 423 c 1,26,-1
 33 495 l 1,27,28
 103 514 103 514 191 514 c 1,29,30
 202 507 202 507 221 471 c 1,31,32
 255 488 255 488 304 504 c 128,-1,33
 353 520 353 520 364 520 c 0,34,35
 464 520 464 520 509 471 c 128,-1,36
 554 422 554 422 554 324 c 0,37,38
 554 302 554 302 541 -13 c 0,39,40
 538 -73 538 -73 531 -110 c 128,-1,41
 524 -147 524 -147 506 -179 c 0,42,43
 472 -240 472 -240 363 -240 c 0,44,45
 329 -240 329 -240 278.5 -224.5 c 128,-1,46
 228 -209 228 -209 207 -195 c 1,47,48
 212 -99 212 -99 228 -51 c 1,49,50
 250 -42 250 -42 289 -42 c 1,51,-1
 322 -43 l 1,52,-1
 346 -150 l 1,0,-1
EndSplineSet
EndChar

StartChar: Omacron
Encoding: 332 332 225
Width: 647
GlyphClass: 2
Flags: W
LayerCount: 2
Fore
SplineSet
330 94 m 0,0,1
 496 94 496 94 496 349 c 128,-1,2
 496 604 496 604 330 604 c 0,3,4
 258 604 258 604 204 582 c 1,5,6
 158 486 158 486 158 359.5 c 128,-1,7
 158 233 158 233 196 163.5 c 128,-1,8
 234 94 234 94 330 94 c 0,0,1
330 712 m 0,9,10
 497 712 497 712 565 624.5 c 128,-1,11
 633 537 633 537 633 357 c 0,12,13
 633 244 633 244 604 164 c 128,-1,14
 575 84 575 84 506 36 c 128,-1,15
 437 -12 437 -12 330 -12 c 0,16,17
 167 -12 167 -12 93.5 79 c 128,-1,18
 20 170 20 170 20 344 c 0,19,20
 20 712 20 712 330 712 c 0,9,10
208 889 m 1,21,22
 277 896 277 896 329.5 896 c 128,-1,23
 382 896 382 896 456 889 c 1,24,25
 458 880 458 880 458 850 c 1,26,-1
 455 802 l 1,27,28
 386 796 386 796 342 796 c 1,29,-1
 209 801 l 1,30,31
 204 824 204 824 204 841 c 1,32,-1
 208 889 l 1,21,22
EndSplineSet
EndChar

StartChar: omacron
Encoding: 333 333 226
Width: 538
GlyphClass: 2
Flags: W
LayerCount: 2
Fore
SplineSet
295 440 m 0,0,1
 259 440 259 440 213 422 c 1,2,3
 200 402 200 402 188.5 351.5 c 128,-1,4
 177 301 177 301 177 250 c 0,5,6
 177 156 177 156 205 116.5 c 128,-1,7
 233 77 233 77 295.5 77 c 128,-1,8
 358 77 358 77 386 116.5 c 128,-1,9
 414 156 414 156 414 252.5 c 128,-1,10
 414 349 414 349 385.5 394.5 c 128,-1,11
 357 440 357 440 295 440 c 0,0,1
483.5 448.5 m 128,-1,13
 555 377 555 377 555 249.5 c 128,-1,14
 555 122 555 122 484 55 c 128,-1,15
 413 -12 413 -12 295 -12 c 128,-1,16
 177 -12 177 -12 106.5 55 c 128,-1,17
 36 122 36 122 36 249.5 c 128,-1,18
 36 377 36 377 107 448.5 c 128,-1,19
 178 520 178 520 295 520 c 128,-1,12
 412 520 412 520 483.5 448.5 c 128,-1,13
170 697 m 1,20,21
 239 704 239 704 291.5 704 c 128,-1,22
 344 704 344 704 418 697 c 1,23,24
 420 688 420 688 420 658 c 1,25,-1
 417 610 l 1,26,27
 348 604 348 604 304 604 c 1,28,-1
 171 609 l 1,29,30
 166 632 166 632 166 649 c 1,31,-1
 170 697 l 1,20,21
EndSplineSet
EndChar

StartChar: Obreve
Encoding: 334 334 227
Width: 647
GlyphClass: 2
Flags: W
LayerCount: 2
Fore
SplineSet
330 94 m 0,0,1
 496 94 496 94 496 349 c 128,-1,2
 496 604 496 604 330 604 c 0,3,4
 258 604 258 604 204 582 c 1,5,6
 158 486 158 486 158 359.5 c 128,-1,7
 158 233 158 233 196 163.5 c 128,-1,8
 234 94 234 94 330 94 c 0,0,1
330 712 m 0,9,10
 497 712 497 712 565 624.5 c 128,-1,11
 633 537 633 537 633 357 c 0,12,13
 633 244 633 244 604 164 c 128,-1,14
 575 84 575 84 506 36 c 128,-1,15
 437 -12 437 -12 330 -12 c 0,16,17
 167 -12 167 -12 93.5 79 c 128,-1,18
 20 170 20 170 20 344 c 0,19,20
 20 712 20 712 330 712 c 0,9,10
480 928 m 1,21,22
 480 864 480 864 437 815 c 128,-1,23
 394 766 394 766 322.5 766 c 128,-1,24
 251 766 251 766 210.5 814.5 c 128,-1,25
 170 863 170 863 170 928 c 1,26,-1
 252 928 l 1,27,28
 252 900 252 900 269.5 879.5 c 128,-1,29
 287 859 287 859 324 859 c 0,30,31
 387 859 387 859 387 928 c 1,32,-1
 480 928 l 1,21,22
EndSplineSet
EndChar

StartChar: obreve
Encoding: 335 335 228
Width: 538
GlyphClass: 2
Flags: W
LayerCount: 2
Fore
SplineSet
295 440 m 0,0,1
 259 440 259 440 213 422 c 1,2,3
 200 402 200 402 188.5 351.5 c 128,-1,4
 177 301 177 301 177 250 c 0,5,6
 177 156 177 156 205 116.5 c 128,-1,7
 233 77 233 77 295.5 77 c 128,-1,8
 358 77 358 77 386 116.5 c 128,-1,9
 414 156 414 156 414 252.5 c 128,-1,10
 414 349 414 349 385.5 394.5 c 128,-1,11
 357 440 357 440 295 440 c 0,0,1
483.5 448.5 m 128,-1,13
 555 377 555 377 555 249.5 c 128,-1,14
 555 122 555 122 484 55 c 128,-1,15
 413 -12 413 -12 295 -12 c 128,-1,16
 177 -12 177 -12 106.5 55 c 128,-1,17
 36 122 36 122 36 249.5 c 128,-1,18
 36 377 36 377 107 448.5 c 128,-1,19
 178 520 178 520 295 520 c 128,-1,12
 412 520 412 520 483.5 448.5 c 128,-1,13
EndSplineSet
EndChar

StartChar: OE
Encoding: 338 338 229
Width: 888
GlyphClass: 2
Flags: W
LayerCount: 2
Fore
SplineSet
710 184 m 1,0,-1
 746 185 l 1,1,-1
 804 178 l 1,2,3
 820 113 820 113 820 70.5 c 128,-1,4
 820 28 820 28 816 0 c 1,5,-1
 421 0 l 1,6,7
 385 -4 385 -4 329 -4 c 0,8,9
 175 -4 175 -4 97.5 79 c 128,-1,10
 20 162 20 162 20 339.5 c 128,-1,11
 20 517 20 517 92 608.5 c 128,-1,12
 164 700 164 700 324 700 c 2,13,-1
 802 700 l 1,14,15
 806 672 806 672 806 646 c 0,16,17
 806 592 806 592 790 518 c 1,18,19
 759 511 759 511 732 511 c 2,20,-1
 696 512 l 1,21,-1
 674 601 l 1,22,-1
 525 601 l 1,23,24
 523 519 523 519 521 404 c 1,25,-1
 623 404 l 1,26,-1
 633 473 l 1,27,28
 683 473 683 473 731 448 c 1,29,-1
 731 244 l 1,30,-1
 666 244 l 1,31,32
 642 281 642 281 637 308 c 1,33,-1
 520 308 l 1,34,-1
 517 96 l 1,35,-1
 688 96 l 1,36,-1
 710 184 l 1,0,-1
387 596 m 1,37,38
 358 604 358 604 328 604 c 0,39,40
 264 604 264 604 205 583 c 1,41,42
 160 501 160 501 160 344 c 0,43,44
 160 95 160 95 329 95 c 0,45,46
 362 95 362 95 396 107 c 1,47,-1
 387 596 l 1,37,38
EndSplineSet
EndChar

StartChar: oe
Encoding: 339 339 230
Width: 884
GlyphClass: 2
Flags: W
LayerCount: 2
Fore
SplineSet
644 87 m 0,0,1
 682 87 682 87 784 133 c 1,2,3
 816 89 816 89 817 59 c 1,4,5
 762 25 762 25 709 6.5 c 128,-1,6
 656 -12 656 -12 633 -12 c 0,7,8
 517 -12 517 -12 452 55 c 1,9,10
 393 -12 393 -12 280 -12 c 0,11,12
 36 -12 36 -12 36 254 c 128,-1,13
 36 520 36 520 280 520 c 0,14,15
 400 520 400 520 457 457 c 1,16,17
 518 520 518 520 625 520 c 128,-1,18
 732 520 732 520 782.5 454 c 128,-1,19
 833 388 833 388 834 283 c 1,20,21
 822 259 822 259 809 245 c 1,22,-1
 523 250 l 1,23,24
 525 169 525 169 551.5 128 c 128,-1,25
 578 87 578 87 644 87 c 0,0,1
201 125 m 128,-1,27
 224 78 224 78 287 78 c 128,-1,28
 350 78 350 78 373 124 c 128,-1,29
 396 170 396 170 396 255.5 c 128,-1,30
 396 341 396 341 373.5 389 c 128,-1,31
 351 437 351 437 290 437 c 0,32,33
 248 437 248 437 211 422 c 1,34,35
 178 355 178 355 178 263.5 c 128,-1,26
 178 172 178 172 201 125 c 128,-1,27
626 437 m 0,36,37
 588 437 588 437 555 422 c 1,38,39
 534 378 534 378 526 333 c 1,40,41
 603 335 603 335 703 337 c 1,42,43
 698 437 698 437 626 437 c 0,36,37
EndSplineSet
EndChar

StartChar: Racute
Encoding: 340 340 231
Width: 656
GlyphClass: 2
Flags: W
LayerCount: 2
Fore
SplineSet
281 700 m 2,0,1
 456 700 456 700 513 650 c 0,2,3
 565 605 565 605 565 511 c 0,4,5
 565 365 565 365 413 312 c 1,6,-1
 557 95 l 1,7,-1
 643 86 l 1,8,9
 643 43 643 43 620 0 c 1,10,-1
 475 0 l 1,11,-1
 279 299 l 1,12,-1
 247 299 l 1,13,-1
 244 95 l 1,14,-1
 317 87 l 1,15,16
 317 46 317 46 294 0 c 1,17,-1
 47 0 l 1,18,-1
 38 55 l 1,19,20
 98 79 98 79 122 84 c 1,21,22
 120 207 120 207 117 381 c 128,-1,23
 114 555 114 555 113 614 c 1,24,-1
 30 639 l 1,25,26
 31 662 31 662 39 700 c 1,27,-1
 281 700 l 2,0,1
360 593 m 0,28,29
 329 600 329 600 277 600 c 2,30,-1
 249 600 l 1,31,32
 247 462 247 462 247 393 c 1,33,-1
 296 394 l 2,34,35
 355 395 355 395 389.5 418.5 c 128,-1,36
 424 442 424 442 424 510 c 128,-1,37
 424 578 424 578 360 593 c 0,28,29
229 808 m 1,38,-1
 387 939 l 1,39,40
 446 892 446 892 450 852 c 1,41,42
 424 827 424 827 384.5 800 c 128,-1,43
 345 773 345 773 291 745 c 1,44,45
 259 769 259 769 229 808 c 1,38,-1
EndSplineSet
EndChar

StartChar: Rcommaaccent
Encoding: 342 342 233
Width: 656
GlyphClass: 2
Flags: W
LayerCount: 2
Fore
SplineSet
385 -83 m 1,0,1
 393 -113 393 -113 393 -150.5 c 128,-1,2
 393 -188 393 -188 360 -234 c 128,-1,3
 327 -280 327 -280 299 -297 c 1,4,5
 268 -283 268 -283 248 -263 c 1,6,7
 259 -232 259 -232 292 -191 c 1,8,-1
 275 -188 l 1,9,10
 268 -167 268 -167 268 -138.5 c 128,-1,11
 268 -110 268 -110 270 -87 c 1,12,13
 310 -79 310 -79 330.5 -79 c 128,-1,14
 351 -79 351 -79 385 -83 c 1,0,1
281 700 m 2,15,16
 456 700 456 700 513 650 c 0,17,18
 565 605 565 605 565 511 c 0,19,20
 565 365 565 365 413 312 c 1,21,-1
 557 95 l 1,22,-1
 643 86 l 1,23,24
 643 43 643 43 620 0 c 1,25,-1
 475 0 l 1,26,-1
 279 299 l 1,27,-1
 247 299 l 1,28,-1
 244 95 l 1,29,-1
 317 87 l 1,30,31
 317 46 317 46 294 0 c 1,32,-1
 47 0 l 1,33,-1
 38 55 l 1,34,35
 98 79 98 79 122 84 c 1,36,37
 120 207 120 207 117 381 c 128,-1,38
 114 555 114 555 113 614 c 1,39,-1
 30 639 l 1,40,41
 31 662 31 662 39 700 c 1,42,-1
 281 700 l 2,15,16
360 593 m 0,43,44
 329 600 329 600 277 600 c 2,45,-1
 249 600 l 1,46,47
 247 462 247 462 247 393 c 1,48,-1
 296 394 l 2,49,50
 355 395 355 395 389.5 418.5 c 128,-1,51
 424 442 424 442 424 510 c 128,-1,52
 424 578 424 578 360 593 c 0,43,44
EndSplineSet
EndChar

StartChar: rcommaaccent
Encoding: 343 343 234
Width: 449
GlyphClass: 2
Flags: W
LayerCount: 2
Fore
SplineSet
240 -83 m 1,0,1
 248 -113 248 -113 248 -150.5 c 128,-1,2
 248 -188 248 -188 215 -234 c 128,-1,3
 182 -280 182 -280 154 -297 c 1,4,5
 123 -283 123 -283 103 -263 c 1,6,7
 114 -232 114 -232 147 -191 c 1,8,-1
 130 -188 l 1,9,10
 123 -167 123 -167 123 -138.5 c 128,-1,11
 123 -110 123 -110 125 -87 c 1,12,13
 165 -79 165 -79 184.5 -79 c 128,-1,14
 204 -79 204 -79 240 -83 c 1,0,1
326 412 m 1,15,16
 324 417 324 417 306 417 c 128,-1,17
 288 417 288 417 244 390 c 1,18,19
 240 194 240 194 239 96 c 1,20,-1
 317 86 l 1,21,22
 317 43 317 43 294 0 c 1,23,-1
 45 0 l 1,24,-1
 36 55 l 1,25,26
 98 78 98 78 126 85 c 1,27,-1
 115 409 l 1,28,29
 63 413 63 413 28 424 c 1,30,-1
 35 496 l 1,31,32
 62 508 62 508 230 512 c 1,33,34
 239 503 239 503 239 477 c 1,35,36
 327 520 327 520 350.5 520 c 128,-1,37
 374 520 374 520 408.5 508.5 c 128,-1,38
 443 497 443 497 461 484 c 1,39,-1
 461 467 l 2,40,41
 461 385 461 385 441 315 c 1,42,43
 424 308 424 308 396 308 c 128,-1,44
 368 308 368 308 344 311 c 1,45,46
 341 324 341 324 326 412 c 1,15,16
EndSplineSet
EndChar

StartChar: rcaron
Encoding: 345 345 236
Width: 449
GlyphClass: 2
Flags: W
LayerCount: 2
Fore
SplineSet
407 680 m 1,0,-1
 248 550 l 1,1,-1
 90 680 l 1,2,3
 106 704 106 704 143 740 c 1,4,5
 153 734 153 734 158 732 c 0,6,7
 216 705 216 705 248 680 c 1,8,9
 287 708 287 708 315 721 c 128,-1,10
 343 734 343 734 353 740 c 1,11,12
 392 704 392 704 407 680 c 1,0,-1
326 412 m 1,13,14
 324 417 324 417 306 417 c 128,-1,15
 288 417 288 417 244 390 c 1,16,17
 240 194 240 194 239 96 c 1,18,-1
 317 86 l 1,19,20
 317 43 317 43 294 0 c 1,21,-1
 45 0 l 1,22,-1
 36 55 l 1,23,24
 98 78 98 78 126 85 c 1,25,-1
 115 409 l 1,26,27
 63 413 63 413 28 424 c 1,28,-1
 35 496 l 1,29,30
 62 508 62 508 230 512 c 1,31,32
 239 503 239 503 239 477 c 1,33,34
 327 520 327 520 350.5 520 c 128,-1,35
 374 520 374 520 408.5 508.5 c 128,-1,36
 443 497 443 497 461 484 c 1,37,-1
 461 467 l 2,38,39
 461 385 461 385 441 315 c 1,40,41
 424 308 424 308 396 308 c 128,-1,42
 368 308 368 308 344 311 c 1,43,44
 341 324 341 324 326 412 c 1,13,14
EndSplineSet
EndChar

StartChar: scaron
Encoding: 353 353 238
Width: 452
GlyphClass: 2
Flags: W
LayerCount: 2
Fore
SplineSet
399 477 m 1,0,-1
 400 446 l 1,1,2
 400 368 400 368 388 344 c 1,3,4
 355 332 355 332 296 332 c 1,5,-1
 264 433 l 1,6,7
 251 438 251 438 228 438 c 128,-1,8
 205 438 205 438 190.5 424 c 128,-1,9
 176 410 176 410 176 391 c 128,-1,10
 176 372 176 372 191 356.5 c 128,-1,11
 206 341 206 341 222 332 c 128,-1,12
 238 323 238 323 268.5 308.5 c 128,-1,13
 299 294 299 294 314.5 286 c 128,-1,14
 330 278 330 278 354.5 262 c 128,-1,15
 379 246 379 246 392 232 c 0,16,17
 424 194 424 194 424 149 c 0,18,19
 424 72 424 72 365.5 30 c 128,-1,20
 307 -12 307 -12 222 -12 c 0,21,22
 177 -12 177 -12 123.5 4 c 128,-1,23
 70 20 70 20 33 47 c 1,24,25
 33 119 33 119 47 181 c 1,26,27
 87 186 87 186 112 186 c 128,-1,28
 137 186 137 186 146 185 c 1,29,-1
 158 88 l 1,30,31
 183 79 183 79 218 79 c 128,-1,32
 253 79 253 79 273.5 93 c 128,-1,33
 294 107 294 107 294 132.5 c 128,-1,34
 294 158 294 158 271 175 c 128,-1,35
 248 192 248 192 208 210.5 c 128,-1,36
 168 229 168 229 146 241.5 c 128,-1,37
 124 254 124 254 99 274 c 0,38,39
 48 313 48 313 48 370 c 0,40,41
 48 441 48 441 97.5 480.5 c 128,-1,42
 147 520 147 520 231 520 c 128,-1,43
 315 520 315 520 399 477 c 1,0,-1
EndSplineSet
EndChar

StartChar: Umacron
Encoding: 362 362 239
Width: 754
GlyphClass: 2
Flags: W
LayerCount: 2
Fore
SplineSet
574 363 m 2,0,-1
 570 613 l 1,1,-1
 487 639 l 1,2,-1
 495 700 l 1,3,-1
 755 700 l 2,4,5
 754 700 754 700 755.5 698 c 128,-1,6
 757 696 757 696 759.5 689.5 c 128,-1,7
 762 683 762 683 765 674 c 0,8,9
 771 658 771 658 773 621 c 1,10,11
 722 613 722 613 706 611 c 1,12,-1
 704 357 l 2,13,14
 702 166 702 166 634.5 77 c 128,-1,15
 567 -12 567 -12 404 -12 c 128,-1,16
 241 -12 241 -12 177 71 c 128,-1,17
 113 154 113 154 111 339.5 c 128,-1,18
 109 525 109 525 107 613 c 1,19,-1
 24 639 l 1,20,-1
 32 700 l 1,21,-1
 292 700 l 2,22,23
 291 700 291 700 292.5 698 c 128,-1,24
 294 696 294 696 296.5 689.5 c 128,-1,25
 299 683 299 683 302 674 c 0,26,27
 308 658 308 658 310 621 c 1,28,29
 259 613 259 613 243 611 c 1,30,-1
 240 357 l 1,31,32
 240 246 240 246 252 199.5 c 128,-1,33
 264 153 264 153 282 134 c 0,34,35
 321 94 321 94 406 94 c 0,36,37
 488 94 488 94 530 140 c 0,38,39
 564 177 564 177 571 270 c 0,40,41
 574 307 574 307 574 363 c 2,0,-1
297 889 m 1,42,43
 366 896 366 896 419 896 c 128,-1,44
 472 896 472 896 545 889 c 1,45,46
 547 880 547 880 547 850 c 1,47,-1
 544 802 l 1,48,49
 475 796 475 796 431 796 c 1,50,-1
 298 801 l 1,51,52
 293 824 293 824 293 841 c 1,53,-1
 297 889 l 1,42,43
EndSplineSet
EndChar

StartChar: Ubreve
Encoding: 364 364 241
Width: 754
GlyphClass: 2
Flags: W
LayerCount: 2
Fore
SplineSet
574 363 m 2,0,-1
 570 613 l 1,1,-1
 487 639 l 1,2,-1
 495 700 l 1,3,-1
 755 700 l 2,4,5
 754 700 754 700 755.5 698 c 128,-1,6
 757 696 757 696 759.5 689.5 c 128,-1,7
 762 683 762 683 765 674 c 0,8,9
 771 658 771 658 773 621 c 1,10,11
 722 613 722 613 706 611 c 1,12,-1
 704 357 l 2,13,14
 702 166 702 166 634.5 77 c 128,-1,15
 567 -12 567 -12 404 -12 c 128,-1,16
 241 -12 241 -12 177 71 c 128,-1,17
 113 154 113 154 111 339.5 c 128,-1,18
 109 525 109 525 107 613 c 1,19,-1
 24 639 l 1,20,-1
 32 700 l 1,21,-1
 292 700 l 2,22,23
 291 700 291 700 292.5 698 c 128,-1,24
 294 696 294 696 296.5 689.5 c 128,-1,25
 299 683 299 683 302 674 c 0,26,27
 308 658 308 658 310 621 c 1,28,29
 259 613 259 613 243 611 c 1,30,-1
 240 357 l 1,31,32
 240 246 240 246 252 199.5 c 128,-1,33
 264 153 264 153 282 134 c 0,34,35
 321 94 321 94 406 94 c 0,36,37
 488 94 488 94 530 140 c 0,38,39
 564 177 564 177 571 270 c 0,40,41
 574 307 574 307 574 363 c 2,0,-1
551 928 m 1,42,43
 551 864 551 864 508 815 c 128,-1,44
 465 766 465 766 393.5 766 c 128,-1,45
 322 766 322 766 281.5 814.5 c 128,-1,46
 241 863 241 863 241 928 c 1,47,-1
 323 928 l 1,48,49
 323 900 323 900 340.5 879.5 c 128,-1,50
 358 859 358 859 395 859 c 0,51,52
 458 859 458 859 458 928 c 1,53,-1
 551 928 l 1,42,43
EndSplineSet
EndChar

StartChar: ubreve
Encoding: 365 365 242
Width: 595
GlyphClass: 2
Flags: W
LayerCount: 2
Fore
SplineSet
509 512 m 0,0,1
 528 512 528 512 533 511 c 1,2,3
 533 460 533 460 516 423 c 1,4,5
 510 203 510 203 506 98 c 1,6,7
 551 94 551 94 585 83 c 1,8,-1
 583 13 l 1,9,10
 522 -6 522 -6 478 -6 c 128,-1,11
 434 -6 434 -6 418 -4 c 1,12,13
 406 20 406 20 398 44 c 1,14,15
 315 -12 315 -12 278 -12 c 0,16,17
 99 -12 99 -12 99 169 c 0,18,19
 99 218 99 218 107 410 c 1,20,21
 54 410 54 410 10 424 c 1,22,23
 10 449 10 449 17 496 c 1,24,25
 76 512 76 512 219 512 c 0,26,27
 238 512 238 512 243 511 c 1,28,29
 243 462 243 462 226 420 c 1,30,-1
 226 218 l 2,31,32
 226 154 226 154 239.5 124.5 c 128,-1,33
 253 95 253 95 297.5 95 c 128,-1,34
 342 95 342 95 389 126 c 1,35,-1
 383 410 l 1,36,37
 339 412 339 412 300 424 c 1,38,39
 300 449 300 449 307 496 c 1,40,41
 366 512 366 512 509 512 c 0,0,1
EndSplineSet
EndChar

StartChar: uring
Encoding: 367 367 244
Width: 595
GlyphClass: 2
Flags: W
LayerCount: 2
Fore
SplineSet
509 512 m 0,0,1
 528 512 528 512 533 511 c 1,2,3
 533 460 533 460 516 423 c 1,4,5
 510 203 510 203 506 98 c 1,6,7
 551 94 551 94 585 83 c 1,8,-1
 583 13 l 1,9,10
 522 -6 522 -6 478 -6 c 128,-1,11
 434 -6 434 -6 418 -4 c 1,12,13
 406 20 406 20 398 44 c 1,14,15
 315 -12 315 -12 278 -12 c 0,16,17
 99 -12 99 -12 99 169 c 0,18,19
 99 218 99 218 107 410 c 1,20,21
 54 410 54 410 10 424 c 1,22,23
 10 449 10 449 17 496 c 1,24,25
 76 512 76 512 219 512 c 0,26,27
 238 512 238 512 243 511 c 1,28,29
 243 462 243 462 226 420 c 1,30,-1
 226 218 l 2,31,32
 226 154 226 154 239.5 124.5 c 128,-1,33
 253 95 253 95 297.5 95 c 128,-1,34
 342 95 342 95 389 126 c 1,35,-1
 383 410 l 1,36,37
 339 412 339 412 300 424 c 1,38,39
 300 449 300 449 307 496 c 1,40,41
 366 512 366 512 509 512 c 0,0,1
EndSplineSet
EndChar

StartChar: Zcaron
Encoding: 381 381 246
Width: 596
GlyphClass: 2
Flags: W
LayerCount: 2
Fore
SplineSet
182 494 m 1,0,-1
 151 493 l 2,1,2
 123 493 123 493 93 505 c 1,3,4
 75 583 75 583 75 627 c 128,-1,5
 75 671 75 671 79 700 c 1,6,-1
 538 700 l 1,7,8
 562 668 562 668 570 621 c 1,9,-1
 218 96 l 1,10,-1
 435 96 l 1,11,-1
 457 203 l 1,12,-1
 489 204 l 2,13,14
 517 204 517 204 547 192 c 1,15,16
 564 117 564 117 564 74 c 128,-1,17
 564 31 564 31 560 0 c 1,18,-1
 77 0 l 1,19,20
 52 32 52 32 45 77 c 1,21,-1
 396 601 l 1,22,-1
 206 601 l 1,23,-1
 182 494 l 1,0,-1
229 938 m 1,24,25
 302 901 302 901 334 877 c 1,26,27
 352 891 352 891 439 938 c 1,28,29
 477 902 477 902 492 878 c 1,30,-1
 334 747 l 1,31,-1
 175 878 l 1,32,33
 189 900 189 900 229 938 c 1,24,25
EndSplineSet
EndChar

StartChar: zcaron
Encoding: 382 382 247
Width: 485
GlyphClass: 2
Flags: W
LayerCount: 2
Fore
SplineSet
442 183 m 1,0,1
 458 126 458 126 458 84 c 128,-1,2
 458 42 458 42 454 0 c 1,3,-1
 66 0 l 1,4,5
 46 29 46 29 44 71 c 1,6,-1
 298 422 l 1,7,-1
 195 422 l 1,8,-1
 173 323 l 1,9,10
 165 322 165 322 137.5 322 c 128,-1,11
 110 322 110 322 78 329 c 1,12,13
 64 401 64 401 64 441 c 128,-1,14
 64 481 64 481 67 508 c 1,15,-1
 434 508 l 1,16,17
 448 480 448 480 448 435 c 1,18,-1
 205 90 l 1,19,-1
 326 90 l 1,20,-1
 348 189 l 1,21,22
 410 189 410 189 442 183 c 1,0,1
EndSplineSet
EndChar

StartChar: florin
Encoding: 402 402 248
Width: 542
GlyphClass: 2
Flags: W
LayerCount: 2
Fore
SplineSet
318 443 m 2,0,1
 380 443 380 443 415 436 c 1,2,3
 415 394 415 394 398 346 c 1,4,-1
 292 346 l 1,5,-1
 275 -17 l 2,6,7
 266 -229 266 -229 86 -229 c 0,8,9
 -7 -229 -7 -229 -70 -171 c 1,10,11
 -62 -94 -62 -94 -40 -47 c 2,12,-1
 -33 -32 l 1,13,14
 -14 -29 -14 -29 18 -29 c 2,15,-1
 35 -29 l 1,16,-1
 49 -128 l 1,17,18
 80 -139 80 -139 96.5 -139 c 128,-1,19
 113 -139 113 -139 124 -129 c 128,-1,20
 135 -119 135 -119 140 -96 c 0,21,22
 149 -61 149 -61 151 1 c 2,23,-1
 167 346 l 1,24,-1
 84 346 l 1,25,-1
 81 411 l 1,26,27
 131 432 131 432 169 438 c 1,28,-1
 175 537 l 2,29,30
 179 613 179 613 218 676 c 0,31,32
 239 709 239 709 279.5 729 c 128,-1,33
 320 749 320 749 375 749 c 0,34,35
 472 749 472 749 542 692 c 1,36,37
 536 653 536 653 524 618 c 128,-1,38
 512 583 512 583 494 553 c 1,39,40
 479 550 479 550 453 550 c 2,41,-1
 436 550 l 1,42,-1
 423 649 l 2,43,44
 422 649 422 649 412 652 c 0,45,46
 378 660 378 660 366 660 c 0,47,48
 328 660 328 660 318 634 c 0,49,50
 306 603 306 603 295 443 c 1,51,-1
 318 443 l 2,0,1
EndSplineSet
EndChar

StartChar: circumflex
Encoding: 710 710 249
Width: 458
GlyphClass: 2
Flags: W
LayerCount: 2
Fore
SplineSet
359 555 m 1,0,1
 286 592 286 592 254 616 c 1,2,3
 236 602 236 602 149 555 c 1,4,5
 111 591 111 591 96 615 c 1,6,-1
 254 746 l 1,7,-1
 413 615 l 1,8,9
 399 593 399 593 359 555 c 1,0,1
EndSplineSet
EndChar

StartChar: caron
Encoding: 711 711 250
Width: 458
GlyphClass: 2
Flags: W
LayerCount: 2
Fore
SplineSet
135 746 m 1,0,1
 208 709 208 709 240 685 c 1,2,3
 258 699 258 699 345 746 c 1,4,5
 383 710 383 710 398 686 c 1,6,-1
 240 555 l 1,7,-1
 81 686 l 1,8,9
 95 708 95 708 135 746 c 1,0,1
EndSplineSet
EndChar

StartChar: breve
Encoding: 728 728 251
Width: 458
GlyphClass: 2
Flags: W
LayerCount: 2
Fore
SplineSet
355 737 m 1,0,1
 355 673 355 673 312 624 c 128,-1,2
 269 575 269 575 197.5 575 c 128,-1,3
 126 575 126 575 85.5 623.5 c 128,-1,4
 45 672 45 672 45 737 c 1,5,-1
 127 737 l 1,6,7
 127 709 127 709 144.5 688.5 c 128,-1,8
 162 668 162 668 199 668 c 0,9,10
 262 668 262 668 262 737 c 1,11,-1
 355 737 l 1,0,1
EndSplineSet
EndChar

StartChar: dotaccent
Encoding: 729 729 252
Width: 154
GlyphClass: 2
Flags: W
LayerCount: 2
Fore
SplineSet
142 731 m 1,0,1
 151 686 151 686 151 662.5 c 128,-1,2
 151 639 151 639 147 610 c 1,3,4
 107 601 107 601 79.5 601 c 128,-1,5
 52 601 52 601 13 604 c 1,6,7
 4 649 4 649 4 672.5 c 128,-1,8
 4 696 4 696 8 725 c 1,9,10
 48 734 48 734 75.5 734 c 128,-1,11
 103 734 103 734 142 731 c 1,0,1
EndSplineSet
EndChar

StartChar: ring
Encoding: 730 730 253
Width: 472
GlyphClass: 2
Flags: W
LayerCount: 2
Fore
SplineSet
203 719.5 m 128,-1,1
 192 707 192 707 192 685.5 c 128,-1,2
 192 664 192 664 203 652 c 128,-1,3
 214 640 214 640 232.5 640 c 128,-1,4
 251 640 251 640 262 652 c 128,-1,5
 273 664 273 664 273 685.5 c 128,-1,6
 273 707 273 707 262 719.5 c 128,-1,7
 251 732 251 732 232.5 732 c 128,-1,0
 214 732 214 732 203 719.5 c 128,-1,1
324.5 771 m 128,-1,9
 363 739 363 739 363 684.5 c 128,-1,10
 363 630 363 630 325 600.5 c 128,-1,11
 287 571 287 571 233 571 c 128,-1,12
 179 571 179 571 140 601 c 128,-1,13
 101 631 101 631 101 685 c 128,-1,14
 101 739 101 739 140.5 771 c 128,-1,15
 180 803 180 803 233 803 c 128,-1,8
 286 803 286 803 324.5 771 c 128,-1,9
EndSplineSet
EndChar

StartChar: ogonek
Encoding: 731 731 254
Width: 302
GlyphClass: 2
Flags: W
LayerCount: 2
Fore
SplineSet
278 -170 m 1,0,1
 267 -196 267 -196 246 -223 c 1,2,3
 218 -223 218 -223 181.5 -217.5 c 128,-1,4
 145 -212 145 -212 131.5 -206 c 128,-1,5
 118 -200 118 -200 104 -192 c 1,6,7
 77 -174 77 -174 77 -138.5 c 128,-1,8
 77 -103 77 -103 95 -55.5 c 128,-1,9
 113 -8 113 -8 123 0 c 1,10,11
 140 3 140 3 165 3 c 128,-1,12
 190 3 190 3 208 0 c 0,13,14
 208 -1 208 -1 202 -25 c 0,15,16
 185 -93 185 -93 185 -107 c 0,17,18
 185 -109 185 -109 278 -170 c 1,0,1
EndSplineSet
EndChar

StartChar: tilde
Encoding: 732 732 255
Width: 639
GlyphClass: 2
Flags: W
LayerCount: 2
Fore
SplineSet
163 565 m 1,0,1
 144 590 144 590 131 618 c 1,2,3
 149 643 149 643 222 698 c 0,4,5
 241 712 241 712 259 712 c 128,-1,6
 277 712 277 712 322 692 c 128,-1,7
 367 672 367 672 384 668 c 1,8,9
 472 710 472 710 473 711 c 1,10,11
 497 677 497 677 506 658 c 1,12,13
 478 617 478 617 413 575 c 0,14,15
 393 561 393 561 378 561 c 1,16,17
 355 568 355 568 316 584.5 c 128,-1,18
 277 601 277 601 257 606 c 1,19,20
 242 597 242 597 210 584.5 c 128,-1,21
 178 572 178 572 163 565 c 1,0,1
EndSplineSet
EndChar

StartChar: hungarumlaut
Encoding: 733 733 256
Width: 476
GlyphClass: 2
Flags: W
LayerCount: 2
Fore
SplineSet
44 616 m 1,0,-1
 192 747 l 1,1,2
 251 700 251 700 255 660 c 1,3,4
 231 635 231 635 194 608 c 128,-1,5
 157 581 157 581 106 553 c 1,6,7
 74 577 74 577 44 616 c 1,0,-1
224 616 m 1,8,-1
 372 747 l 1,9,10
 431 700 431 700 435 660 c 1,11,12
 411 635 411 635 374 608 c 128,-1,13
 337 581 337 581 286 553 c 1,14,15
 254 577 254 577 224 616 c 1,8,-1
EndSplineSet
EndChar

StartChar: Delta
Encoding: 916 916 257
AltUni2: 002206.ffffffff.0
Width: 654
GlyphClass: 2
Flags: W
LayerCount: 2
Fore
SplineSet
269 704 m 1,0,1
 287 706 287 706 326 706 c 128,-1,2
 365 706 365 706 383 703 c 1,3,4
 608 124 608 124 621 88.5 c 128,-1,5
 634 53 634 53 634 35.5 c 128,-1,6
 634 18 634 18 631 0 c 1,7,-1
 22 0 l 1,8,9
 19 30 19 30 19 39.5 c 128,-1,10
 19 49 19 49 29 80 c 1,11,-1
 269 704 l 1,0,1
328 547 m 1,12,-1
 317 547 l 1,13,-1
 147 96 l 1,14,-1
 496 96 l 1,15,-1
 328 547 l 1,12,-1
EndSplineSet
EndChar

